<?xml version="1.0" standalone="no"?>
 <!DOCTYPE svg PUBLIC "-//W3C//DTD SVG 1.1//EN" 
 "http://www.w3.org/Graphics/SVG/1.1/DTD/svg11.dtd"> 
<svg
  xmlns:svg="http://www.w3.org/2000/svg"
  xmlns="http://www.w3.org/2000/svg"
  xmlns:xlink="http://www.w3.org/1999/xlink"
  version="1.1"
  width="297.0022mm" height="210.0072mm" viewBox="0.0000 0.0000 297.0022 210.0072">
<title>SVG Image created as Adapter-Pfostenstecker.svg date 2023/11/27 20:09:13 </title>
  <desc>Image generated by Eeschema-SVG </desc>
<g style="fill:#000000; fill-opacity:1.0000;stroke:#000000; stroke-opacity:1.0000;
stroke-linecap:round; stroke-linejoin:round;"
 transform="translate(0 0) scale(1 1)">
</g>
<g style="fill:#000000; fill-opacity:0.0; 
stroke:#000000; stroke-width:0.1524; stroke-opacity:1; 
stroke-linecap:round; stroke-linejoin:round;">
<g >
<rect x="110.490000" y="79.883000" width="1.270000" height="0.254000" rx="0.000000" />
<rect x="110.490000" y="77.343000" width="1.270000" height="0.254000" rx="0.000000" />
<rect x="110.490000" y="74.803000" width="1.270000" height="0.254000" rx="0.000000" />
<rect x="110.490000" y="72.263000" width="1.270000" height="0.254000" rx="0.000000" />
<rect x="110.490000" y="69.723000" width="1.270000" height="0.254000" rx="0.000000" />
<rect x="110.490000" y="67.183000" width="1.270000" height="0.254000" rx="0.000000" />
<rect x="110.490000" y="64.643000" width="1.270000" height="0.254000" rx="0.000000" />
<rect x="110.490000" y="62.103000" width="1.270000" height="0.254000" rx="0.000000" />
</g>
<g style="fill:#000000; fill-opacity:0.0; 
stroke:#000000; stroke-width:0.2540; stroke-opacity:1; 
stroke-linecap:round; stroke-linejoin:round;">
<rect x="110.490000" y="60.960000" width="2.540000" height="20.320000" rx="0.000000" />
</g>
<g style="fill:#000000; fill-opacity:0.0; 
stroke:#000000; stroke-width:0.1524; stroke-opacity:1; 
stroke-linecap:round; stroke-linejoin:round;">
<path d="M110.4900 62.2300
L106.6800 62.2300
" />
<text x="108.5850" y="61.9760"
textLength="1.4127" font-size="1.6933" lengthAdjust="spacingAndGlyphs"
text-anchor="middle" opacity="0">1</text>
<g class="stroked-text"><desc>1</desc>
<path d="M108.9479 61.8125
L108.2222 61.8125
" />
<path d="M108.5850 61.8125
L108.5850 60.5425
" />
<path d="M108.5850 60.5425
L108.4641 60.7240
" />
<path d="M108.4641 60.7240
L108.3431 60.8449
" />
<path d="M108.3431 60.8449
L108.2222 60.9054
" />
</g><path d="M110.4900 64.7700
L106.6800 64.7700
" />
<text x="108.5850" y="64.5160"
textLength="1.4127" font-size="1.6933" lengthAdjust="spacingAndGlyphs"
text-anchor="middle" opacity="0">2</text>
<g class="stroked-text"><desc>2</desc>
<path d="M108.2222 63.2035
L108.2826 63.1430
" />
<path d="M108.2826 63.1430
L108.4036 63.0825
" />
<path d="M108.4036 63.0825
L108.7060 63.0825
" />
<path d="M108.7060 63.0825
L108.8269 63.1430
" />
<path d="M108.8269 63.1430
L108.8874 63.2035
" />
<path d="M108.8874 63.2035
L108.9479 63.3244
" />
<path d="M108.9479 63.3244
L108.9479 63.4454
" />
<path d="M108.9479 63.4454
L108.8874 63.6268
" />
<path d="M108.8874 63.6268
L108.1617 64.3525
" />
<path d="M108.1617 64.3525
L108.9479 64.3525
" />
</g><path d="M110.4900 67.3100
L106.6800 67.3100
" />
<text x="108.5850" y="67.0560"
textLength="1.4127" font-size="1.6933" lengthAdjust="spacingAndGlyphs"
text-anchor="middle" opacity="0">3</text>
<g class="stroked-text"><desc>3</desc>
<path d="M108.1617 65.6225
L108.9479 65.6225
" />
<path d="M108.9479 65.6225
L108.5245 66.1063
" />
<path d="M108.5245 66.1063
L108.7060 66.1063
" />
<path d="M108.7060 66.1063
L108.8269 66.1668
" />
<path d="M108.8269 66.1668
L108.8874 66.2273
" />
<path d="M108.8874 66.2273
L108.9479 66.3482
" />
<path d="M108.9479 66.3482
L108.9479 66.6506
" />
<path d="M108.9479 66.6506
L108.8874 66.7716
" />
<path d="M108.8874 66.7716
L108.8269 66.8321
" />
<path d="M108.8269 66.8321
L108.7060 66.8925
" />
<path d="M108.7060 66.8925
L108.3431 66.8925
" />
<path d="M108.3431 66.8925
L108.2222 66.8321
" />
<path d="M108.2222 66.8321
L108.1617 66.7716
" />
</g><path d="M110.4900 69.8500
L106.6800 69.8500
" />
<text x="108.5850" y="69.5960"
textLength="1.4127" font-size="1.6933" lengthAdjust="spacingAndGlyphs"
text-anchor="middle" opacity="0">4</text>
<g class="stroked-text"><desc>4</desc>
<path d="M108.8269 68.5859
L108.8269 69.4325
" />
<path d="M108.5245 68.1021
L108.2222 69.0092
" />
<path d="M108.2222 69.0092
L109.0083 69.0092
" />
</g><path d="M110.4900 72.3900
L106.6800 72.3900
" />
<text x="108.5850" y="72.1360"
textLength="1.4127" font-size="1.6933" lengthAdjust="spacingAndGlyphs"
text-anchor="middle" opacity="0">5</text>
<g class="stroked-text"><desc>5</desc>
<path d="M108.8874 70.7025
L108.2826 70.7025
" />
<path d="M108.2826 70.7025
L108.2222 71.3073
" />
<path d="M108.2222 71.3073
L108.2826 71.2468
" />
<path d="M108.2826 71.2468
L108.4036 71.1863
" />
<path d="M108.4036 71.1863
L108.7060 71.1863
" />
<path d="M108.7060 71.1863
L108.8269 71.2468
" />
<path d="M108.8269 71.2468
L108.8874 71.3073
" />
<path d="M108.8874 71.3073
L108.9479 71.4282
" />
<path d="M108.9479 71.4282
L108.9479 71.7306
" />
<path d="M108.9479 71.7306
L108.8874 71.8516
" />
<path d="M108.8874 71.8516
L108.8269 71.9121
" />
<path d="M108.8269 71.9121
L108.7060 71.9725
" />
<path d="M108.7060 71.9725
L108.4036 71.9725
" />
<path d="M108.4036 71.9725
L108.2826 71.9121
" />
<path d="M108.2826 71.9121
L108.2222 71.8516
" />
</g><path d="M110.4900 74.9300
L106.6800 74.9300
" />
<text x="108.5850" y="74.6760"
textLength="1.4127" font-size="1.6933" lengthAdjust="spacingAndGlyphs"
text-anchor="middle" opacity="0">6</text>
<g class="stroked-text"><desc>6</desc>
<path d="M108.8269 73.2425
L108.5850 73.2425
" />
<path d="M108.5850 73.2425
L108.4641 73.3030
" />
<path d="M108.4641 73.3030
L108.4036 73.3635
" />
<path d="M108.4036 73.3635
L108.2826 73.5449
" />
<path d="M108.2826 73.5449
L108.2222 73.7868
" />
<path d="M108.2222 73.7868
L108.2222 74.2706
" />
<path d="M108.2222 74.2706
L108.2826 74.3916
" />
<path d="M108.2826 74.3916
L108.3431 74.4521
" />
<path d="M108.3431 74.4521
L108.4641 74.5125
" />
<path d="M108.4641 74.5125
L108.7060 74.5125
" />
<path d="M108.7060 74.5125
L108.8269 74.4521
" />
<path d="M108.8269 74.4521
L108.8874 74.3916
" />
<path d="M108.8874 74.3916
L108.9479 74.2706
" />
<path d="M108.9479 74.2706
L108.9479 73.9682
" />
<path d="M108.9479 73.9682
L108.8874 73.8473
" />
<path d="M108.8874 73.8473
L108.8269 73.7868
" />
<path d="M108.8269 73.7868
L108.7060 73.7263
" />
<path d="M108.7060 73.7263
L108.4641 73.7263
" />
<path d="M108.4641 73.7263
L108.3431 73.7868
" />
<path d="M108.3431 73.7868
L108.2826 73.8473
" />
<path d="M108.2826 73.8473
L108.2222 73.9682
" />
</g><path d="M110.4900 77.4700
L106.6800 77.4700
" />
<text x="108.5850" y="77.2160"
textLength="1.4127" font-size="1.6933" lengthAdjust="spacingAndGlyphs"
text-anchor="middle" opacity="0">7</text>
<g class="stroked-text"><desc>7</desc>
<path d="M108.1617 75.7825
L109.0083 75.7825
" />
<path d="M109.0083 75.7825
L108.4641 77.0525
" />
</g><path d="M110.4900 80.0100
L106.6800 80.0100
" />
<text x="108.5850" y="79.7560"
textLength="1.4127" font-size="1.6933" lengthAdjust="spacingAndGlyphs"
text-anchor="middle" opacity="0">8</text>
<g class="stroked-text"><desc>8</desc>
<path d="M108.4641 78.8668
L108.3431 78.8063
" />
<path d="M108.3431 78.8063
L108.2826 78.7459
" />
<path d="M108.2826 78.7459
L108.2222 78.6249
" />
<path d="M108.2222 78.6249
L108.2222 78.5644
" />
<path d="M108.2222 78.5644
L108.2826 78.4435
" />
<path d="M108.2826 78.4435
L108.3431 78.3830
" />
<path d="M108.3431 78.3830
L108.4641 78.3225
" />
<path d="M108.4641 78.3225
L108.7060 78.3225
" />
<path d="M108.7060 78.3225
L108.8269 78.3830
" />
<path d="M108.8269 78.3830
L108.8874 78.4435
" />
<path d="M108.8874 78.4435
L108.9479 78.5644
" />
<path d="M108.9479 78.5644
L108.9479 78.6249
" />
<path d="M108.9479 78.6249
L108.8874 78.7459
" />
<path d="M108.8874 78.7459
L108.8269 78.8063
" />
<path d="M108.8269 78.8063
L108.7060 78.8668
" />
<path d="M108.7060 78.8668
L108.4641 78.8668
" />
<path d="M108.4641 78.8668
L108.3431 78.9273
" />
<path d="M108.3431 78.9273
L108.2826 78.9878
" />
<path d="M108.2826 78.9878
L108.2222 79.1087
" />
<path d="M108.2222 79.1087
L108.2222 79.3506
" />
<path d="M108.2222 79.3506
L108.2826 79.4716
" />
<path d="M108.2826 79.4716
L108.3431 79.5321
" />
<path d="M108.3431 79.5321
L108.4641 79.5925
" />
<path d="M108.4641 79.5925
L108.7060 79.5925
" />
<path d="M108.7060 79.5925
L108.8269 79.5321
" />
<path d="M108.8269 79.5321
L108.8874 79.4716
" />
<path d="M108.8874 79.4716
L108.9479 79.3506
" />
<path d="M108.9479 79.3506
L108.9479 79.1087
" />
<path d="M108.9479 79.1087
L108.8874 78.9878
" />
<path d="M108.8874 78.9878
L108.8269 78.9273
" />
<path d="M108.8269 78.9273
L108.7060 78.8668
" />
</g><text x="116.8060" y="70.5429"
textLength="6.0088" font-size="1.6933" lengthAdjust="spacingAndGlyphs"
text-anchor="middle" opacity="0">J1002</text>
<g class="stroked-text"><desc>J1002</desc>
<path d="M114.5684 69.2174
L114.5684 70.1246
" />
<path d="M114.5684 70.1246
L114.5079 70.3060
" />
<path d="M114.5079 70.3060
L114.3870 70.4270
" />
<path d="M114.3870 70.4270
L114.2055 70.4874
" />
<path d="M114.2055 70.4874
L114.0846 70.4874
" />
<path d="M115.8384 70.4874
L115.1127 70.4874
" />
<path d="M115.4755 70.4874
L115.4755 69.2174
" />
<path d="M115.4755 69.2174
L115.3546 69.3989
" />
<path d="M115.3546 69.3989
L115.2336 69.5198
" />
<path d="M115.2336 69.5198
L115.1127 69.5803
" />
<path d="M116.6245 69.2174
L116.7455 69.2174
" />
<path d="M116.7455 69.2174
L116.8664 69.2779
" />
<path d="M116.8664 69.2779
L116.9269 69.3384
" />
<path d="M116.9269 69.3384
L116.9874 69.4593
" />
<path d="M116.9874 69.4593
L117.0479 69.7012
" />
<path d="M117.0479 69.7012
L117.0479 70.0036
" />
<path d="M117.0479 70.0036
L116.9874 70.2455
" />
<path d="M116.9874 70.2455
L116.9269 70.3665
" />
<path d="M116.9269 70.3665
L116.8664 70.4270
" />
<path d="M116.8664 70.4270
L116.7455 70.4874
" />
<path d="M116.7455 70.4874
L116.6245 70.4874
" />
<path d="M116.6245 70.4874
L116.5036 70.4270
" />
<path d="M116.5036 70.4270
L116.4431 70.3665
" />
<path d="M116.4431 70.3665
L116.3826 70.2455
" />
<path d="M116.3826 70.2455
L116.3222 70.0036
" />
<path d="M116.3222 70.0036
L116.3222 69.7012
" />
<path d="M116.3222 69.7012
L116.3826 69.4593
" />
<path d="M116.3826 69.4593
L116.4431 69.3384
" />
<path d="M116.4431 69.3384
L116.5036 69.2779
" />
<path d="M116.5036 69.2779
L116.6245 69.2174
" />
<path d="M117.8340 69.2174
L117.9550 69.2174
" />
<path d="M117.9550 69.2174
L118.0759 69.2779
" />
<path d="M118.0759 69.2779
L118.1364 69.3384
" />
<path d="M118.1364 69.3384
L118.1969 69.4593
" />
<path d="M118.1969 69.4593
L118.2574 69.7012
" />
<path d="M118.2574 69.7012
L118.2574 70.0036
" />
<path d="M118.2574 70.0036
L118.1969 70.2455
" />
<path d="M118.1969 70.2455
L118.1364 70.3665
" />
<path d="M118.1364 70.3665
L118.0759 70.4270
" />
<path d="M118.0759 70.4270
L117.9550 70.4874
" />
<path d="M117.9550 70.4874
L117.8340 70.4874
" />
<path d="M117.8340 70.4874
L117.7131 70.4270
" />
<path d="M117.7131 70.4270
L117.6526 70.3665
" />
<path d="M117.6526 70.3665
L117.5921 70.2455
" />
<path d="M117.5921 70.2455
L117.5317 70.0036
" />
<path d="M117.5317 70.0036
L117.5317 69.7012
" />
<path d="M117.5317 69.7012
L117.5921 69.4593
" />
<path d="M117.5921 69.4593
L117.6526 69.3384
" />
<path d="M117.6526 69.3384
L117.7131 69.2779
" />
<path d="M117.7131 69.2779
L117.8340 69.2174
" />
<path d="M118.7412 69.3384
L118.8016 69.2779
" />
<path d="M118.8016 69.2779
L118.9226 69.2174
" />
<path d="M118.9226 69.2174
L119.2250 69.2174
" />
<path d="M119.2250 69.2174
L119.3459 69.2779
" />
<path d="M119.3459 69.2779
L119.4064 69.3384
" />
<path d="M119.4064 69.3384
L119.4669 69.4593
" />
<path d="M119.4669 69.4593
L119.4669 69.5803
" />
<path d="M119.4669 69.5803
L119.4064 69.7617
" />
<path d="M119.4064 69.7617
L118.6807 70.4874
" />
<path d="M118.6807 70.4874
L119.4669 70.4874
" />
</g><text x="119.6785" y="72.9671"
textLength="11.7539" font-size="1.6933" lengthAdjust="spacingAndGlyphs"
text-anchor="middle" opacity="0">Conn_01x08</text>
<g class="stroked-text"><desc>Conn_01x08</desc>
<path d="M114.9312 72.7907
L114.8708 72.8512
" />
<path d="M114.8708 72.8512
L114.6893 72.9116
" />
<path d="M114.6893 72.9116
L114.5684 72.9116
" />
<path d="M114.5684 72.9116
L114.3870 72.8512
" />
<path d="M114.3870 72.8512
L114.2660 72.7302
" />
<path d="M114.2660 72.7302
L114.2055 72.6092
" />
<path d="M114.2055 72.6092
L114.1451 72.3673
" />
<path d="M114.1451 72.3673
L114.1451 72.1859
" />
<path d="M114.1451 72.1859
L114.2055 71.9440
" />
<path d="M114.2055 71.9440
L114.2660 71.8231
" />
<path d="M114.2660 71.8231
L114.3870 71.7021
" />
<path d="M114.3870 71.7021
L114.5684 71.6416
" />
<path d="M114.5684 71.6416
L114.6893 71.6416
" />
<path d="M114.6893 71.6416
L114.8708 71.7021
" />
<path d="M114.8708 71.7021
L114.9312 71.7626
" />
<path d="M115.6570 72.9116
L115.5360 72.8512
" />
<path d="M115.5360 72.8512
L115.4755 72.7907
" />
<path d="M115.4755 72.7907
L115.4151 72.6697
" />
<path d="M115.4151 72.6697
L115.4151 72.3069
" />
<path d="M115.4151 72.3069
L115.4755 72.1859
" />
<path d="M115.4755 72.1859
L115.5360 72.1254
" />
<path d="M115.5360 72.1254
L115.6570 72.0650
" />
<path d="M115.6570 72.0650
L115.8384 72.0650
" />
<path d="M115.8384 72.0650
L115.9593 72.1254
" />
<path d="M115.9593 72.1254
L116.0198 72.1859
" />
<path d="M116.0198 72.1859
L116.0803 72.3069
" />
<path d="M116.0803 72.3069
L116.0803 72.6697
" />
<path d="M116.0803 72.6697
L116.0198 72.7907
" />
<path d="M116.0198 72.7907
L115.9593 72.8512
" />
<path d="M115.9593 72.8512
L115.8384 72.9116
" />
<path d="M115.8384 72.9116
L115.6570 72.9116
" />
<path d="M116.6245 72.0650
L116.6245 72.9116
" />
<path d="M116.6245 72.1859
L116.6850 72.1254
" />
<path d="M116.6850 72.1254
L116.8060 72.0650
" />
<path d="M116.8060 72.0650
L116.9874 72.0650
" />
<path d="M116.9874 72.0650
L117.1083 72.1254
" />
<path d="M117.1083 72.1254
L117.1688 72.2464
" />
<path d="M117.1688 72.2464
L117.1688 72.9116
" />
<path d="M117.7735 72.0650
L117.7735 72.9116
" />
<path d="M117.7735 72.1859
L117.8340 72.1254
" />
<path d="M117.8340 72.1254
L117.9550 72.0650
" />
<path d="M117.9550 72.0650
L118.1364 72.0650
" />
<path d="M118.1364 72.0650
L118.2573 72.1254
" />
<path d="M118.2573 72.1254
L118.3178 72.2464
" />
<path d="M118.3178 72.2464
L118.3178 72.9116
" />
<path d="M118.6202 73.0326
L119.5878 73.0326
" />
<path d="M120.1320 71.6416
L120.2530 71.6416
" />
<path d="M120.2530 71.6416
L120.3739 71.7021
" />
<path d="M120.3739 71.7021
L120.4344 71.7626
" />
<path d="M120.4344 71.7626
L120.4949 71.8835
" />
<path d="M120.4949 71.8835
L120.5554 72.1254
" />
<path d="M120.5554 72.1254
L120.5554 72.4278
" />
<path d="M120.5554 72.4278
L120.4949 72.6697
" />
<path d="M120.4949 72.6697
L120.4344 72.7907
" />
<path d="M120.4344 72.7907
L120.3739 72.8512
" />
<path d="M120.3739 72.8512
L120.2530 72.9116
" />
<path d="M120.2530 72.9116
L120.1320 72.9116
" />
<path d="M120.1320 72.9116
L120.0111 72.8512
" />
<path d="M120.0111 72.8512
L119.9506 72.7907
" />
<path d="M119.9506 72.7907
L119.8901 72.6697
" />
<path d="M119.8901 72.6697
L119.8297 72.4278
" />
<path d="M119.8297 72.4278
L119.8297 72.1254
" />
<path d="M119.8297 72.1254
L119.8901 71.8835
" />
<path d="M119.8901 71.8835
L119.9506 71.7626
" />
<path d="M119.9506 71.7626
L120.0111 71.7021
" />
<path d="M120.0111 71.7021
L120.1320 71.6416
" />
<path d="M121.7649 72.9116
L121.0392 72.9116
" />
<path d="M121.4020 72.9116
L121.4020 71.6416
" />
<path d="M121.4020 71.6416
L121.2811 71.8231
" />
<path d="M121.2811 71.8231
L121.1601 71.9440
" />
<path d="M121.1601 71.9440
L121.0392 72.0045
" />
<path d="M122.1882 72.9116
L122.8534 72.0650
" />
<path d="M122.1882 72.0650
L122.8534 72.9116
" />
<path d="M123.5791 71.6416
L123.7001 71.6416
" />
<path d="M123.7001 71.6416
L123.8210 71.7021
" />
<path d="M123.8210 71.7021
L123.8815 71.7626
" />
<path d="M123.8815 71.7626
L123.9420 71.8835
" />
<path d="M123.9420 71.8835
L124.0025 72.1254
" />
<path d="M124.0025 72.1254
L124.0025 72.4278
" />
<path d="M124.0025 72.4278
L123.9420 72.6697
" />
<path d="M123.9420 72.6697
L123.8815 72.7907
" />
<path d="M123.8815 72.7907
L123.8210 72.8512
" />
<path d="M123.8210 72.8512
L123.7001 72.9116
" />
<path d="M123.7001 72.9116
L123.5791 72.9116
" />
<path d="M123.5791 72.9116
L123.4582 72.8512
" />
<path d="M123.4582 72.8512
L123.3977 72.7907
" />
<path d="M123.3977 72.7907
L123.3372 72.6697
" />
<path d="M123.3372 72.6697
L123.2768 72.4278
" />
<path d="M123.2768 72.4278
L123.2768 72.1254
" />
<path d="M123.2768 72.1254
L123.3372 71.8835
" />
<path d="M123.3372 71.8835
L123.3977 71.7626
" />
<path d="M123.3977 71.7626
L123.4582 71.7021
" />
<path d="M123.4582 71.7021
L123.5791 71.6416
" />
<path d="M124.7282 72.1859
L124.6072 72.1254
" />
<path d="M124.6072 72.1254
L124.5467 72.0650
" />
<path d="M124.5467 72.0650
L124.4863 71.9440
" />
<path d="M124.4863 71.9440
L124.4863 71.8835
" />
<path d="M124.4863 71.8835
L124.5467 71.7626
" />
<path d="M124.5467 71.7626
L124.6072 71.7021
" />
<path d="M124.6072 71.7021
L124.7282 71.6416
" />
<path d="M124.7282 71.6416
L124.9701 71.6416
" />
<path d="M124.9701 71.6416
L125.0910 71.7021
" />
<path d="M125.0910 71.7021
L125.1515 71.7626
" />
<path d="M125.1515 71.7626
L125.2120 71.8835
" />
<path d="M125.2120 71.8835
L125.2120 71.9440
" />
<path d="M125.2120 71.9440
L125.1515 72.0650
" />
<path d="M125.1515 72.0650
L125.0910 72.1254
" />
<path d="M125.0910 72.1254
L124.9701 72.1859
" />
<path d="M124.9701 72.1859
L124.7282 72.1859
" />
<path d="M124.7282 72.1859
L124.6072 72.2464
" />
<path d="M124.6072 72.2464
L124.5467 72.3069
" />
<path d="M124.5467 72.3069
L124.4863 72.4278
" />
<path d="M124.4863 72.4278
L124.4863 72.6697
" />
<path d="M124.4863 72.6697
L124.5467 72.7907
" />
<path d="M124.5467 72.7907
L124.6072 72.8512
" />
<path d="M124.6072 72.8512
L124.7282 72.9116
" />
<path d="M124.7282 72.9116
L124.9701 72.9116
" />
<path d="M124.9701 72.9116
L125.0910 72.8512
" />
<path d="M125.0910 72.8512
L125.1515 72.7907
" />
<path d="M125.1515 72.7907
L125.2120 72.6697
" />
<path d="M125.2120 72.6697
L125.2120 72.4278
" />
<path d="M125.2120 72.4278
L125.1515 72.3069
" />
<path d="M125.1515 72.3069
L125.0910 72.2464
" />
<path d="M125.0910 72.2464
L124.9701 72.1859
" />
</g></g>
</g>
<g style="fill:#000000; fill-opacity:0.0; 
stroke:#000000; stroke-width:0.1524; stroke-opacity:1; 
stroke-linecap:round; stroke-linejoin:round;">
<g >
<rect x="76.200000" y="79.883000" width="1.270000" height="0.254000" rx="0.000000" />
<rect x="76.200000" y="77.343000" width="1.270000" height="0.254000" rx="0.000000" />
<rect x="76.200000" y="74.803000" width="1.270000" height="0.254000" rx="0.000000" />
<rect x="76.200000" y="72.263000" width="1.270000" height="0.254000" rx="0.000000" />
<rect x="76.200000" y="69.723000" width="1.270000" height="0.254000" rx="0.000000" />
<rect x="76.200000" y="67.183000" width="1.270000" height="0.254000" rx="0.000000" />
<rect x="76.200000" y="64.643000" width="1.270000" height="0.254000" rx="0.000000" />
<rect x="76.200000" y="62.103000" width="1.270000" height="0.254000" rx="0.000000" />
</g>
<g style="fill:#000000; fill-opacity:0.0; 
stroke:#000000; stroke-width:0.2540; stroke-opacity:1; 
stroke-linecap:round; stroke-linejoin:round;">
<rect x="74.930000" y="60.960000" width="2.540000" height="20.320000" rx="0.000000" />
</g>
<g style="fill:#000000; fill-opacity:0.0; 
stroke:#000000; stroke-width:0.1524; stroke-opacity:1; 
stroke-linecap:round; stroke-linejoin:round;">
<path d="M77.4700 62.2300
L81.2800 62.2300
" />
<text x="79.3750" y="61.9760"
textLength="1.4127" font-size="1.6933" lengthAdjust="spacingAndGlyphs"
text-anchor="middle" opacity="0">1</text>
<g class="stroked-text"><desc>1</desc>
<path d="M79.7379 61.8125
L79.0122 61.8125
" />
<path d="M79.3750 61.8125
L79.3750 60.5425
" />
<path d="M79.3750 60.5425
L79.2541 60.7240
" />
<path d="M79.2541 60.7240
L79.1331 60.8449
" />
<path d="M79.1331 60.8449
L79.0122 60.9054
" />
</g><path d="M77.4700 64.7700
L81.2800 64.7700
" />
<text x="79.3750" y="64.5160"
textLength="1.4127" font-size="1.6933" lengthAdjust="spacingAndGlyphs"
text-anchor="middle" opacity="0">2</text>
<g class="stroked-text"><desc>2</desc>
<path d="M79.0122 63.2035
L79.0726 63.1430
" />
<path d="M79.0726 63.1430
L79.1936 63.0825
" />
<path d="M79.1936 63.0825
L79.4960 63.0825
" />
<path d="M79.4960 63.0825
L79.6169 63.1430
" />
<path d="M79.6169 63.1430
L79.6774 63.2035
" />
<path d="M79.6774 63.2035
L79.7379 63.3244
" />
<path d="M79.7379 63.3244
L79.7379 63.4454
" />
<path d="M79.7379 63.4454
L79.6774 63.6268
" />
<path d="M79.6774 63.6268
L78.9517 64.3525
" />
<path d="M78.9517 64.3525
L79.7379 64.3525
" />
</g><path d="M77.4700 67.3100
L81.2800 67.3100
" />
<text x="79.3750" y="67.0560"
textLength="1.4127" font-size="1.6933" lengthAdjust="spacingAndGlyphs"
text-anchor="middle" opacity="0">3</text>
<g class="stroked-text"><desc>3</desc>
<path d="M78.9517 65.6225
L79.7379 65.6225
" />
<path d="M79.7379 65.6225
L79.3145 66.1063
" />
<path d="M79.3145 66.1063
L79.4960 66.1063
" />
<path d="M79.4960 66.1063
L79.6169 66.1668
" />
<path d="M79.6169 66.1668
L79.6774 66.2273
" />
<path d="M79.6774 66.2273
L79.7379 66.3482
" />
<path d="M79.7379 66.3482
L79.7379 66.6506
" />
<path d="M79.7379 66.6506
L79.6774 66.7716
" />
<path d="M79.6774 66.7716
L79.6169 66.8321
" />
<path d="M79.6169 66.8321
L79.4960 66.8925
" />
<path d="M79.4960 66.8925
L79.1331 66.8925
" />
<path d="M79.1331 66.8925
L79.0122 66.8321
" />
<path d="M79.0122 66.8321
L78.9517 66.7716
" />
</g><path d="M77.4700 69.8500
L81.2800 69.8500
" />
<text x="79.3750" y="69.5960"
textLength="1.4127" font-size="1.6933" lengthAdjust="spacingAndGlyphs"
text-anchor="middle" opacity="0">4</text>
<g class="stroked-text"><desc>4</desc>
<path d="M79.6169 68.5859
L79.6169 69.4325
" />
<path d="M79.3145 68.1021
L79.0122 69.0092
" />
<path d="M79.0122 69.0092
L79.7983 69.0092
" />
</g><path d="M77.4700 72.3900
L81.2800 72.3900
" />
<text x="79.3750" y="72.1360"
textLength="1.4127" font-size="1.6933" lengthAdjust="spacingAndGlyphs"
text-anchor="middle" opacity="0">5</text>
<g class="stroked-text"><desc>5</desc>
<path d="M79.6774 70.7025
L79.0726 70.7025
" />
<path d="M79.0726 70.7025
L79.0122 71.3073
" />
<path d="M79.0122 71.3073
L79.0726 71.2468
" />
<path d="M79.0726 71.2468
L79.1936 71.1863
" />
<path d="M79.1936 71.1863
L79.4960 71.1863
" />
<path d="M79.4960 71.1863
L79.6169 71.2468
" />
<path d="M79.6169 71.2468
L79.6774 71.3073
" />
<path d="M79.6774 71.3073
L79.7379 71.4282
" />
<path d="M79.7379 71.4282
L79.7379 71.7306
" />
<path d="M79.7379 71.7306
L79.6774 71.8516
" />
<path d="M79.6774 71.8516
L79.6169 71.9121
" />
<path d="M79.6169 71.9121
L79.4960 71.9725
" />
<path d="M79.4960 71.9725
L79.1936 71.9725
" />
<path d="M79.1936 71.9725
L79.0726 71.9121
" />
<path d="M79.0726 71.9121
L79.0122 71.8516
" />
</g><path d="M77.4700 74.9300
L81.2800 74.9300
" />
<text x="79.3750" y="74.6760"
textLength="1.4127" font-size="1.6933" lengthAdjust="spacingAndGlyphs"
text-anchor="middle" opacity="0">6</text>
<g class="stroked-text"><desc>6</desc>
<path d="M79.6169 73.2425
L79.3750 73.2425
" />
<path d="M79.3750 73.2425
L79.2541 73.3030
" />
<path d="M79.2541 73.3030
L79.1936 73.3635
" />
<path d="M79.1936 73.3635
L79.0726 73.5449
" />
<path d="M79.0726 73.5449
L79.0122 73.7868
" />
<path d="M79.0122 73.7868
L79.0122 74.2706
" />
<path d="M79.0122 74.2706
L79.0726 74.3916
" />
<path d="M79.0726 74.3916
L79.1331 74.4521
" />
<path d="M79.1331 74.4521
L79.2541 74.5125
" />
<path d="M79.2541 74.5125
L79.4960 74.5125
" />
<path d="M79.4960 74.5125
L79.6169 74.4521
" />
<path d="M79.6169 74.4521
L79.6774 74.3916
" />
<path d="M79.6774 74.3916
L79.7379 74.2706
" />
<path d="M79.7379 74.2706
L79.7379 73.9682
" />
<path d="M79.7379 73.9682
L79.6774 73.8473
" />
<path d="M79.6774 73.8473
L79.6169 73.7868
" />
<path d="M79.6169 73.7868
L79.4960 73.7263
" />
<path d="M79.4960 73.7263
L79.2541 73.7263
" />
<path d="M79.2541 73.7263
L79.1331 73.7868
" />
<path d="M79.1331 73.7868
L79.0726 73.8473
" />
<path d="M79.0726 73.8473
L79.0122 73.9682
" />
</g><path d="M77.4700 77.4700
L81.2800 77.4700
" />
<text x="79.3750" y="77.2160"
textLength="1.4127" font-size="1.6933" lengthAdjust="spacingAndGlyphs"
text-anchor="middle" opacity="0">7</text>
<g class="stroked-text"><desc>7</desc>
<path d="M78.9517 75.7825
L79.7983 75.7825
" />
<path d="M79.7983 75.7825
L79.2541 77.0525
" />
</g><path d="M77.4700 80.0100
L81.2800 80.0100
" />
<text x="79.3750" y="79.7560"
textLength="1.4127" font-size="1.6933" lengthAdjust="spacingAndGlyphs"
text-anchor="middle" opacity="0">8</text>
<g class="stroked-text"><desc>8</desc>
<path d="M79.2541 78.8668
L79.1331 78.8063
" />
<path d="M79.1331 78.8063
L79.0726 78.7459
" />
<path d="M79.0726 78.7459
L79.0122 78.6249
" />
<path d="M79.0122 78.6249
L79.0122 78.5644
" />
<path d="M79.0122 78.5644
L79.0726 78.4435
" />
<path d="M79.0726 78.4435
L79.1331 78.3830
" />
<path d="M79.1331 78.3830
L79.2541 78.3225
" />
<path d="M79.2541 78.3225
L79.4960 78.3225
" />
<path d="M79.4960 78.3225
L79.6169 78.3830
" />
<path d="M79.6169 78.3830
L79.6774 78.4435
" />
<path d="M79.6774 78.4435
L79.7379 78.5644
" />
<path d="M79.7379 78.5644
L79.7379 78.6249
" />
<path d="M79.7379 78.6249
L79.6774 78.7459
" />
<path d="M79.6774 78.7459
L79.6169 78.8063
" />
<path d="M79.6169 78.8063
L79.4960 78.8668
" />
<path d="M79.4960 78.8668
L79.2541 78.8668
" />
<path d="M79.2541 78.8668
L79.1331 78.9273
" />
<path d="M79.1331 78.9273
L79.0726 78.9878
" />
<path d="M79.0726 78.9878
L79.0122 79.1087
" />
<path d="M79.0122 79.1087
L79.0122 79.3506
" />
<path d="M79.0122 79.3506
L79.0726 79.4716
" />
<path d="M79.0726 79.4716
L79.1331 79.5321
" />
<path d="M79.1331 79.5321
L79.2541 79.5925
" />
<path d="M79.2541 79.5925
L79.4960 79.5925
" />
<path d="M79.4960 79.5925
L79.6169 79.5321
" />
<path d="M79.6169 79.5321
L79.6774 79.4716
" />
<path d="M79.6774 79.4716
L79.7379 79.3506
" />
<path d="M79.7379 79.3506
L79.7379 79.1087
" />
<path d="M79.7379 79.1087
L79.6774 78.9878
" />
<path d="M79.6774 78.9878
L79.6169 78.9273
" />
<path d="M79.6169 78.9273
L79.4960 78.8668
" />
</g><text x="76.2000" y="86.0593"
textLength="6.0088" font-size="1.6933" lengthAdjust="spacingAndGlyphs"
text-anchor="middle" opacity="0">J1003</text>
<g class="stroked-text"><desc>J1003</desc>
<path d="M73.9624 84.7338
L73.9624 85.6410
" />
<path d="M73.9624 85.6410
L73.9019 85.8224
" />
<path d="M73.9019 85.8224
L73.7810 85.9434
" />
<path d="M73.7810 85.9434
L73.5995 86.0038
" />
<path d="M73.5995 86.0038
L73.4786 86.0038
" />
<path d="M75.2324 86.0038
L74.5067 86.0038
" />
<path d="M74.8695 86.0038
L74.8695 84.7338
" />
<path d="M74.8695 84.7338
L74.7486 84.9153
" />
<path d="M74.7486 84.9153
L74.6276 85.0362
" />
<path d="M74.6276 85.0362
L74.5067 85.0967
" />
<path d="M76.0185 84.7338
L76.1395 84.7338
" />
<path d="M76.1395 84.7338
L76.2604 84.7943
" />
<path d="M76.2604 84.7943
L76.3209 84.8548
" />
<path d="M76.3209 84.8548
L76.3814 84.9757
" />
<path d="M76.3814 84.9757
L76.4419 85.2176
" />
<path d="M76.4419 85.2176
L76.4419 85.5200
" />
<path d="M76.4419 85.5200
L76.3814 85.7619
" />
<path d="M76.3814 85.7619
L76.3209 85.8829
" />
<path d="M76.3209 85.8829
L76.2604 85.9434
" />
<path d="M76.2604 85.9434
L76.1395 86.0038
" />
<path d="M76.1395 86.0038
L76.0185 86.0038
" />
<path d="M76.0185 86.0038
L75.8976 85.9434
" />
<path d="M75.8976 85.9434
L75.8371 85.8829
" />
<path d="M75.8371 85.8829
L75.7766 85.7619
" />
<path d="M75.7766 85.7619
L75.7162 85.5200
" />
<path d="M75.7162 85.5200
L75.7162 85.2176
" />
<path d="M75.7162 85.2176
L75.7766 84.9757
" />
<path d="M75.7766 84.9757
L75.8371 84.8548
" />
<path d="M75.8371 84.8548
L75.8976 84.7943
" />
<path d="M75.8976 84.7943
L76.0185 84.7338
" />
<path d="M77.2280 84.7338
L77.3490 84.7338
" />
<path d="M77.3490 84.7338
L77.4699 84.7943
" />
<path d="M77.4699 84.7943
L77.5304 84.8548
" />
<path d="M77.5304 84.8548
L77.5909 84.9757
" />
<path d="M77.5909 84.9757
L77.6514 85.2176
" />
<path d="M77.6514 85.2176
L77.6514 85.5200
" />
<path d="M77.6514 85.5200
L77.5909 85.7619
" />
<path d="M77.5909 85.7619
L77.5304 85.8829
" />
<path d="M77.5304 85.8829
L77.4699 85.9434
" />
<path d="M77.4699 85.9434
L77.3490 86.0038
" />
<path d="M77.3490 86.0038
L77.2280 86.0038
" />
<path d="M77.2280 86.0038
L77.1071 85.9434
" />
<path d="M77.1071 85.9434
L77.0466 85.8829
" />
<path d="M77.0466 85.8829
L76.9861 85.7619
" />
<path d="M76.9861 85.7619
L76.9257 85.5200
" />
<path d="M76.9257 85.5200
L76.9257 85.2176
" />
<path d="M76.9257 85.2176
L76.9861 84.9757
" />
<path d="M76.9861 84.9757
L77.0466 84.8548
" />
<path d="M77.0466 84.8548
L77.1071 84.7943
" />
<path d="M77.1071 84.7943
L77.2280 84.7338
" />
<path d="M78.0747 84.7338
L78.8609 84.7338
" />
<path d="M78.8609 84.7338
L78.4375 85.2176
" />
<path d="M78.4375 85.2176
L78.6190 85.2176
" />
<path d="M78.6190 85.2176
L78.7399 85.2781
" />
<path d="M78.7399 85.2781
L78.8004 85.3386
" />
<path d="M78.8004 85.3386
L78.8609 85.4595
" />
<path d="M78.8609 85.4595
L78.8609 85.7619
" />
<path d="M78.8609 85.7619
L78.8004 85.8829
" />
<path d="M78.8004 85.8829
L78.7399 85.9434
" />
<path d="M78.7399 85.9434
L78.6190 86.0038
" />
<path d="M78.6190 86.0038
L78.2561 86.0038
" />
<path d="M78.2561 86.0038
L78.1352 85.9434
" />
<path d="M78.1352 85.9434
L78.0747 85.8829
" />
</g><text x="76.1999" y="83.6351"
textLength="11.7539" font-size="1.6933" lengthAdjust="spacingAndGlyphs"
text-anchor="middle" opacity="0">Conn_01x08</text>
<g class="stroked-text"><desc>Conn_01x08</desc>
<path d="M71.4526 83.4587
L71.3922 83.5192
" />
<path d="M71.3922 83.5192
L71.2107 83.5796
" />
<path d="M71.2107 83.5796
L71.0898 83.5796
" />
<path d="M71.0898 83.5796
L70.9084 83.5192
" />
<path d="M70.9084 83.5192
L70.7874 83.3982
" />
<path d="M70.7874 83.3982
L70.7269 83.2772
" />
<path d="M70.7269 83.2772
L70.6665 83.0353
" />
<path d="M70.6665 83.0353
L70.6665 82.8539
" />
<path d="M70.6665 82.8539
L70.7269 82.6120
" />
<path d="M70.7269 82.6120
L70.7874 82.4911
" />
<path d="M70.7874 82.4911
L70.9084 82.3701
" />
<path d="M70.9084 82.3701
L71.0898 82.3096
" />
<path d="M71.0898 82.3096
L71.2107 82.3096
" />
<path d="M71.2107 82.3096
L71.3922 82.3701
" />
<path d="M71.3922 82.3701
L71.4526 82.4306
" />
<path d="M72.1784 83.5796
L72.0574 83.5192
" />
<path d="M72.0574 83.5192
L71.9969 83.4587
" />
<path d="M71.9969 83.4587
L71.9365 83.3377
" />
<path d="M71.9365 83.3377
L71.9365 82.9749
" />
<path d="M71.9365 82.9749
L71.9969 82.8539
" />
<path d="M71.9969 82.8539
L72.0574 82.7934
" />
<path d="M72.0574 82.7934
L72.1784 82.7330
" />
<path d="M72.1784 82.7330
L72.3598 82.7330
" />
<path d="M72.3598 82.7330
L72.4807 82.7934
" />
<path d="M72.4807 82.7934
L72.5412 82.8539
" />
<path d="M72.5412 82.8539
L72.6017 82.9749
" />
<path d="M72.6017 82.9749
L72.6017 83.3377
" />
<path d="M72.6017 83.3377
L72.5412 83.4587
" />
<path d="M72.5412 83.4587
L72.4807 83.5192
" />
<path d="M72.4807 83.5192
L72.3598 83.5796
" />
<path d="M72.3598 83.5796
L72.1784 83.5796
" />
<path d="M73.1459 82.7330
L73.1459 83.5796
" />
<path d="M73.1459 82.8539
L73.2064 82.7934
" />
<path d="M73.2064 82.7934
L73.3274 82.7330
" />
<path d="M73.3274 82.7330
L73.5088 82.7330
" />
<path d="M73.5088 82.7330
L73.6297 82.7934
" />
<path d="M73.6297 82.7934
L73.6902 82.9144
" />
<path d="M73.6902 82.9144
L73.6902 83.5796
" />
<path d="M74.2949 82.7330
L74.2949 83.5796
" />
<path d="M74.2949 82.8539
L74.3554 82.7934
" />
<path d="M74.3554 82.7934
L74.4764 82.7330
" />
<path d="M74.4764 82.7330
L74.6578 82.7330
" />
<path d="M74.6578 82.7330
L74.7787 82.7934
" />
<path d="M74.7787 82.7934
L74.8392 82.9144
" />
<path d="M74.8392 82.9144
L74.8392 83.5796
" />
<path d="M75.1416 83.7006
L76.1092 83.7006
" />
<path d="M76.6534 82.3096
L76.7744 82.3096
" />
<path d="M76.7744 82.3096
L76.8953 82.3701
" />
<path d="M76.8953 82.3701
L76.9558 82.4306
" />
<path d="M76.9558 82.4306
L77.0163 82.5515
" />
<path d="M77.0163 82.5515
L77.0768 82.7934
" />
<path d="M77.0768 82.7934
L77.0768 83.0958
" />
<path d="M77.0768 83.0958
L77.0163 83.3377
" />
<path d="M77.0163 83.3377
L76.9558 83.4587
" />
<path d="M76.9558 83.4587
L76.8953 83.5192
" />
<path d="M76.8953 83.5192
L76.7744 83.5796
" />
<path d="M76.7744 83.5796
L76.6534 83.5796
" />
<path d="M76.6534 83.5796
L76.5325 83.5192
" />
<path d="M76.5325 83.5192
L76.4720 83.4587
" />
<path d="M76.4720 83.4587
L76.4115 83.3377
" />
<path d="M76.4115 83.3377
L76.3511 83.0958
" />
<path d="M76.3511 83.0958
L76.3511 82.7934
" />
<path d="M76.3511 82.7934
L76.4115 82.5515
" />
<path d="M76.4115 82.5515
L76.4720 82.4306
" />
<path d="M76.4720 82.4306
L76.5325 82.3701
" />
<path d="M76.5325 82.3701
L76.6534 82.3096
" />
<path d="M78.2863 83.5796
L77.5606 83.5796
" />
<path d="M77.9234 83.5796
L77.9234 82.3096
" />
<path d="M77.9234 82.3096
L77.8025 82.4911
" />
<path d="M77.8025 82.4911
L77.6815 82.6120
" />
<path d="M77.6815 82.6120
L77.5606 82.6725
" />
<path d="M78.7096 83.5796
L79.3748 82.7330
" />
<path d="M78.7096 82.7330
L79.3748 83.5796
" />
<path d="M80.1005 82.3096
L80.2215 82.3096
" />
<path d="M80.2215 82.3096
L80.3424 82.3701
" />
<path d="M80.3424 82.3701
L80.4029 82.4306
" />
<path d="M80.4029 82.4306
L80.4634 82.5515
" />
<path d="M80.4634 82.5515
L80.5239 82.7934
" />
<path d="M80.5239 82.7934
L80.5239 83.0958
" />
<path d="M80.5239 83.0958
L80.4634 83.3377
" />
<path d="M80.4634 83.3377
L80.4029 83.4587
" />
<path d="M80.4029 83.4587
L80.3424 83.5192
" />
<path d="M80.3424 83.5192
L80.2215 83.5796
" />
<path d="M80.2215 83.5796
L80.1005 83.5796
" />
<path d="M80.1005 83.5796
L79.9796 83.5192
" />
<path d="M79.9796 83.5192
L79.9191 83.4587
" />
<path d="M79.9191 83.4587
L79.8586 83.3377
" />
<path d="M79.8586 83.3377
L79.7982 83.0958
" />
<path d="M79.7982 83.0958
L79.7982 82.7934
" />
<path d="M79.7982 82.7934
L79.8586 82.5515
" />
<path d="M79.8586 82.5515
L79.9191 82.4306
" />
<path d="M79.9191 82.4306
L79.9796 82.3701
" />
<path d="M79.9796 82.3701
L80.1005 82.3096
" />
<path d="M81.2496 82.8539
L81.1286 82.7934
" />
<path d="M81.1286 82.7934
L81.0681 82.7330
" />
<path d="M81.0681 82.7330
L81.0077 82.6120
" />
<path d="M81.0077 82.6120
L81.0077 82.5515
" />
<path d="M81.0077 82.5515
L81.0681 82.4306
" />
<path d="M81.0681 82.4306
L81.1286 82.3701
" />
<path d="M81.1286 82.3701
L81.2496 82.3096
" />
<path d="M81.2496 82.3096
L81.4915 82.3096
" />
<path d="M81.4915 82.3096
L81.6124 82.3701
" />
<path d="M81.6124 82.3701
L81.6729 82.4306
" />
<path d="M81.6729 82.4306
L81.7334 82.5515
" />
<path d="M81.7334 82.5515
L81.7334 82.6120
" />
<path d="M81.7334 82.6120
L81.6729 82.7330
" />
<path d="M81.6729 82.7330
L81.6124 82.7934
" />
<path d="M81.6124 82.7934
L81.4915 82.8539
" />
<path d="M81.4915 82.8539
L81.2496 82.8539
" />
<path d="M81.2496 82.8539
L81.1286 82.9144
" />
<path d="M81.1286 82.9144
L81.0681 82.9749
" />
<path d="M81.0681 82.9749
L81.0077 83.0958
" />
<path d="M81.0077 83.0958
L81.0077 83.3377
" />
<path d="M81.0077 83.3377
L81.0681 83.4587
" />
<path d="M81.0681 83.4587
L81.1286 83.5192
" />
<path d="M81.1286 83.5192
L81.2496 83.5796
" />
<path d="M81.2496 83.5796
L81.4915 83.5796
" />
<path d="M81.4915 83.5796
L81.6124 83.5192
" />
<path d="M81.6124 83.5192
L81.6729 83.4587
" />
<path d="M81.6729 83.4587
L81.7334 83.3377
" />
<path d="M81.7334 83.3377
L81.7334 83.0958
" />
<path d="M81.7334 83.0958
L81.6729 82.9749
" />
<path d="M81.6729 82.9749
L81.6124 82.9144
" />
<path d="M81.6124 82.9144
L81.4915 82.8539
" />
</g></g>
</g>
<g style="fill:#000000; fill-opacity:0.0; 
stroke:#000000; stroke-width:0.1524; stroke-opacity:1; 
stroke-linecap:round; stroke-linejoin:round;">
<g >
<rect x="91.440000" y="79.883000" width="1.270000" height="0.254000" rx="0.000000" />
<rect x="91.440000" y="77.343000" width="1.270000" height="0.254000" rx="0.000000" />
<rect x="91.440000" y="74.803000" width="1.270000" height="0.254000" rx="0.000000" />
<rect x="91.440000" y="72.263000" width="1.270000" height="0.254000" rx="0.000000" />
<rect x="91.440000" y="69.723000" width="1.270000" height="0.254000" rx="0.000000" />
<rect x="91.440000" y="67.183000" width="1.270000" height="0.254000" rx="0.000000" />
<rect x="91.440000" y="64.643000" width="1.270000" height="0.254000" rx="0.000000" />
<rect x="91.440000" y="62.103000" width="1.270000" height="0.254000" rx="0.000000" />
</g>
<g style="fill:#000000; fill-opacity:0.0; 
stroke:#000000; stroke-width:0.2540; stroke-opacity:1; 
stroke-linecap:round; stroke-linejoin:round;">
<rect x="91.440000" y="60.960000" width="5.080000" height="20.320000" rx="0.000000" />
</g>
<g style="fill:#000000; fill-opacity:0.0; 
stroke:#000000; stroke-width:0.1524; stroke-opacity:1; 
stroke-linecap:round; stroke-linejoin:round;">
<rect x="95.250000" y="79.883000" width="1.270000" height="0.254000" rx="0.000000" />
<rect x="95.250000" y="77.343000" width="1.270000" height="0.254000" rx="0.000000" />
<rect x="95.250000" y="74.803000" width="1.270000" height="0.254000" rx="0.000000" />
<rect x="95.250000" y="72.263000" width="1.270000" height="0.254000" rx="0.000000" />
<rect x="95.250000" y="69.723000" width="1.270000" height="0.254000" rx="0.000000" />
<rect x="95.250000" y="67.183000" width="1.270000" height="0.254000" rx="0.000000" />
<rect x="95.250000" y="64.643000" width="1.270000" height="0.254000" rx="0.000000" />
<rect x="95.250000" y="62.103000" width="1.270000" height="0.254000" rx="0.000000" />
<path d="M91.4400 62.2300
L87.6300 62.2300
" />
<text x="89.5350" y="61.9760"
textLength="1.4127" font-size="1.6933" lengthAdjust="spacingAndGlyphs"
text-anchor="middle" opacity="0">1</text>
<g class="stroked-text"><desc>1</desc>
<path d="M89.8979 61.8125
L89.1722 61.8125
" />
<path d="M89.5350 61.8125
L89.5350 60.5425
" />
<path d="M89.5350 60.5425
L89.4141 60.7240
" />
<path d="M89.4141 60.7240
L89.2931 60.8449
" />
<path d="M89.2931 60.8449
L89.1722 60.9054
" />
</g><path d="M96.5200 72.3900
L100.3300 72.3900
" />
<text x="98.4250" y="72.1360"
textLength="2.6222" font-size="1.6933" lengthAdjust="spacingAndGlyphs"
text-anchor="middle" opacity="0">10</text>
<g class="stroked-text"><desc>10</desc>
<path d="M98.1831 71.9725
L97.4574 71.9725
" />
<path d="M97.8202 71.9725
L97.8202 70.7025
" />
<path d="M97.8202 70.7025
L97.6993 70.8840
" />
<path d="M97.6993 70.8840
L97.5783 71.0049
" />
<path d="M97.5783 71.0049
L97.4574 71.0654
" />
<path d="M98.9692 70.7025
L99.0902 70.7025
" />
<path d="M99.0902 70.7025
L99.2111 70.7630
" />
<path d="M99.2111 70.7630
L99.2716 70.8235
" />
<path d="M99.2716 70.8235
L99.3321 70.9444
" />
<path d="M99.3321 70.9444
L99.3926 71.1863
" />
<path d="M99.3926 71.1863
L99.3926 71.4887
" />
<path d="M99.3926 71.4887
L99.3321 71.7306
" />
<path d="M99.3321 71.7306
L99.2716 71.8516
" />
<path d="M99.2716 71.8516
L99.2111 71.9121
" />
<path d="M99.2111 71.9121
L99.0902 71.9725
" />
<path d="M99.0902 71.9725
L98.9692 71.9725
" />
<path d="M98.9692 71.9725
L98.8483 71.9121
" />
<path d="M98.8483 71.9121
L98.7878 71.8516
" />
<path d="M98.7878 71.8516
L98.7273 71.7306
" />
<path d="M98.7273 71.7306
L98.6669 71.4887
" />
<path d="M98.6669 71.4887
L98.6669 71.1863
" />
<path d="M98.6669 71.1863
L98.7273 70.9444
" />
<path d="M98.7273 70.9444
L98.7878 70.8235
" />
<path d="M98.7878 70.8235
L98.8483 70.7630
" />
<path d="M98.8483 70.7630
L98.9692 70.7025
" />
</g><path d="M91.4400 74.9300
L87.6300 74.9300
" />
<text x="89.5350" y="74.6760"
textLength="2.6222" font-size="1.6933" lengthAdjust="spacingAndGlyphs"
text-anchor="middle" opacity="0">11</text>
<g class="stroked-text"><desc>11</desc>
<path d="M89.2931 74.5125
L88.5674 74.5125
" />
<path d="M88.9302 74.5125
L88.9302 73.2425
" />
<path d="M88.9302 73.2425
L88.8093 73.4240
" />
<path d="M88.8093 73.4240
L88.6883 73.5449
" />
<path d="M88.6883 73.5449
L88.5674 73.6054
" />
<path d="M90.5026 74.5125
L89.7769 74.5125
" />
<path d="M90.1397 74.5125
L90.1397 73.2425
" />
<path d="M90.1397 73.2425
L90.0188 73.4240
" />
<path d="M90.0188 73.4240
L89.8978 73.5449
" />
<path d="M89.8978 73.5449
L89.7769 73.6054
" />
</g><path d="M96.5200 74.9300
L100.3300 74.9300
" />
<text x="98.4250" y="74.6760"
textLength="2.6222" font-size="1.6933" lengthAdjust="spacingAndGlyphs"
text-anchor="middle" opacity="0">12</text>
<g class="stroked-text"><desc>12</desc>
<path d="M98.1831 74.5125
L97.4574 74.5125
" />
<path d="M97.8202 74.5125
L97.8202 73.2425
" />
<path d="M97.8202 73.2425
L97.6993 73.4240
" />
<path d="M97.6993 73.4240
L97.5783 73.5449
" />
<path d="M97.5783 73.5449
L97.4574 73.6054
" />
<path d="M98.6669 73.3635
L98.7273 73.3030
" />
<path d="M98.7273 73.3030
L98.8483 73.2425
" />
<path d="M98.8483 73.2425
L99.1507 73.2425
" />
<path d="M99.1507 73.2425
L99.2716 73.3030
" />
<path d="M99.2716 73.3030
L99.3321 73.3635
" />
<path d="M99.3321 73.3635
L99.3926 73.4844
" />
<path d="M99.3926 73.4844
L99.3926 73.6054
" />
<path d="M99.3926 73.6054
L99.3321 73.7868
" />
<path d="M99.3321 73.7868
L98.6064 74.5125
" />
<path d="M98.6064 74.5125
L99.3926 74.5125
" />
</g><path d="M91.4400 77.4700
L87.6300 77.4700
" />
<text x="89.5350" y="77.2160"
textLength="2.6222" font-size="1.6933" lengthAdjust="spacingAndGlyphs"
text-anchor="middle" opacity="0">13</text>
<g class="stroked-text"><desc>13</desc>
<path d="M89.2931 77.0525
L88.5674 77.0525
" />
<path d="M88.9302 77.0525
L88.9302 75.7825
" />
<path d="M88.9302 75.7825
L88.8093 75.9640
" />
<path d="M88.8093 75.9640
L88.6883 76.0849
" />
<path d="M88.6883 76.0849
L88.5674 76.1454
" />
<path d="M89.7164 75.7825
L90.5026 75.7825
" />
<path d="M90.5026 75.7825
L90.0792 76.2663
" />
<path d="M90.0792 76.2663
L90.2607 76.2663
" />
<path d="M90.2607 76.2663
L90.3816 76.3268
" />
<path d="M90.3816 76.3268
L90.4421 76.3873
" />
<path d="M90.4421 76.3873
L90.5026 76.5082
" />
<path d="M90.5026 76.5082
L90.5026 76.8106
" />
<path d="M90.5026 76.8106
L90.4421 76.9316
" />
<path d="M90.4421 76.9316
L90.3816 76.9921
" />
<path d="M90.3816 76.9921
L90.2607 77.0525
" />
<path d="M90.2607 77.0525
L89.8978 77.0525
" />
<path d="M89.8978 77.0525
L89.7769 76.9921
" />
<path d="M89.7769 76.9921
L89.7164 76.9316
" />
</g><path d="M96.5200 77.4700
L100.3300 77.4700
" />
<text x="98.4250" y="77.2160"
textLength="2.6222" font-size="1.6933" lengthAdjust="spacingAndGlyphs"
text-anchor="middle" opacity="0">14</text>
<g class="stroked-text"><desc>14</desc>
<path d="M98.1831 77.0525
L97.4574 77.0525
" />
<path d="M97.8202 77.0525
L97.8202 75.7825
" />
<path d="M97.8202 75.7825
L97.6993 75.9640
" />
<path d="M97.6993 75.9640
L97.5783 76.0849
" />
<path d="M97.5783 76.0849
L97.4574 76.1454
" />
<path d="M99.2716 76.2059
L99.2716 77.0525
" />
<path d="M98.9692 75.7221
L98.6669 76.6292
" />
<path d="M98.6669 76.6292
L99.4530 76.6292
" />
</g><path d="M91.4400 80.0100
L87.6300 80.0100
" />
<text x="89.5350" y="79.7560"
textLength="2.6222" font-size="1.6933" lengthAdjust="spacingAndGlyphs"
text-anchor="middle" opacity="0">15</text>
<g class="stroked-text"><desc>15</desc>
<path d="M89.2931 79.5925
L88.5674 79.5925
" />
<path d="M88.9302 79.5925
L88.9302 78.3225
" />
<path d="M88.9302 78.3225
L88.8093 78.5040
" />
<path d="M88.8093 78.5040
L88.6883 78.6249
" />
<path d="M88.6883 78.6249
L88.5674 78.6854
" />
<path d="M90.4421 78.3225
L89.8373 78.3225
" />
<path d="M89.8373 78.3225
L89.7769 78.9273
" />
<path d="M89.7769 78.9273
L89.8373 78.8668
" />
<path d="M89.8373 78.8668
L89.9583 78.8063
" />
<path d="M89.9583 78.8063
L90.2607 78.8063
" />
<path d="M90.2607 78.8063
L90.3816 78.8668
" />
<path d="M90.3816 78.8668
L90.4421 78.9273
" />
<path d="M90.4421 78.9273
L90.5026 79.0482
" />
<path d="M90.5026 79.0482
L90.5026 79.3506
" />
<path d="M90.5026 79.3506
L90.4421 79.4716
" />
<path d="M90.4421 79.4716
L90.3816 79.5321
" />
<path d="M90.3816 79.5321
L90.2607 79.5925
" />
<path d="M90.2607 79.5925
L89.9583 79.5925
" />
<path d="M89.9583 79.5925
L89.8373 79.5321
" />
<path d="M89.8373 79.5321
L89.7769 79.4716
" />
</g><path d="M96.5200 80.0100
L100.3300 80.0100
" />
<text x="98.4250" y="79.7560"
textLength="2.6222" font-size="1.6933" lengthAdjust="spacingAndGlyphs"
text-anchor="middle" opacity="0">16</text>
<g class="stroked-text"><desc>16</desc>
<path d="M98.1831 79.5925
L97.4574 79.5925
" />
<path d="M97.8202 79.5925
L97.8202 78.3225
" />
<path d="M97.8202 78.3225
L97.6993 78.5040
" />
<path d="M97.6993 78.5040
L97.5783 78.6249
" />
<path d="M97.5783 78.6249
L97.4574 78.6854
" />
<path d="M99.2716 78.3225
L99.0297 78.3225
" />
<path d="M99.0297 78.3225
L98.9088 78.3830
" />
<path d="M98.9088 78.3830
L98.8483 78.4435
" />
<path d="M98.8483 78.4435
L98.7273 78.6249
" />
<path d="M98.7273 78.6249
L98.6669 78.8668
" />
<path d="M98.6669 78.8668
L98.6669 79.3506
" />
<path d="M98.6669 79.3506
L98.7273 79.4716
" />
<path d="M98.7273 79.4716
L98.7878 79.5321
" />
<path d="M98.7878 79.5321
L98.9088 79.5925
" />
<path d="M98.9088 79.5925
L99.1507 79.5925
" />
<path d="M99.1507 79.5925
L99.2716 79.5321
" />
<path d="M99.2716 79.5321
L99.3321 79.4716
" />
<path d="M99.3321 79.4716
L99.3926 79.3506
" />
<path d="M99.3926 79.3506
L99.3926 79.0482
" />
<path d="M99.3926 79.0482
L99.3321 78.9273
" />
<path d="M99.3321 78.9273
L99.2716 78.8668
" />
<path d="M99.2716 78.8668
L99.1507 78.8063
" />
<path d="M99.1507 78.8063
L98.9088 78.8063
" />
<path d="M98.9088 78.8063
L98.7878 78.8668
" />
<path d="M98.7878 78.8668
L98.7273 78.9273
" />
<path d="M98.7273 78.9273
L98.6669 79.0482
" />
</g><path d="M96.5200 62.2300
L100.3300 62.2300
" />
<text x="98.4250" y="61.9760"
textLength="1.4127" font-size="1.6933" lengthAdjust="spacingAndGlyphs"
text-anchor="middle" opacity="0">2</text>
<g class="stroked-text"><desc>2</desc>
<path d="M98.0622 60.6635
L98.1226 60.6030
" />
<path d="M98.1226 60.6030
L98.2436 60.5425
" />
<path d="M98.2436 60.5425
L98.5460 60.5425
" />
<path d="M98.5460 60.5425
L98.6669 60.6030
" />
<path d="M98.6669 60.6030
L98.7274 60.6635
" />
<path d="M98.7274 60.6635
L98.7879 60.7844
" />
<path d="M98.7879 60.7844
L98.7879 60.9054
" />
<path d="M98.7879 60.9054
L98.7274 61.0868
" />
<path d="M98.7274 61.0868
L98.0017 61.8125
" />
<path d="M98.0017 61.8125
L98.7879 61.8125
" />
</g><path d="M91.4400 64.7700
L87.6300 64.7700
" />
<text x="89.5350" y="64.5160"
textLength="1.4127" font-size="1.6933" lengthAdjust="spacingAndGlyphs"
text-anchor="middle" opacity="0">3</text>
<g class="stroked-text"><desc>3</desc>
<path d="M89.1117 63.0825
L89.8979 63.0825
" />
<path d="M89.8979 63.0825
L89.4745 63.5663
" />
<path d="M89.4745 63.5663
L89.6560 63.5663
" />
<path d="M89.6560 63.5663
L89.7769 63.6268
" />
<path d="M89.7769 63.6268
L89.8374 63.6873
" />
<path d="M89.8374 63.6873
L89.8979 63.8082
" />
<path d="M89.8979 63.8082
L89.8979 64.1106
" />
<path d="M89.8979 64.1106
L89.8374 64.2316
" />
<path d="M89.8374 64.2316
L89.7769 64.2921
" />
<path d="M89.7769 64.2921
L89.6560 64.3525
" />
<path d="M89.6560 64.3525
L89.2931 64.3525
" />
<path d="M89.2931 64.3525
L89.1722 64.2921
" />
<path d="M89.1722 64.2921
L89.1117 64.2316
" />
</g><path d="M96.5200 64.7700
L100.3300 64.7700
" />
<text x="98.4250" y="64.5160"
textLength="1.4127" font-size="1.6933" lengthAdjust="spacingAndGlyphs"
text-anchor="middle" opacity="0">4</text>
<g class="stroked-text"><desc>4</desc>
<path d="M98.6669 63.5059
L98.6669 64.3525
" />
<path d="M98.3645 63.0221
L98.0622 63.9292
" />
<path d="M98.0622 63.9292
L98.8483 63.9292
" />
</g><path d="M91.4400 67.3100
L87.6300 67.3100
" />
<text x="89.5350" y="67.0560"
textLength="1.4127" font-size="1.6933" lengthAdjust="spacingAndGlyphs"
text-anchor="middle" opacity="0">5</text>
<g class="stroked-text"><desc>5</desc>
<path d="M89.8374 65.6225
L89.2326 65.6225
" />
<path d="M89.2326 65.6225
L89.1722 66.2273
" />
<path d="M89.1722 66.2273
L89.2326 66.1668
" />
<path d="M89.2326 66.1668
L89.3536 66.1063
" />
<path d="M89.3536 66.1063
L89.6560 66.1063
" />
<path d="M89.6560 66.1063
L89.7769 66.1668
" />
<path d="M89.7769 66.1668
L89.8374 66.2273
" />
<path d="M89.8374 66.2273
L89.8979 66.3482
" />
<path d="M89.8979 66.3482
L89.8979 66.6506
" />
<path d="M89.8979 66.6506
L89.8374 66.7716
" />
<path d="M89.8374 66.7716
L89.7769 66.8321
" />
<path d="M89.7769 66.8321
L89.6560 66.8925
" />
<path d="M89.6560 66.8925
L89.3536 66.8925
" />
<path d="M89.3536 66.8925
L89.2326 66.8321
" />
<path d="M89.2326 66.8321
L89.1722 66.7716
" />
</g><path d="M96.5200 67.3100
L100.3300 67.3100
" />
<text x="98.4250" y="67.0560"
textLength="1.4127" font-size="1.6933" lengthAdjust="spacingAndGlyphs"
text-anchor="middle" opacity="0">6</text>
<g class="stroked-text"><desc>6</desc>
<path d="M98.6669 65.6225
L98.4250 65.6225
" />
<path d="M98.4250 65.6225
L98.3041 65.6830
" />
<path d="M98.3041 65.6830
L98.2436 65.7435
" />
<path d="M98.2436 65.7435
L98.1226 65.9249
" />
<path d="M98.1226 65.9249
L98.0622 66.1668
" />
<path d="M98.0622 66.1668
L98.0622 66.6506
" />
<path d="M98.0622 66.6506
L98.1226 66.7716
" />
<path d="M98.1226 66.7716
L98.1831 66.8321
" />
<path d="M98.1831 66.8321
L98.3041 66.8925
" />
<path d="M98.3041 66.8925
L98.5460 66.8925
" />
<path d="M98.5460 66.8925
L98.6669 66.8321
" />
<path d="M98.6669 66.8321
L98.7274 66.7716
" />
<path d="M98.7274 66.7716
L98.7879 66.6506
" />
<path d="M98.7879 66.6506
L98.7879 66.3482
" />
<path d="M98.7879 66.3482
L98.7274 66.2273
" />
<path d="M98.7274 66.2273
L98.6669 66.1668
" />
<path d="M98.6669 66.1668
L98.5460 66.1063
" />
<path d="M98.5460 66.1063
L98.3041 66.1063
" />
<path d="M98.3041 66.1063
L98.1831 66.1668
" />
<path d="M98.1831 66.1668
L98.1226 66.2273
" />
<path d="M98.1226 66.2273
L98.0622 66.3482
" />
</g><path d="M91.4400 69.8500
L87.6300 69.8500
" />
<text x="89.5350" y="69.5960"
textLength="1.4127" font-size="1.6933" lengthAdjust="spacingAndGlyphs"
text-anchor="middle" opacity="0">7</text>
<g class="stroked-text"><desc>7</desc>
<path d="M89.1117 68.1625
L89.9583 68.1625
" />
<path d="M89.9583 68.1625
L89.4141 69.4325
" />
</g><path d="M96.5200 69.8500
L100.3300 69.8500
" />
<text x="98.4250" y="69.5960"
textLength="1.4127" font-size="1.6933" lengthAdjust="spacingAndGlyphs"
text-anchor="middle" opacity="0">8</text>
<g class="stroked-text"><desc>8</desc>
<path d="M98.3041 68.7068
L98.1831 68.6463
" />
<path d="M98.1831 68.6463
L98.1226 68.5859
" />
<path d="M98.1226 68.5859
L98.0622 68.4649
" />
<path d="M98.0622 68.4649
L98.0622 68.4044
" />
<path d="M98.0622 68.4044
L98.1226 68.2835
" />
<path d="M98.1226 68.2835
L98.1831 68.2230
" />
<path d="M98.1831 68.2230
L98.3041 68.1625
" />
<path d="M98.3041 68.1625
L98.5460 68.1625
" />
<path d="M98.5460 68.1625
L98.6669 68.2230
" />
<path d="M98.6669 68.2230
L98.7274 68.2835
" />
<path d="M98.7274 68.2835
L98.7879 68.4044
" />
<path d="M98.7879 68.4044
L98.7879 68.4649
" />
<path d="M98.7879 68.4649
L98.7274 68.5859
" />
<path d="M98.7274 68.5859
L98.6669 68.6463
" />
<path d="M98.6669 68.6463
L98.5460 68.7068
" />
<path d="M98.5460 68.7068
L98.3041 68.7068
" />
<path d="M98.3041 68.7068
L98.1831 68.7673
" />
<path d="M98.1831 68.7673
L98.1226 68.8278
" />
<path d="M98.1226 68.8278
L98.0622 68.9487
" />
<path d="M98.0622 68.9487
L98.0622 69.1906
" />
<path d="M98.0622 69.1906
L98.1226 69.3116
" />
<path d="M98.1226 69.3116
L98.1831 69.3721
" />
<path d="M98.1831 69.3721
L98.3041 69.4325
" />
<path d="M98.3041 69.4325
L98.5460 69.4325
" />
<path d="M98.5460 69.4325
L98.6669 69.3721
" />
<path d="M98.6669 69.3721
L98.7274 69.3116
" />
<path d="M98.7274 69.3116
L98.7879 69.1906
" />
<path d="M98.7879 69.1906
L98.7879 68.9487
" />
<path d="M98.7879 68.9487
L98.7274 68.8278
" />
<path d="M98.7274 68.8278
L98.6669 68.7673
" />
<path d="M98.6669 68.7673
L98.5460 68.7068
" />
</g><path d="M91.4400 72.3900
L87.6300 72.3900
" />
<text x="89.5350" y="72.1360"
textLength="1.4127" font-size="1.6933" lengthAdjust="spacingAndGlyphs"
text-anchor="middle" opacity="0">9</text>
<g class="stroked-text"><desc>9</desc>
<path d="M89.2931 71.9725
L89.5350 71.9725
" />
<path d="M89.5350 71.9725
L89.6560 71.9121
" />
<path d="M89.6560 71.9121
L89.7164 71.8516
" />
<path d="M89.7164 71.8516
L89.8374 71.6701
" />
<path d="M89.8374 71.6701
L89.8979 71.4282
" />
<path d="M89.8979 71.4282
L89.8979 70.9444
" />
<path d="M89.8979 70.9444
L89.8374 70.8235
" />
<path d="M89.8374 70.8235
L89.7769 70.7630
" />
<path d="M89.7769 70.7630
L89.6560 70.7025
" />
<path d="M89.6560 70.7025
L89.4141 70.7025
" />
<path d="M89.4141 70.7025
L89.2931 70.7630
" />
<path d="M89.2931 70.7630
L89.2326 70.8235
" />
<path d="M89.2326 70.8235
L89.1722 70.9444
" />
<path d="M89.1722 70.9444
L89.1722 71.2468
" />
<path d="M89.1722 71.2468
L89.2326 71.3678
" />
<path d="M89.2326 71.3678
L89.2931 71.4282
" />
<path d="M89.2931 71.4282
L89.4141 71.4887
" />
<path d="M89.4141 71.4887
L89.6560 71.4887
" />
<path d="M89.6560 71.4887
L89.7769 71.4282
" />
<path d="M89.7769 71.4282
L89.8374 71.3678
" />
<path d="M89.8374 71.3678
L89.8979 71.2468
" />
</g><text x="93.9800" y="57.4507"
textLength="6.0088" font-size="1.6933" lengthAdjust="spacingAndGlyphs"
text-anchor="middle" opacity="0">J1001</text>
<g class="stroked-text"><desc>J1001</desc>
<path d="M91.7424 56.1252
L91.7424 57.0324
" />
<path d="M91.7424 57.0324
L91.6819 57.2138
" />
<path d="M91.6819 57.2138
L91.5610 57.3348
" />
<path d="M91.5610 57.3348
L91.3795 57.3952
" />
<path d="M91.3795 57.3952
L91.2586 57.3952
" />
<path d="M93.0124 57.3952
L92.2867 57.3952
" />
<path d="M92.6495 57.3952
L92.6495 56.1252
" />
<path d="M92.6495 56.1252
L92.5286 56.3067
" />
<path d="M92.5286 56.3067
L92.4076 56.4276
" />
<path d="M92.4076 56.4276
L92.2867 56.4881
" />
<path d="M93.7985 56.1252
L93.9195 56.1252
" />
<path d="M93.9195 56.1252
L94.0404 56.1857
" />
<path d="M94.0404 56.1857
L94.1009 56.2462
" />
<path d="M94.1009 56.2462
L94.1614 56.3671
" />
<path d="M94.1614 56.3671
L94.2219 56.6090
" />
<path d="M94.2219 56.6090
L94.2219 56.9114
" />
<path d="M94.2219 56.9114
L94.1614 57.1533
" />
<path d="M94.1614 57.1533
L94.1009 57.2743
" />
<path d="M94.1009 57.2743
L94.0404 57.3348
" />
<path d="M94.0404 57.3348
L93.9195 57.3952
" />
<path d="M93.9195 57.3952
L93.7985 57.3952
" />
<path d="M93.7985 57.3952
L93.6776 57.3348
" />
<path d="M93.6776 57.3348
L93.6171 57.2743
" />
<path d="M93.6171 57.2743
L93.5566 57.1533
" />
<path d="M93.5566 57.1533
L93.4962 56.9114
" />
<path d="M93.4962 56.9114
L93.4962 56.6090
" />
<path d="M93.4962 56.6090
L93.5566 56.3671
" />
<path d="M93.5566 56.3671
L93.6171 56.2462
" />
<path d="M93.6171 56.2462
L93.6776 56.1857
" />
<path d="M93.6776 56.1857
L93.7985 56.1252
" />
<path d="M95.0080 56.1252
L95.1290 56.1252
" />
<path d="M95.1290 56.1252
L95.2499 56.1857
" />
<path d="M95.2499 56.1857
L95.3104 56.2462
" />
<path d="M95.3104 56.2462
L95.3709 56.3671
" />
<path d="M95.3709 56.3671
L95.4314 56.6090
" />
<path d="M95.4314 56.6090
L95.4314 56.9114
" />
<path d="M95.4314 56.9114
L95.3709 57.1533
" />
<path d="M95.3709 57.1533
L95.3104 57.2743
" />
<path d="M95.3104 57.2743
L95.2499 57.3348
" />
<path d="M95.2499 57.3348
L95.1290 57.3952
" />
<path d="M95.1290 57.3952
L95.0080 57.3952
" />
<path d="M95.0080 57.3952
L94.8871 57.3348
" />
<path d="M94.8871 57.3348
L94.8266 57.2743
" />
<path d="M94.8266 57.2743
L94.7661 57.1533
" />
<path d="M94.7661 57.1533
L94.7057 56.9114
" />
<path d="M94.7057 56.9114
L94.7057 56.6090
" />
<path d="M94.7057 56.6090
L94.7661 56.3671
" />
<path d="M94.7661 56.3671
L94.8266 56.2462
" />
<path d="M94.8266 56.2462
L94.8871 56.1857
" />
<path d="M94.8871 56.1857
L95.0080 56.1252
" />
<path d="M96.6409 57.3952
L95.9152 57.3952
" />
<path d="M96.2780 57.3952
L96.2780 56.1252
" />
<path d="M96.2780 56.1252
L96.1571 56.3067
" />
<path d="M96.1571 56.3067
L96.0361 56.4276
" />
<path d="M96.0361 56.4276
L95.9152 56.4881
" />
</g><text x="93.9800" y="59.8749"
textLength="21.6718" font-size="1.6933" lengthAdjust="spacingAndGlyphs"
text-anchor="middle" opacity="0">Conn_02x08_Odd_Even</text>
<g class="stroked-text"><desc>Conn_02x08_Odd_Even</desc>
<path d="M84.2737 59.6985
L84.2133 59.7590
" />
<path d="M84.2133 59.7590
L84.0318 59.8194
" />
<path d="M84.0318 59.8194
L83.9109 59.8194
" />
<path d="M83.9109 59.8194
L83.7295 59.7590
" />
<path d="M83.7295 59.7590
L83.6085 59.6380
" />
<path d="M83.6085 59.6380
L83.5480 59.5170
" />
<path d="M83.5480 59.5170
L83.4876 59.2751
" />
<path d="M83.4876 59.2751
L83.4876 59.0937
" />
<path d="M83.4876 59.0937
L83.5480 58.8518
" />
<path d="M83.5480 58.8518
L83.6085 58.7309
" />
<path d="M83.6085 58.7309
L83.7295 58.6099
" />
<path d="M83.7295 58.6099
L83.9109 58.5494
" />
<path d="M83.9109 58.5494
L84.0318 58.5494
" />
<path d="M84.0318 58.5494
L84.2133 58.6099
" />
<path d="M84.2133 58.6099
L84.2737 58.6704
" />
<path d="M84.9995 59.8194
L84.8785 59.7590
" />
<path d="M84.8785 59.7590
L84.8180 59.6985
" />
<path d="M84.8180 59.6985
L84.7576 59.5775
" />
<path d="M84.7576 59.5775
L84.7576 59.2147
" />
<path d="M84.7576 59.2147
L84.8180 59.0937
" />
<path d="M84.8180 59.0937
L84.8785 59.0332
" />
<path d="M84.8785 59.0332
L84.9995 58.9728
" />
<path d="M84.9995 58.9728
L85.1809 58.9728
" />
<path d="M85.1809 58.9728
L85.3018 59.0332
" />
<path d="M85.3018 59.0332
L85.3623 59.0937
" />
<path d="M85.3623 59.0937
L85.4228 59.2147
" />
<path d="M85.4228 59.2147
L85.4228 59.5775
" />
<path d="M85.4228 59.5775
L85.3623 59.6985
" />
<path d="M85.3623 59.6985
L85.3018 59.7590
" />
<path d="M85.3018 59.7590
L85.1809 59.8194
" />
<path d="M85.1809 59.8194
L84.9995 59.8194
" />
<path d="M85.9670 58.9728
L85.9670 59.8194
" />
<path d="M85.9670 59.0937
L86.0275 59.0332
" />
<path d="M86.0275 59.0332
L86.1485 58.9728
" />
<path d="M86.1485 58.9728
L86.3299 58.9728
" />
<path d="M86.3299 58.9728
L86.4508 59.0332
" />
<path d="M86.4508 59.0332
L86.5113 59.1542
" />
<path d="M86.5113 59.1542
L86.5113 59.8194
" />
<path d="M87.1160 58.9728
L87.1160 59.8194
" />
<path d="M87.1160 59.0937
L87.1765 59.0332
" />
<path d="M87.1765 59.0332
L87.2975 58.9728
" />
<path d="M87.2975 58.9728
L87.4789 58.9728
" />
<path d="M87.4789 58.9728
L87.5998 59.0332
" />
<path d="M87.5998 59.0332
L87.6603 59.1542
" />
<path d="M87.6603 59.1542
L87.6603 59.8194
" />
<path d="M87.9627 59.9404
L88.9303 59.9404
" />
<path d="M89.4745 58.5494
L89.5955 58.5494
" />
<path d="M89.5955 58.5494
L89.7164 58.6099
" />
<path d="M89.7164 58.6099
L89.7769 58.6704
" />
<path d="M89.7769 58.6704
L89.8374 58.7913
" />
<path d="M89.8374 58.7913
L89.8979 59.0332
" />
<path d="M89.8979 59.0332
L89.8979 59.3356
" />
<path d="M89.8979 59.3356
L89.8374 59.5775
" />
<path d="M89.8374 59.5775
L89.7769 59.6985
" />
<path d="M89.7769 59.6985
L89.7164 59.7590
" />
<path d="M89.7164 59.7590
L89.5955 59.8194
" />
<path d="M89.5955 59.8194
L89.4745 59.8194
" />
<path d="M89.4745 59.8194
L89.3536 59.7590
" />
<path d="M89.3536 59.7590
L89.2931 59.6985
" />
<path d="M89.2931 59.6985
L89.2326 59.5775
" />
<path d="M89.2326 59.5775
L89.1722 59.3356
" />
<path d="M89.1722 59.3356
L89.1722 59.0332
" />
<path d="M89.1722 59.0332
L89.2326 58.7913
" />
<path d="M89.2326 58.7913
L89.2931 58.6704
" />
<path d="M89.2931 58.6704
L89.3536 58.6099
" />
<path d="M89.3536 58.6099
L89.4745 58.5494
" />
<path d="M90.3817 58.6704
L90.4421 58.6099
" />
<path d="M90.4421 58.6099
L90.5631 58.5494
" />
<path d="M90.5631 58.5494
L90.8655 58.5494
" />
<path d="M90.8655 58.5494
L90.9864 58.6099
" />
<path d="M90.9864 58.6099
L91.0469 58.6704
" />
<path d="M91.0469 58.6704
L91.1074 58.7913
" />
<path d="M91.1074 58.7913
L91.1074 58.9123
" />
<path d="M91.1074 58.9123
L91.0469 59.0937
" />
<path d="M91.0469 59.0937
L90.3212 59.8194
" />
<path d="M90.3212 59.8194
L91.1074 59.8194
" />
<path d="M91.5307 59.8194
L92.1959 58.9728
" />
<path d="M91.5307 58.9728
L92.1959 59.8194
" />
<path d="M92.9216 58.5494
L93.0426 58.5494
" />
<path d="M93.0426 58.5494
L93.1635 58.6099
" />
<path d="M93.1635 58.6099
L93.2240 58.6704
" />
<path d="M93.2240 58.6704
L93.2845 58.7913
" />
<path d="M93.2845 58.7913
L93.3450 59.0332
" />
<path d="M93.3450 59.0332
L93.3450 59.3356
" />
<path d="M93.3450 59.3356
L93.2845 59.5775
" />
<path d="M93.2845 59.5775
L93.2240 59.6985
" />
<path d="M93.2240 59.6985
L93.1635 59.7590
" />
<path d="M93.1635 59.7590
L93.0426 59.8194
" />
<path d="M93.0426 59.8194
L92.9216 59.8194
" />
<path d="M92.9216 59.8194
L92.8007 59.7590
" />
<path d="M92.8007 59.7590
L92.7402 59.6985
" />
<path d="M92.7402 59.6985
L92.6797 59.5775
" />
<path d="M92.6797 59.5775
L92.6193 59.3356
" />
<path d="M92.6193 59.3356
L92.6193 59.0332
" />
<path d="M92.6193 59.0332
L92.6797 58.7913
" />
<path d="M92.6797 58.7913
L92.7402 58.6704
" />
<path d="M92.7402 58.6704
L92.8007 58.6099
" />
<path d="M92.8007 58.6099
L92.9216 58.5494
" />
<path d="M94.0707 59.0937
L93.9497 59.0332
" />
<path d="M93.9497 59.0332
L93.8892 58.9728
" />
<path d="M93.8892 58.9728
L93.8288 58.8518
" />
<path d="M93.8288 58.8518
L93.8288 58.7913
" />
<path d="M93.8288 58.7913
L93.8892 58.6704
" />
<path d="M93.8892 58.6704
L93.9497 58.6099
" />
<path d="M93.9497 58.6099
L94.0707 58.5494
" />
<path d="M94.0707 58.5494
L94.3126 58.5494
" />
<path d="M94.3126 58.5494
L94.4335 58.6099
" />
<path d="M94.4335 58.6099
L94.4940 58.6704
" />
<path d="M94.4940 58.6704
L94.5545 58.7913
" />
<path d="M94.5545 58.7913
L94.5545 58.8518
" />
<path d="M94.5545 58.8518
L94.4940 58.9728
" />
<path d="M94.4940 58.9728
L94.4335 59.0332
" />
<path d="M94.4335 59.0332
L94.3126 59.0937
" />
<path d="M94.3126 59.0937
L94.0707 59.0937
" />
<path d="M94.0707 59.0937
L93.9497 59.1542
" />
<path d="M93.9497 59.1542
L93.8892 59.2147
" />
<path d="M93.8892 59.2147
L93.8288 59.3356
" />
<path d="M93.8288 59.3356
L93.8288 59.5775
" />
<path d="M93.8288 59.5775
L93.8892 59.6985
" />
<path d="M93.8892 59.6985
L93.9497 59.7590
" />
<path d="M93.9497 59.7590
L94.0707 59.8194
" />
<path d="M94.0707 59.8194
L94.3126 59.8194
" />
<path d="M94.3126 59.8194
L94.4335 59.7590
" />
<path d="M94.4335 59.7590
L94.4940 59.6985
" />
<path d="M94.4940 59.6985
L94.5545 59.5775
" />
<path d="M94.5545 59.5775
L94.5545 59.3356
" />
<path d="M94.5545 59.3356
L94.4940 59.2147
" />
<path d="M94.4940 59.2147
L94.4335 59.1542
" />
<path d="M94.4335 59.1542
L94.3126 59.0937
" />
<path d="M94.7964 59.9404
L95.7640 59.9404
" />
<path d="M96.3082 58.5494
L96.5501 58.5494
" />
<path d="M96.5501 58.5494
L96.6711 58.6099
" />
<path d="M96.6711 58.6099
L96.7920 58.7309
" />
<path d="M96.7920 58.7309
L96.8525 58.9728
" />
<path d="M96.8525 58.9728
L96.8525 59.3961
" />
<path d="M96.8525 59.3961
L96.7920 59.6380
" />
<path d="M96.7920 59.6380
L96.6711 59.7590
" />
<path d="M96.6711 59.7590
L96.5501 59.8194
" />
<path d="M96.5501 59.8194
L96.3082 59.8194
" />
<path d="M96.3082 59.8194
L96.1873 59.7590
" />
<path d="M96.1873 59.7590
L96.0663 59.6380
" />
<path d="M96.0663 59.6380
L96.0059 59.3961
" />
<path d="M96.0059 59.3961
L96.0059 58.9728
" />
<path d="M96.0059 58.9728
L96.0663 58.7309
" />
<path d="M96.0663 58.7309
L96.1873 58.6099
" />
<path d="M96.1873 58.6099
L96.3082 58.5494
" />
<path d="M97.9411 59.8194
L97.9411 58.5494
" />
<path d="M97.9411 59.7590
L97.8202 59.8194
" />
<path d="M97.8202 59.8194
L97.5783 59.8194
" />
<path d="M97.5783 59.8194
L97.4573 59.7590
" />
<path d="M97.4573 59.7590
L97.3968 59.6985
" />
<path d="M97.3968 59.6985
L97.3364 59.5775
" />
<path d="M97.3364 59.5775
L97.3364 59.2147
" />
<path d="M97.3364 59.2147
L97.3968 59.0937
" />
<path d="M97.3968 59.0937
L97.4573 59.0332
" />
<path d="M97.4573 59.0332
L97.5783 58.9728
" />
<path d="M97.5783 58.9728
L97.8202 58.9728
" />
<path d="M97.8202 58.9728
L97.9411 59.0332
" />
<path d="M99.0901 59.8194
L99.0901 58.5494
" />
<path d="M99.0901 59.7590
L98.9692 59.8194
" />
<path d="M98.9692 59.8194
L98.7273 59.8194
" />
<path d="M98.7273 59.8194
L98.6063 59.7590
" />
<path d="M98.6063 59.7590
L98.5458 59.6985
" />
<path d="M98.5458 59.6985
L98.4854 59.5775
" />
<path d="M98.4854 59.5775
L98.4854 59.2147
" />
<path d="M98.4854 59.2147
L98.5458 59.0937
" />
<path d="M98.5458 59.0937
L98.6063 59.0332
" />
<path d="M98.6063 59.0332
L98.7273 58.9728
" />
<path d="M98.7273 58.9728
L98.9692 58.9728
" />
<path d="M98.9692 58.9728
L99.0901 59.0332
" />
<path d="M99.3925 59.9404
L100.3601 59.9404
" />
<path d="M100.6624 59.1542
L101.0858 59.1542
" />
<path d="M101.2672 59.8194
L100.6624 59.8194
" />
<path d="M100.6624 59.8194
L100.6624 58.5494
" />
<path d="M100.6624 58.5494
L101.2672 58.5494
" />
<path d="M101.6905 58.9728
L101.9929 59.8194
" />
<path d="M101.9929 59.8194
L102.2952 58.9728
" />
<path d="M103.2628 59.7590
L103.1419 59.8194
" />
<path d="M103.1419 59.8194
L102.9000 59.8194
" />
<path d="M102.9000 59.8194
L102.7790 59.7590
" />
<path d="M102.7790 59.7590
L102.7186 59.6380
" />
<path d="M102.7186 59.6380
L102.7186 59.1542
" />
<path d="M102.7186 59.1542
L102.7790 59.0332
" />
<path d="M102.7790 59.0332
L102.9000 58.9728
" />
<path d="M102.9000 58.9728
L103.1419 58.9728
" />
<path d="M103.1419 58.9728
L103.2628 59.0332
" />
<path d="M103.2628 59.0332
L103.3233 59.1542
" />
<path d="M103.3233 59.1542
L103.3233 59.2751
" />
<path d="M103.3233 59.2751
L102.7186 59.3961
" />
<path d="M103.8676 58.9728
L103.8676 59.8194
" />
<path d="M103.8676 59.0937
L103.9281 59.0332
" />
<path d="M103.9281 59.0332
L104.0491 58.9728
" />
<path d="M104.0491 58.9728
L104.2305 58.9728
" />
<path d="M104.2305 58.9728
L104.3514 59.0332
" />
<path d="M104.3514 59.0332
L104.4119 59.1542
" />
<path d="M104.4119 59.1542
L104.4119 59.8194
" />
</g></g>
</g>
<g style="fill:#000000; fill-opacity:0.0; 
stroke:#000000; stroke-width:0.1524; stroke-opacity:1; 
stroke-linecap:round; stroke-linejoin:round;">
<path d="M100.3300 62.2300
L106.6800 62.2300
" />
<path d="M100.3300 77.4700
L106.6800 77.4700
" />
<path d="M100.3300 69.8500
L106.6800 69.8500
" />
<path d="M100.3300 72.3900
L106.6800 72.3900
" />
<path d="M100.3300 74.9300
L106.6800 74.9300
" />
<path d="M100.3300 80.0100
L106.6800 80.0100
" />
<path d="M100.3300 67.3100
L106.6800 67.3100
" />
<path d="M100.3300 64.7700
L106.6800 64.7700
" />
<path d="M81.2800 67.3100
L87.6300 67.3100
" />
<path d="M81.2800 62.2300
L87.6300 62.2300
" />
<path d="M81.2800 72.3900
L87.6300 72.3900
" />
<path d="M81.2800 69.8500
L87.6300 69.8500
" />
<path d="M81.2800 77.4700
L87.6300 77.4700
" />
<path d="M81.2800 64.7700
L87.6300 64.7700
" />
<path d="M81.2800 80.0100
L87.6300 80.0100
" />
<path d="M81.2800 74.9300
L87.6300 74.9300
" />
</g> 
</svg>
