<?xml version="1.0" standalone="no"?>
 <!DOCTYPE svg PUBLIC "-//W3C//DTD SVG 1.1//EN" 
 "http://www.w3.org/Graphics/SVG/1.1/DTD/svg11.dtd"> 
<svg
  xmlns:svg="http://www.w3.org/2000/svg"
  xmlns="http://www.w3.org/2000/svg"
  xmlns:xlink="http://www.w3.org/1999/xlink"
  version="1.1"
  width="98.2218mm" height="207.1878mm" viewBox="0.0000 0.0000 98.2218 207.1878">
<title>SVG Image created as Adapter-Pfostenstecker.kicad_pcb_F.svg date 2023/11/27 21:51:34 </title>
  <desc>Image generated by PCBNEW </desc>
<g style="fill:#000000; fill-opacity:1.0000;stroke:#000000; stroke-opacity:1.0000;
stroke-linecap:round; stroke-linejoin:round;"
 transform="translate(0 0) scale(1 1)">
</g>
<g style="fill:#000000; fill-opacity:0.0; 
stroke:#000000; stroke-width:0.0000; stroke-opacity:1; 
stroke-linecap:round; stroke-linejoin:round;">
<g >
</g>
<g style="fill:#840084; fill-opacity:0.0; 
stroke:#840084; stroke-width:0.0000; stroke-opacity:1; 
stroke-linecap:round; stroke-linejoin:round;">
</g>
<g style="fill:#840084; fill-opacity:0.0; 
stroke:#840084; stroke-width:0.0000; stroke-opacity:1; 
stroke-linecap:round; stroke-linejoin:round;">
</g>
<g style="fill:#840084; fill-opacity:1.0000; 
stroke:#840084; stroke-width:0.0000; stroke-opacity:1; 
stroke-linecap:round; stroke-linejoin:round;">
<path style="fill:#840084; fill-opacity:1.0000; 
stroke:#840084; stroke-width:0.0000; stroke-opacity:1; 
stroke-linecap:round; stroke-linejoin:round;fill-rule:evenodd;"
d="M 4.2800,2.8050
4.2800,1.1050
5.9800,1.1050
5.9800,2.8050
Z" /> 
<circle cx="7.6700" cy="1.9550" r="0.8500" /> 
<circle cx="5.1300" cy="4.4950" r="0.8500" /> 
<circle cx="7.6700" cy="4.4950" r="0.8500" /> 
<circle cx="5.1300" cy="7.0350" r="0.8500" /> 
<circle cx="7.6700" cy="7.0350" r="0.8500" /> 
<circle cx="5.1300" cy="9.5750" r="0.8500" /> 
<circle cx="7.6700" cy="9.5750" r="0.8500" /> 
<circle cx="5.1300" cy="12.1150" r="0.8500" /> 
<circle cx="7.6700" cy="12.1150" r="0.8500" /> 
<circle cx="5.1300" cy="14.6550" r="0.8500" /> 
<circle cx="7.6700" cy="14.6550" r="0.8500" /> 
<circle cx="5.1300" cy="17.1950" r="0.8500" /> 
<circle cx="7.6700" cy="17.1950" r="0.8500" /> 
<circle cx="5.1300" cy="19.7350" r="0.8500" /> 
<circle cx="7.6700" cy="19.7350" r="0.8500" /> 
</g>
<g >
</g>
<g style="fill:#840084; fill-opacity:1.0000; 
stroke:#840084; stroke-width:0.0000; stroke-opacity:1; 
stroke-linecap:round; stroke-linejoin:round;">
<path style="fill:#840084; fill-opacity:1.0000; 
stroke:#840084; stroke-width:0.0000; stroke-opacity:1; 
stroke-linecap:round; stroke-linejoin:round;fill-rule:evenodd;"
d="M 11.0600,1.1200
11.0600,2.8200
9.3600,2.8200
9.3600,1.1200
Z" /> 
<circle cx="10.2100" cy="4.5100" r="0.8500" /> 
<circle cx="10.2100" cy="7.0500" r="0.8500" /> 
<circle cx="10.2100" cy="9.5900" r="0.8500" /> 
<circle cx="10.2100" cy="12.1300" r="0.8500" /> 
<circle cx="10.2100" cy="14.6700" r="0.8500" /> 
<circle cx="10.2100" cy="17.2100" r="0.8500" /> 
<circle cx="10.2100" cy="19.7500" r="0.8500" /> 
</g>
<g >
</g>
<g style="fill:#840084; fill-opacity:1.0000; 
stroke:#840084; stroke-width:0.0000; stroke-opacity:1; 
stroke-linecap:round; stroke-linejoin:round;">
<path style="fill:#840084; fill-opacity:1.0000; 
stroke:#840084; stroke-width:0.0000; stroke-opacity:1; 
stroke-linecap:round; stroke-linejoin:round;fill-rule:evenodd;"
d="M 3.4400,1.1050
3.4400,2.8050
1.7400,2.8050
1.7400,1.1050
Z" /> 
<circle cx="2.5900" cy="4.4950" r="0.8500" /> 
<circle cx="2.5900" cy="7.0350" r="0.8500" /> 
<circle cx="2.5900" cy="9.5750" r="0.8500" /> 
<circle cx="2.5900" cy="12.1150" r="0.8500" /> 
<circle cx="2.5900" cy="14.6550" r="0.8500" /> 
<circle cx="2.5900" cy="17.1950" r="0.8500" /> 
<circle cx="2.5900" cy="19.7350" r="0.8500" /> 
</g>
<g >
</g>
<g >
</g>
<g >
</g>
</g>
<g style="fill:#000000; fill-opacity:1.0000; 
stroke:#000000; stroke-width:0.0000; stroke-opacity:1; 
stroke-linecap:round; stroke-linejoin:round;">
</g>
<g style="fill:#008484; fill-opacity:1.0000; 
stroke:#008484; stroke-width:0.0000; stroke-opacity:1; 
stroke-linecap:round; stroke-linejoin:round;">
</g>
<g style="fill:#008484; fill-opacity:1.0000; 
stroke:#008484; stroke-width:0.2500; stroke-opacity:1; 
stroke-linecap:round; stroke-linejoin:round;">
</g>
<g style="fill:#008484; fill-opacity:0.0; 
stroke:#008484; stroke-width:0.2500; stroke-opacity:1; 
stroke-linecap:round; stroke-linejoin:round;">
<text x="6.4000" y="22.5210"
textLength="12.6452" font-size="1.3333" lengthAdjust="spacingAndGlyphs"
text-anchor="middle" opacity="0">©H3-H5N6 '23</text>
<g class="stroked-text"><desc>©H3-H5N6 '23</desc>
<path d="M1.4000 21.7087
L1.3048 21.6611
" />
<path d="M1.3048 21.6611
L1.1143 21.6611
" />
<path d="M1.1143 21.6611
L1.0190 21.7087
" />
<path d="M1.0190 21.7087
L0.9238 21.8040
" />
<path d="M0.9238 21.8040
L0.8762 21.8992
" />
<path d="M0.8762 21.8992
L0.8762 22.0897
" />
<path d="M0.8762 22.0897
L0.9238 22.1849
" />
<path d="M0.9238 22.1849
L1.0190 22.2801
" />
<path d="M1.0190 22.2801
L1.1143 22.3278
" />
<path d="M1.1143 22.3278
L1.3048 22.3278
" />
<path d="M1.3048 22.3278
L1.4000 22.2801
" />
<path d="M1.2095 21.3278
L0.9714 21.3754
" />
<path d="M0.9714 21.3754
L0.7333 21.5182
" />
<path d="M0.7333 21.5182
L0.5905 21.7563
" />
<path d="M0.5905 21.7563
L0.5429 21.9944
" />
<path d="M0.5429 21.9944
L0.5905 22.2325
" />
<path d="M0.5905 22.2325
L0.7333 22.4706
" />
<path d="M0.7333 22.4706
L0.9714 22.6135
" />
<path d="M0.9714 22.6135
L1.2095 22.6611
" />
<path d="M1.2095 22.6611
L1.4476 22.6135
" />
<path d="M1.4476 22.6135
L1.6857 22.4706
" />
<path d="M1.6857 22.4706
L1.8286 22.2325
" />
<path d="M1.8286 22.2325
L1.8762 21.9944
" />
<path d="M1.8762 21.9944
L1.8286 21.7563
" />
<path d="M1.8286 21.7563
L1.6857 21.5182
" />
<path d="M1.6857 21.5182
L1.4476 21.3754
" />
<path d="M1.4476 21.3754
L1.2095 21.3278
" />
<path d="M2.3048 22.4706
L2.3048 21.4706
" />
<path d="M2.3048 21.9468
L2.8762 21.9468
" />
<path d="M2.8762 22.4706
L2.8762 21.4706
" />
<path d="M3.2571 21.4706
L3.8762 21.4706
" />
<path d="M3.8762 21.4706
L3.5429 21.8516
" />
<path d="M3.5429 21.8516
L3.6857 21.8516
" />
<path d="M3.6857 21.8516
L3.7810 21.8992
" />
<path d="M3.7810 21.8992
L3.8286 21.9468
" />
<path d="M3.8286 21.9468
L3.8762 22.0420
" />
<path d="M3.8762 22.0420
L3.8762 22.2801
" />
<path d="M3.8762 22.2801
L3.8286 22.3754
" />
<path d="M3.8286 22.3754
L3.7810 22.4230
" />
<path d="M3.7810 22.4230
L3.6857 22.4706
" />
<path d="M3.6857 22.4706
L3.4000 22.4706
" />
<path d="M3.4000 22.4706
L3.3048 22.4230
" />
<path d="M3.3048 22.4230
L3.2571 22.3754
" />
<path d="M4.3048 22.0897
L5.0667 22.0897
" />
<path d="M5.5429 22.4706
L5.5429 21.4706
" />
<path d="M5.5429 21.9468
L6.1143 21.9468
" />
<path d="M6.1143 22.4706
L6.1143 21.4706
" />
<path d="M7.0667 21.4706
L6.5905 21.4706
" />
<path d="M6.5905 21.4706
L6.5429 21.9468
" />
<path d="M6.5429 21.9468
L6.5905 21.8992
" />
<path d="M6.5905 21.8992
L6.6857 21.8516
" />
<path d="M6.6857 21.8516
L6.9238 21.8516
" />
<path d="M6.9238 21.8516
L7.0190 21.8992
" />
<path d="M7.0190 21.8992
L7.0667 21.9468
" />
<path d="M7.0667 21.9468
L7.1143 22.0420
" />
<path d="M7.1143 22.0420
L7.1143 22.2801
" />
<path d="M7.1143 22.2801
L7.0667 22.3754
" />
<path d="M7.0667 22.3754
L7.0190 22.4230
" />
<path d="M7.0190 22.4230
L6.9238 22.4706
" />
<path d="M6.9238 22.4706
L6.6857 22.4706
" />
<path d="M6.6857 22.4706
L6.5905 22.4230
" />
<path d="M6.5905 22.4230
L6.5429 22.3754
" />
<path d="M7.5429 22.4706
L7.5429 21.4706
" />
<path d="M7.5429 21.4706
L8.1143 22.4706
" />
<path d="M8.1143 22.4706
L8.1143 21.4706
" />
<path d="M9.0190 21.4706
L8.8286 21.4706
" />
<path d="M8.8286 21.4706
L8.7333 21.5182
" />
<path d="M8.7333 21.5182
L8.6857 21.5659
" />
<path d="M8.6857 21.5659
L8.5905 21.7087
" />
<path d="M8.5905 21.7087
L8.5429 21.8992
" />
<path d="M8.5429 21.8992
L8.5429 22.2801
" />
<path d="M8.5429 22.2801
L8.5905 22.3754
" />
<path d="M8.5905 22.3754
L8.6381 22.4230
" />
<path d="M8.6381 22.4230
L8.7333 22.4706
" />
<path d="M8.7333 22.4706
L8.9238 22.4706
" />
<path d="M8.9238 22.4706
L9.0190 22.4230
" />
<path d="M9.0190 22.4230
L9.0667 22.3754
" />
<path d="M9.0667 22.3754
L9.1143 22.2801
" />
<path d="M9.1143 22.2801
L9.1143 22.0420
" />
<path d="M9.1143 22.0420
L9.0667 21.9468
" />
<path d="M9.0667 21.9468
L9.0190 21.8992
" />
<path d="M9.0190 21.8992
L8.9238 21.8516
" />
<path d="M8.9238 21.8516
L8.7333 21.8516
" />
<path d="M8.7333 21.8516
L8.6381 21.8992
" />
<path d="M8.6381 21.8992
L8.5905 21.9468
" />
<path d="M8.5905 21.9468
L8.5429 22.0420
" />
<path d="M10.3524 21.4706
L10.2571 21.6611
" />
<path d="M10.7333 21.5659
L10.7810 21.5182
" />
<path d="M10.7810 21.5182
L10.8762 21.4706
" />
<path d="M10.8762 21.4706
L11.1143 21.4706
" />
<path d="M11.1143 21.4706
L11.2095 21.5182
" />
<path d="M11.2095 21.5182
L11.2571 21.5659
" />
<path d="M11.2571 21.5659
L11.3048 21.6611
" />
<path d="M11.3048 21.6611
L11.3048 21.7563
" />
<path d="M11.3048 21.7563
L11.2571 21.8992
" />
<path d="M11.2571 21.8992
L10.6857 22.4706
" />
<path d="M10.6857 22.4706
L11.3048 22.4706
" />
<path d="M11.6381 21.4706
L12.2571 21.4706
" />
<path d="M12.2571 21.4706
L11.9238 21.8516
" />
<path d="M11.9238 21.8516
L12.0667 21.8516
" />
<path d="M12.0667 21.8516
L12.1619 21.8992
" />
<path d="M12.1619 21.8992
L12.2095 21.9468
" />
<path d="M12.2095 21.9468
L12.2571 22.0420
" />
<path d="M12.2571 22.0420
L12.2571 22.2801
" />
<path d="M12.2571 22.2801
L12.2095 22.3754
" />
<path d="M12.2095 22.3754
L12.1619 22.4230
" />
<path d="M12.1619 22.4230
L12.0667 22.4706
" />
<path d="M12.0667 22.4706
L11.7810 22.4706
" />
<path d="M11.7810 22.4706
L11.6857 22.4230
" />
<path d="M11.6857 22.4230
L11.6381 22.3754
" />
</g></g>
<g style="fill:#008484; fill-opacity:0.0; 
stroke:#008484; stroke-width:0.1200; stroke-opacity:1; 
stroke-linecap:round; stroke-linejoin:round;">
<path d="M3.8000 0.6250
L5.1300 0.6250
" />
<path d="M3.8000 1.9550
L3.8000 0.6250
" />
<path d="M3.8000 3.2250
L3.8000 21.0650
" />
<path d="M3.8000 3.2250
L6.4000 3.2250
" />
<path d="M3.8000 21.0650
L9.0000 21.0650
" />
<path d="M6.4000 0.6250
L9.0000 0.6250
" />
<path d="M6.4000 3.2250
L6.4000 0.6250
" />
<path d="M9.0000 0.6250
L9.0000 21.0650
" />
<g >
</g>
<g >
</g>
<g >
</g>
<g >
</g>
<g >
</g>
<g >
</g>
</g>
<g style="fill:#000000; fill-opacity:0.0; 
stroke:#000000; stroke-width:0.1200; stroke-opacity:1; 
stroke-linecap:round; stroke-linejoin:round;">
</g>
<g style="fill:#C2C2C2; fill-opacity:0.0; 
stroke:#C2C2C2; stroke-width:0.1200; stroke-opacity:1; 
stroke-linecap:round; stroke-linejoin:round;">
</g>
<g style="fill:#C2C2C2; fill-opacity:0.0; 
stroke:#C2C2C2; stroke-width:0.1500; stroke-opacity:1; 
stroke-linecap:round; stroke-linejoin:round;">
<text x="6.4000" y="27.7210"
textLength="7.0119" font-size="1.3333" lengthAdjust="spacingAndGlyphs"
text-anchor="middle" opacity="0">7.62 mm</text>
<g class="stroked-text"><desc>7.62 mm</desc>
<path d="M3.1619 26.6758
L3.8286 26.6758
" />
<path d="M3.8286 26.6758
L3.4000 27.6758
" />
<path d="M4.2095 27.5806
L4.2571 27.6282
" />
<path d="M4.2571 27.6282
L4.2095 27.6758
" />
<path d="M4.2095 27.6758
L4.1619 27.6282
" />
<path d="M4.1619 27.6282
L4.2095 27.5806
" />
<path d="M4.2095 27.5806
L4.2095 27.6758
" />
<path d="M5.1143 26.6758
L4.9238 26.6758
" />
<path d="M4.9238 26.6758
L4.8286 26.7234
" />
<path d="M4.8286 26.7234
L4.7810 26.7711
" />
<path d="M4.7810 26.7711
L4.6857 26.9139
" />
<path d="M4.6857 26.9139
L4.6381 27.1044
" />
<path d="M4.6381 27.1044
L4.6381 27.4853
" />
<path d="M4.6381 27.4853
L4.6857 27.5806
" />
<path d="M4.6857 27.5806
L4.7333 27.6282
" />
<path d="M4.7333 27.6282
L4.8286 27.6758
" />
<path d="M4.8286 27.6758
L5.0190 27.6758
" />
<path d="M5.0190 27.6758
L5.1143 27.6282
" />
<path d="M5.1143 27.6282
L5.1619 27.5806
" />
<path d="M5.1619 27.5806
L5.2095 27.4853
" />
<path d="M5.2095 27.4853
L5.2095 27.2472
" />
<path d="M5.2095 27.2472
L5.1619 27.1520
" />
<path d="M5.1619 27.1520
L5.1143 27.1044
" />
<path d="M5.1143 27.1044
L5.0190 27.0568
" />
<path d="M5.0190 27.0568
L4.8286 27.0568
" />
<path d="M4.8286 27.0568
L4.7333 27.1044
" />
<path d="M4.7333 27.1044
L4.6857 27.1520
" />
<path d="M4.6857 27.1520
L4.6381 27.2472
" />
<path d="M5.5905 26.7711
L5.6381 26.7234
" />
<path d="M5.6381 26.7234
L5.7333 26.6758
" />
<path d="M5.7333 26.6758
L5.9714 26.6758
" />
<path d="M5.9714 26.6758
L6.0667 26.7234
" />
<path d="M6.0667 26.7234
L6.1143 26.7711
" />
<path d="M6.1143 26.7711
L6.1619 26.8663
" />
<path d="M6.1619 26.8663
L6.1619 26.9615
" />
<path d="M6.1619 26.9615
L6.1143 27.1044
" />
<path d="M6.1143 27.1044
L5.5429 27.6758
" />
<path d="M5.5429 27.6758
L6.1619 27.6758
" />
<path d="M7.3524 27.6758
L7.3524 27.0092
" />
<path d="M7.3524 27.1044
L7.4000 27.0568
" />
<path d="M7.4000 27.0568
L7.4952 27.0092
" />
<path d="M7.4952 27.0092
L7.6381 27.0092
" />
<path d="M7.6381 27.0092
L7.7333 27.0568
" />
<path d="M7.7333 27.0568
L7.7810 27.1520
" />
<path d="M7.7810 27.1520
L7.7810 27.6758
" />
<path d="M7.7810 27.1520
L7.8286 27.0568
" />
<path d="M7.8286 27.0568
L7.9238 27.0092
" />
<path d="M7.9238 27.0092
L8.0667 27.0092
" />
<path d="M8.0667 27.0092
L8.1619 27.0568
" />
<path d="M8.1619 27.0568
L8.2095 27.1520
" />
<path d="M8.2095 27.1520
L8.2095 27.6758
" />
<path d="M8.6857 27.6758
L8.6857 27.0092
" />
<path d="M8.6857 27.1044
L8.7333 27.0568
" />
<path d="M8.7333 27.0568
L8.8286 27.0092
" />
<path d="M8.8286 27.0092
L8.9714 27.0092
" />
<path d="M8.9714 27.0092
L9.0667 27.0568
" />
<path d="M9.0667 27.0568
L9.1143 27.1520
" />
<path d="M9.1143 27.1520
L9.1143 27.6758
" />
<path d="M9.1143 27.1520
L9.1619 27.0568
" />
<path d="M9.1619 27.0568
L9.2571 27.0092
" />
<path d="M9.2571 27.0092
L9.4000 27.0092
" />
<path d="M9.4000 27.0092
L9.4952 27.0568
" />
<path d="M9.4952 27.0568
L9.5429 27.1520
" />
<path d="M9.5429 27.1520
L9.5429 27.6758
" />
</g></g>
<g style="fill:#C2C2C2; fill-opacity:0.0; 
stroke:#C2C2C2; stroke-width:0.0500; stroke-opacity:1; 
stroke-linecap:round; stroke-linejoin:round;">
<path d="M2.5900 21.2510
L2.5900 28.9574
" />
<path d="M10.2100 21.2510
L10.2100 28.9574
" />
<path d="M2.5900 28.3710
L10.2100 28.3710
" />
<path d="M2.5900 28.3710
L10.2100 28.3710
" />
<path d="M2.5900 28.3710
L3.7165 27.7846
" />
<path d="M2.5900 28.3710
L3.7165 28.9574
" />
<path d="M10.2100 28.3710
L9.0835 28.9574
" />
<path d="M10.2100 28.3710
L9.0835 27.7846
" />
</g>
<g style="fill:#C2C2C2; fill-opacity:0.0; 
stroke:#C2C2C2; stroke-width:0.1500; stroke-opacity:1; 
stroke-linecap:round; stroke-linejoin:round;">
<text x="6.4000" y="24.8000"
textLength="7.0119" font-size="1.3333" lengthAdjust="spacingAndGlyphs"
text-anchor="middle" opacity="0">2.54 mm</text>
<g class="stroked-text"><desc>2.54 mm</desc>
<path d="M3.2095 23.8501
L3.2571 23.8024
" />
<path d="M3.2571 23.8024
L3.3524 23.7548
" />
<path d="M3.3524 23.7548
L3.5905 23.7548
" />
<path d="M3.5905 23.7548
L3.6857 23.8024
" />
<path d="M3.6857 23.8024
L3.7333 23.8501
" />
<path d="M3.7333 23.8501
L3.7810 23.9453
" />
<path d="M3.7810 23.9453
L3.7810 24.0405
" />
<path d="M3.7810 24.0405
L3.7333 24.1834
" />
<path d="M3.7333 24.1834
L3.1619 24.7548
" />
<path d="M3.1619 24.7548
L3.7810 24.7548
" />
<path d="M4.2095 24.6596
L4.2571 24.7072
" />
<path d="M4.2571 24.7072
L4.2095 24.7548
" />
<path d="M4.2095 24.7548
L4.1619 24.7072
" />
<path d="M4.1619 24.7072
L4.2095 24.6596
" />
<path d="M4.2095 24.6596
L4.2095 24.7548
" />
<path d="M5.1619 23.7548
L4.6857 23.7548
" />
<path d="M4.6857 23.7548
L4.6381 24.2310
" />
<path d="M4.6381 24.2310
L4.6857 24.1834
" />
<path d="M4.6857 24.1834
L4.7810 24.1358
" />
<path d="M4.7810 24.1358
L5.0190 24.1358
" />
<path d="M5.0190 24.1358
L5.1143 24.1834
" />
<path d="M5.1143 24.1834
L5.1619 24.2310
" />
<path d="M5.1619 24.2310
L5.2095 24.3262
" />
<path d="M5.2095 24.3262
L5.2095 24.5643
" />
<path d="M5.2095 24.5643
L5.1619 24.6596
" />
<path d="M5.1619 24.6596
L5.1143 24.7072
" />
<path d="M5.1143 24.7072
L5.0190 24.7548
" />
<path d="M5.0190 24.7548
L4.7810 24.7548
" />
<path d="M4.7810 24.7548
L4.6857 24.7072
" />
<path d="M4.6857 24.7072
L4.6381 24.6596
" />
<path d="M6.0667 24.0882
L6.0667 24.7548
" />
<path d="M5.8286 23.7072
L5.5905 24.4215
" />
<path d="M5.5905 24.4215
L6.2095 24.4215
" />
<path d="M7.3524 24.7548
L7.3524 24.0882
" />
<path d="M7.3524 24.1834
L7.4000 24.1358
" />
<path d="M7.4000 24.1358
L7.4952 24.0882
" />
<path d="M7.4952 24.0882
L7.6381 24.0882
" />
<path d="M7.6381 24.0882
L7.7333 24.1358
" />
<path d="M7.7333 24.1358
L7.7810 24.2310
" />
<path d="M7.7810 24.2310
L7.7810 24.7548
" />
<path d="M7.7810 24.2310
L7.8286 24.1358
" />
<path d="M7.8286 24.1358
L7.9238 24.0882
" />
<path d="M7.9238 24.0882
L8.0667 24.0882
" />
<path d="M8.0667 24.0882
L8.1619 24.1358
" />
<path d="M8.1619 24.1358
L8.2095 24.2310
" />
<path d="M8.2095 24.2310
L8.2095 24.7548
" />
<path d="M8.6857 24.7548
L8.6857 24.0882
" />
<path d="M8.6857 24.1834
L8.7333 24.1358
" />
<path d="M8.7333 24.1358
L8.8286 24.0882
" />
<path d="M8.8286 24.0882
L8.9714 24.0882
" />
<path d="M8.9714 24.0882
L9.0667 24.1358
" />
<path d="M9.0667 24.1358
L9.1143 24.2310
" />
<path d="M9.1143 24.2310
L9.1143 24.7548
" />
<path d="M9.1143 24.2310
L9.1619 24.1358
" />
<path d="M9.1619 24.1358
L9.2571 24.0882
" />
<path d="M9.2571 24.0882
L9.4000 24.0882
" />
<path d="M9.4000 24.0882
L9.4952 24.1358
" />
<path d="M9.4952 24.1358
L9.5429 24.2310
" />
<path d="M9.5429 24.2310
L9.5429 24.7548
" />
</g></g>
<g style="fill:#C2C2C2; fill-opacity:0.0; 
stroke:#C2C2C2; stroke-width:0.0500; stroke-opacity:1; 
stroke-linecap:round; stroke-linejoin:round;">
<path d="M5.1300 20.8700
L5.1300 26.0364
" />
<path d="M7.6700 20.8700
L7.6700 26.0364
" />
<path d="M5.1300 25.4500
L7.6700 25.4500
" />
<path d="M5.1300 25.4500
L7.6700 25.4500
" />
<path d="M5.1300 25.4500
L6.2565 24.8636
" />
<path d="M5.1300 25.4500
L6.2565 26.0364
" />
<path d="M7.6700 25.4500
L6.5435 26.0364
" />
<path d="M7.6700 25.4500
L6.5435 24.8636
" />
<path d="M3.3300 0.1550
L3.3300 21.5050
" />
<path d="M3.3300 21.5050
L9.4800 21.5050
" />
<path d="M9.4800 0.1550
L3.3300 0.1550
" />
<path d="M9.4800 21.5050
L9.4800 0.1550
" />
<g >
</g>
<g >
</g>
<g >
</g>
<g >
</g>
<g >
</g>
<g >
</g>
</g>
<g style="fill:#000000; fill-opacity:0.0; 
stroke:#000000; stroke-width:0.0500; stroke-opacity:1; 
stroke-linecap:round; stroke-linejoin:round;">
</g>
<g style="fill:#C2C200; fill-opacity:0.0; 
stroke:#C2C200; stroke-width:0.0500; stroke-opacity:1; 
stroke-linecap:round; stroke-linejoin:round;">
</g>
<g style="fill:#C2C200; fill-opacity:0.0; 
stroke:#C2C200; stroke-width:0.1000; stroke-opacity:1; 
stroke-linecap:round; stroke-linejoin:round;">
<path d="M12.7500 22.9100
L0.0500 22.9100
" />
<path d="M0.0500 0.0500
L12.7500 0.0500
" />
<path d="M0.0500 22.9100
L0.0500 0.0500
" />
<path d="M12.7500 0.0500
L12.7500 22.9100
" />
<g >
</g>
<g >
</g>
<g >
</g>
<g >
</g>
<g >
</g>
<g >
</g>
</g> 
</svg>
