<?xml version="1.0" standalone="no"?>
 <!DOCTYPE svg PUBLIC "-//W3C//DTD SVG 1.1//EN" 
 "http://www.w3.org/Graphics/SVG/1.1/DTD/svg11.dtd"> 
<svg
  xmlns:svg="http://www.w3.org/2000/svg"
  xmlns="http://www.w3.org/2000/svg"
  xmlns:xlink="http://www.w3.org/1999/xlink"
  version="1.1"
  width="98.2218mm" height="207.1878mm" viewBox="0.0000 0.0000 98.2218 207.1878">
<title>SVG Image created as Adapter-Pfostenstecker.kicad_pcb_F.svg date 2023/11/27 19:47:08 </title>
  <desc>Image generated by PCBNEW </desc>
<g style="fill:#000000; fill-opacity:1.0000;stroke:#000000; stroke-opacity:1.0000;
stroke-linecap:round; stroke-linejoin:round;"
 transform="translate(0 0) scale(1 1)">
</g>
<g style="fill:#000000; fill-opacity:0.0; 
stroke:#000000; stroke-width:0.0000; stroke-opacity:1; 
stroke-linecap:round; stroke-linejoin:round;">
</g>
<g style="fill:#000000; fill-opacity:0.0; 
stroke:#000000; stroke-width:0.0212; stroke-opacity:1; 
stroke-linecap:round; stroke-linejoin:round;">
</g>
<g style="fill:#000000; fill-opacity:0.0; 
stroke:#000000; stroke-width:0.1500; stroke-opacity:1; 
stroke-linecap:round; stroke-linejoin:round;">
<path d="M-163.9682 94.0228
L-55.9682 94.0228
L-55.9682 126.0228
L-163.9682 126.0228
L-163.9682 94.0228
" />
</g>
<g style="fill:#000000; fill-opacity:0.0; 
stroke:#000000; stroke-width:0.0212; stroke-opacity:1; 
stroke-linecap:round; stroke-linejoin:round;">
</g>
<g style="fill:#000000; fill-opacity:0.0; 
stroke:#000000; stroke-width:0.1500; stroke-opacity:1; 
stroke-linecap:round; stroke-linejoin:round;">
<path d="M-132.1900 -59.1650
L-53.9682 -59.1650
L-53.9682 128.0228
L-132.1900 128.0228
L-132.1900 -59.1650
" />
</g>
<g style="fill:#000000; fill-opacity:0.0; 
stroke:#000000; stroke-width:0.0212; stroke-opacity:1; 
stroke-linecap:round; stroke-linejoin:round;">
</g>
<g style="fill:#000000; fill-opacity:0.0; 
stroke:#000000; stroke-width:0.1500; stroke-opacity:1; 
stroke-linecap:round; stroke-linejoin:round;">
<path d="M-130.1900 -57.1650
L-55.9682 -57.1650
L-55.9682 126.0228
L-130.1900 126.0228
L-130.1900 -57.1650
" />
</g>
<g style="fill:#000000; fill-opacity:0.0; 
stroke:#000000; stroke-width:0.0212; stroke-opacity:1; 
stroke-linecap:round; stroke-linejoin:round;">
</g>
<g style="fill:#000000; fill-opacity:0.0; 
stroke:#000000; stroke-width:0.1500; stroke-opacity:1; 
stroke-linecap:round; stroke-linejoin:round;">
<path d="M-82.1900 -57.1650
L-82.1900 -59.1650
" />
</g>
<g style="fill:#000000; fill-opacity:0.0; 
stroke:#000000; stroke-width:0.0212; stroke-opacity:1; 
stroke-linecap:round; stroke-linejoin:round;">
</g>
<g style="fill:#000000; fill-opacity:0.0; 
stroke:#000000; stroke-width:0.1500; stroke-opacity:1; 
stroke-linecap:round; stroke-linejoin:round;">
<text x="-107.1900" y="-57.5150"
textLength="1.4281" font-size="1.7333" lengthAdjust="spacingAndGlyphs"
text-anchor="start" opacity="0">1</text>
<g class="stroked-text"><desc>1</desc>
<path d="M-106.1008 -57.5714
L-106.8437 -57.5714
" />
<path d="M-106.4723 -57.5714
L-106.4723 -58.8714
" />
<path d="M-106.4723 -58.8714
L-106.5961 -58.6857
" />
<path d="M-106.5961 -58.6857
L-106.7199 -58.5619
" />
<path d="M-106.7199 -58.5619
L-106.8437 -58.5000
" />
</g></g>
<g style="fill:#000000; fill-opacity:0.0; 
stroke:#000000; stroke-width:0.0212; stroke-opacity:1; 
stroke-linecap:round; stroke-linejoin:round;">
</g>
<g style="fill:#000000; fill-opacity:0.0; 
stroke:#000000; stroke-width:0.1500; stroke-opacity:1; 
stroke-linecap:round; stroke-linejoin:round;">
<text x="-57.1900" y="-57.5150"
textLength="1.4281" font-size="1.7333" lengthAdjust="spacingAndGlyphs"
text-anchor="start" opacity="0">2</text>
<g class="stroked-text"><desc>2</desc>
<path d="M-56.8437 -58.7476
L-56.7818 -58.8095
" />
<path d="M-56.7818 -58.8095
L-56.6580 -58.8714
" />
<path d="M-56.6580 -58.8714
L-56.3485 -58.8714
" />
<path d="M-56.3485 -58.8714
L-56.2246 -58.8095
" />
<path d="M-56.2246 -58.8095
L-56.1627 -58.7476
" />
<path d="M-56.1627 -58.7476
L-56.1008 -58.6238
" />
<path d="M-56.1008 -58.6238
L-56.1008 -58.5000
" />
<path d="M-56.1008 -58.5000
L-56.1627 -58.3143
" />
<path d="M-56.1627 -58.3143
L-56.9056 -57.5714
" />
<path d="M-56.9056 -57.5714
L-56.1008 -57.5714
" />
</g></g>
<g style="fill:#000000; fill-opacity:0.0; 
stroke:#000000; stroke-width:0.0212; stroke-opacity:1; 
stroke-linecap:round; stroke-linejoin:round;">
</g>
<g style="fill:#000000; fill-opacity:0.0; 
stroke:#000000; stroke-width:0.1500; stroke-opacity:1; 
stroke-linecap:round; stroke-linejoin:round;">
<path d="M-82.1900 126.0228
L-82.1900 128.0228
" />
</g>
<g style="fill:#000000; fill-opacity:0.0; 
stroke:#000000; stroke-width:0.0212; stroke-opacity:1; 
stroke-linecap:round; stroke-linejoin:round;">
</g>
<g style="fill:#000000; fill-opacity:0.0; 
stroke:#000000; stroke-width:0.1500; stroke-opacity:1; 
stroke-linecap:round; stroke-linejoin:round;">
<text x="-107.1900" y="127.6728"
textLength="1.4281" font-size="1.7333" lengthAdjust="spacingAndGlyphs"
text-anchor="start" opacity="0">1</text>
<g class="stroked-text"><desc>1</desc>
<path d="M-106.1008 127.6164
L-106.8437 127.6164
" />
<path d="M-106.4723 127.6164
L-106.4723 126.3164
" />
<path d="M-106.4723 126.3164
L-106.5961 126.5021
" />
<path d="M-106.5961 126.5021
L-106.7199 126.6259
" />
<path d="M-106.7199 126.6259
L-106.8437 126.6878
" />
</g></g>
<g style="fill:#000000; fill-opacity:0.0; 
stroke:#000000; stroke-width:0.0212; stroke-opacity:1; 
stroke-linecap:round; stroke-linejoin:round;">
</g>
<g style="fill:#000000; fill-opacity:0.0; 
stroke:#000000; stroke-width:0.1500; stroke-opacity:1; 
stroke-linecap:round; stroke-linejoin:round;">
<text x="-57.1900" y="127.6728"
textLength="1.4281" font-size="1.7333" lengthAdjust="spacingAndGlyphs"
text-anchor="start" opacity="0">2</text>
<g class="stroked-text"><desc>2</desc>
<path d="M-56.8437 126.4402
L-56.7818 126.3783
" />
<path d="M-56.7818 126.3783
L-56.6580 126.3164
" />
<path d="M-56.6580 126.3164
L-56.3485 126.3164
" />
<path d="M-56.3485 126.3164
L-56.2246 126.3783
" />
<path d="M-56.2246 126.3783
L-56.1627 126.4402
" />
<path d="M-56.1627 126.4402
L-56.1008 126.5640
" />
<path d="M-56.1008 126.5640
L-56.1008 126.6878
" />
<path d="M-56.1008 126.6878
L-56.1627 126.8735
" />
<path d="M-56.1627 126.8735
L-56.9056 127.6164
" />
<path d="M-56.9056 127.6164
L-56.1008 127.6164
" />
</g></g>
<g style="fill:#000000; fill-opacity:0.0; 
stroke:#000000; stroke-width:0.0212; stroke-opacity:1; 
stroke-linecap:round; stroke-linejoin:round;">
</g>
<g style="fill:#000000; fill-opacity:0.0; 
stroke:#000000; stroke-width:0.1500; stroke-opacity:1; 
stroke-linecap:round; stroke-linejoin:round;">
<path d="M-132.1900 -9.1650
L-130.1900 -9.1650
" />
</g>
<g style="fill:#000000; fill-opacity:0.0; 
stroke:#000000; stroke-width:0.0212; stroke-opacity:1; 
stroke-linecap:round; stroke-linejoin:round;">
</g>
<g style="fill:#000000; fill-opacity:0.0; 
stroke:#000000; stroke-width:0.1500; stroke-opacity:1; 
stroke-linecap:round; stroke-linejoin:round;">
<path d="M-132.1900 40.8350
L-130.1900 40.8350
" />
</g>
<g style="fill:#000000; fill-opacity:0.0; 
stroke:#000000; stroke-width:0.0212; stroke-opacity:1; 
stroke-linecap:round; stroke-linejoin:round;">
</g>
<g style="fill:#000000; fill-opacity:0.0; 
stroke:#000000; stroke-width:0.1500; stroke-opacity:1; 
stroke-linecap:round; stroke-linejoin:round;">
<path d="M-132.1900 90.8350
L-130.1900 90.8350
" />
</g>
<g style="fill:#000000; fill-opacity:0.0; 
stroke:#000000; stroke-width:0.0212; stroke-opacity:1; 
stroke-linecap:round; stroke-linejoin:round;">
</g>
<g style="fill:#000000; fill-opacity:0.0; 
stroke:#000000; stroke-width:0.1500; stroke-opacity:1; 
stroke-linecap:round; stroke-linejoin:round;">
<text x="-131.1900" y="-33.5150"
textLength="1.3043" font-size="1.7333" lengthAdjust="spacingAndGlyphs"
text-anchor="middle" opacity="0">A</text>
<g class="stroked-text"><desc>A</desc>
<path d="M-131.4995 -33.9428
L-130.8805 -33.9428
" />
<path d="M-131.6233 -33.5714
L-131.1900 -34.8714
" />
<path d="M-131.1900 -34.8714
L-130.7567 -33.5714
" />
</g></g>
<g style="fill:#000000; fill-opacity:0.0; 
stroke:#000000; stroke-width:0.0212; stroke-opacity:1; 
stroke-linecap:round; stroke-linejoin:round;">
</g>
<g style="fill:#000000; fill-opacity:0.0; 
stroke:#000000; stroke-width:0.1500; stroke-opacity:1; 
stroke-linecap:round; stroke-linejoin:round;">
<text x="-131.1900" y="16.4850"
textLength="1.4900" font-size="1.7333" lengthAdjust="spacingAndGlyphs"
text-anchor="middle" opacity="0">B</text>
<g class="stroked-text"><desc>B</desc>
<path d="M-131.0971 15.7477
L-130.9114 15.8096
" />
<path d="M-130.9114 15.8096
L-130.8495 15.8715
" />
<path d="M-130.8495 15.8715
L-130.7876 15.9953
" />
<path d="M-130.7876 15.9953
L-130.7876 16.1810
" />
<path d="M-130.7876 16.1810
L-130.8495 16.3048
" />
<path d="M-130.8495 16.3048
L-130.9114 16.3667
" />
<path d="M-130.9114 16.3667
L-131.0352 16.4286
" />
<path d="M-131.0352 16.4286
L-131.5305 16.4286
" />
<path d="M-131.5305 16.4286
L-131.5305 15.1286
" />
<path d="M-131.5305 15.1286
L-131.0971 15.1286
" />
<path d="M-131.0971 15.1286
L-130.9733 15.1905
" />
<path d="M-130.9733 15.1905
L-130.9114 15.2524
" />
<path d="M-130.9114 15.2524
L-130.8495 15.3762
" />
<path d="M-130.8495 15.3762
L-130.8495 15.5000
" />
<path d="M-130.8495 15.5000
L-130.9114 15.6238
" />
<path d="M-130.9114 15.6238
L-130.9733 15.6857
" />
<path d="M-130.9733 15.6857
L-131.0971 15.7477
" />
<path d="M-131.0971 15.7477
L-131.5305 15.7477
" />
</g></g>
<g style="fill:#000000; fill-opacity:0.0; 
stroke:#000000; stroke-width:0.0212; stroke-opacity:1; 
stroke-linecap:round; stroke-linejoin:round;">
</g>
<g style="fill:#000000; fill-opacity:0.0; 
stroke:#000000; stroke-width:0.1500; stroke-opacity:1; 
stroke-linecap:round; stroke-linejoin:round;">
<text x="-131.1900" y="66.4850"
textLength="1.4900" font-size="1.7333" lengthAdjust="spacingAndGlyphs"
text-anchor="middle" opacity="0">C</text>
<g class="stroked-text"><desc>C</desc>
<path d="M-130.7876 66.3048
L-130.8495 66.3667
" />
<path d="M-130.8495 66.3667
L-131.0352 66.4286
" />
<path d="M-131.0352 66.4286
L-131.1590 66.4286
" />
<path d="M-131.1590 66.4286
L-131.3448 66.3667
" />
<path d="M-131.3448 66.3667
L-131.4686 66.2429
" />
<path d="M-131.4686 66.2429
L-131.5305 66.1191
" />
<path d="M-131.5305 66.1191
L-131.5924 65.8715
" />
<path d="M-131.5924 65.8715
L-131.5924 65.6857
" />
<path d="M-131.5924 65.6857
L-131.5305 65.4381
" />
<path d="M-131.5305 65.4381
L-131.4686 65.3143
" />
<path d="M-131.4686 65.3143
L-131.3448 65.1905
" />
<path d="M-131.3448 65.1905
L-131.1590 65.1286
" />
<path d="M-131.1590 65.1286
L-131.0352 65.1286
" />
<path d="M-131.0352 65.1286
L-130.8495 65.1905
" />
<path d="M-130.8495 65.1905
L-130.7876 65.2524
" />
</g></g>
<g style="fill:#000000; fill-opacity:0.0; 
stroke:#000000; stroke-width:0.0212; stroke-opacity:1; 
stroke-linecap:round; stroke-linejoin:round;">
</g>
<g style="fill:#000000; fill-opacity:0.0; 
stroke:#000000; stroke-width:0.1500; stroke-opacity:1; 
stroke-linecap:round; stroke-linejoin:round;">
<text x="-131.1900" y="116.4850"
textLength="1.4900" font-size="1.7333" lengthAdjust="spacingAndGlyphs"
text-anchor="middle" opacity="0">D</text>
<g class="stroked-text"><desc>D</desc>
<path d="M-131.5305 116.4286
L-131.5305 115.1286
" />
<path d="M-131.5305 115.1286
L-131.2210 115.1286
" />
<path d="M-131.2210 115.1286
L-131.0352 115.1905
" />
<path d="M-131.0352 115.1905
L-130.9114 115.3143
" />
<path d="M-130.9114 115.3143
L-130.8495 115.4381
" />
<path d="M-130.8495 115.4381
L-130.7876 115.6857
" />
<path d="M-130.7876 115.6857
L-130.7876 115.8715
" />
<path d="M-130.7876 115.8715
L-130.8495 116.1191
" />
<path d="M-130.8495 116.1191
L-130.9114 116.2429
" />
<path d="M-130.9114 116.2429
L-131.0352 116.3667
" />
<path d="M-131.0352 116.3667
L-131.2210 116.4286
" />
<path d="M-131.2210 116.4286
L-131.5305 116.4286
" />
</g></g>
<g style="fill:#000000; fill-opacity:0.0; 
stroke:#000000; stroke-width:0.0212; stroke-opacity:1; 
stroke-linecap:round; stroke-linejoin:round;">
</g>
<g style="fill:#000000; fill-opacity:0.0; 
stroke:#000000; stroke-width:0.1500; stroke-opacity:1; 
stroke-linecap:round; stroke-linejoin:round;">
<path d="M-53.9682 -9.1650
L-55.9682 -9.1650
" />
</g>
<g style="fill:#000000; fill-opacity:0.0; 
stroke:#000000; stroke-width:0.0212; stroke-opacity:1; 
stroke-linecap:round; stroke-linejoin:round;">
</g>
<g style="fill:#000000; fill-opacity:0.0; 
stroke:#000000; stroke-width:0.1500; stroke-opacity:1; 
stroke-linecap:round; stroke-linejoin:round;">
<path d="M-53.9682 40.8350
L-55.9682 40.8350
" />
</g>
<g style="fill:#000000; fill-opacity:0.0; 
stroke:#000000; stroke-width:0.0212; stroke-opacity:1; 
stroke-linecap:round; stroke-linejoin:round;">
</g>
<g style="fill:#000000; fill-opacity:0.0; 
stroke:#000000; stroke-width:0.1500; stroke-opacity:1; 
stroke-linecap:round; stroke-linejoin:round;">
<path d="M-53.9682 90.8350
L-55.9682 90.8350
" />
</g>
<g style="fill:#000000; fill-opacity:0.0; 
stroke:#000000; stroke-width:0.0212; stroke-opacity:1; 
stroke-linecap:round; stroke-linejoin:round;">
</g>
<g style="fill:#000000; fill-opacity:0.0; 
stroke:#000000; stroke-width:0.1500; stroke-opacity:1; 
stroke-linecap:round; stroke-linejoin:round;">
<text x="-54.9682" y="-33.5150"
textLength="1.3043" font-size="1.7333" lengthAdjust="spacingAndGlyphs"
text-anchor="middle" opacity="0">A</text>
<g class="stroked-text"><desc>A</desc>
<path d="M-55.2777 -33.9428
L-54.6587 -33.9428
" />
<path d="M-55.4015 -33.5714
L-54.9682 -34.8714
" />
<path d="M-54.9682 -34.8714
L-54.5349 -33.5714
" />
</g></g>
<g style="fill:#000000; fill-opacity:0.0; 
stroke:#000000; stroke-width:0.0212; stroke-opacity:1; 
stroke-linecap:round; stroke-linejoin:round;">
</g>
<g style="fill:#000000; fill-opacity:0.0; 
stroke:#000000; stroke-width:0.1500; stroke-opacity:1; 
stroke-linecap:round; stroke-linejoin:round;">
<text x="-54.9682" y="16.4850"
textLength="1.4900" font-size="1.7333" lengthAdjust="spacingAndGlyphs"
text-anchor="middle" opacity="0">B</text>
<g class="stroked-text"><desc>B</desc>
<path d="M-54.8753 15.7477
L-54.6896 15.8096
" />
<path d="M-54.6896 15.8096
L-54.6277 15.8715
" />
<path d="M-54.6277 15.8715
L-54.5658 15.9953
" />
<path d="M-54.5658 15.9953
L-54.5658 16.1810
" />
<path d="M-54.5658 16.1810
L-54.6277 16.3048
" />
<path d="M-54.6277 16.3048
L-54.6896 16.3667
" />
<path d="M-54.6896 16.3667
L-54.8134 16.4286
" />
<path d="M-54.8134 16.4286
L-55.3087 16.4286
" />
<path d="M-55.3087 16.4286
L-55.3087 15.1286
" />
<path d="M-55.3087 15.1286
L-54.8753 15.1286
" />
<path d="M-54.8753 15.1286
L-54.7515 15.1905
" />
<path d="M-54.7515 15.1905
L-54.6896 15.2524
" />
<path d="M-54.6896 15.2524
L-54.6277 15.3762
" />
<path d="M-54.6277 15.3762
L-54.6277 15.5000
" />
<path d="M-54.6277 15.5000
L-54.6896 15.6238
" />
<path d="M-54.6896 15.6238
L-54.7515 15.6857
" />
<path d="M-54.7515 15.6857
L-54.8753 15.7477
" />
<path d="M-54.8753 15.7477
L-55.3087 15.7477
" />
</g></g>
<g style="fill:#000000; fill-opacity:0.0; 
stroke:#000000; stroke-width:0.0212; stroke-opacity:1; 
stroke-linecap:round; stroke-linejoin:round;">
</g>
<g style="fill:#000000; fill-opacity:0.0; 
stroke:#000000; stroke-width:0.1500; stroke-opacity:1; 
stroke-linecap:round; stroke-linejoin:round;">
<text x="-54.9682" y="66.4850"
textLength="1.4900" font-size="1.7333" lengthAdjust="spacingAndGlyphs"
text-anchor="middle" opacity="0">C</text>
<g class="stroked-text"><desc>C</desc>
<path d="M-54.5658 66.3048
L-54.6277 66.3667
" />
<path d="M-54.6277 66.3667
L-54.8134 66.4286
" />
<path d="M-54.8134 66.4286
L-54.9372 66.4286
" />
<path d="M-54.9372 66.4286
L-55.1230 66.3667
" />
<path d="M-55.1230 66.3667
L-55.2468 66.2429
" />
<path d="M-55.2468 66.2429
L-55.3087 66.1191
" />
<path d="M-55.3087 66.1191
L-55.3706 65.8715
" />
<path d="M-55.3706 65.8715
L-55.3706 65.6857
" />
<path d="M-55.3706 65.6857
L-55.3087 65.4381
" />
<path d="M-55.3087 65.4381
L-55.2468 65.3143
" />
<path d="M-55.2468 65.3143
L-55.1230 65.1905
" />
<path d="M-55.1230 65.1905
L-54.9372 65.1286
" />
<path d="M-54.9372 65.1286
L-54.8134 65.1286
" />
<path d="M-54.8134 65.1286
L-54.6277 65.1905
" />
<path d="M-54.6277 65.1905
L-54.5658 65.2524
" />
</g></g>
<g style="fill:#000000; fill-opacity:0.0; 
stroke:#000000; stroke-width:0.0212; stroke-opacity:1; 
stroke-linecap:round; stroke-linejoin:round;">
</g>
<g style="fill:#000000; fill-opacity:0.0; 
stroke:#000000; stroke-width:0.1500; stroke-opacity:1; 
stroke-linecap:round; stroke-linejoin:round;">
<text x="-54.9682" y="116.4850"
textLength="1.4900" font-size="1.7333" lengthAdjust="spacingAndGlyphs"
text-anchor="middle" opacity="0">D</text>
<g class="stroked-text"><desc>D</desc>
<path d="M-55.3087 116.4286
L-55.3087 115.1286
" />
<path d="M-55.3087 115.1286
L-54.9992 115.1286
" />
<path d="M-54.9992 115.1286
L-54.8134 115.1905
" />
<path d="M-54.8134 115.1905
L-54.6896 115.3143
" />
<path d="M-54.6896 115.3143
L-54.6277 115.4381
" />
<path d="M-54.6277 115.4381
L-54.5658 115.6857
" />
<path d="M-54.5658 115.6857
L-54.5658 115.8715
" />
<path d="M-54.5658 115.8715
L-54.6277 116.1191
" />
<path d="M-54.6277 116.1191
L-54.6896 116.2429
" />
<path d="M-54.6896 116.2429
L-54.8134 116.3667
" />
<path d="M-54.8134 116.3667
L-54.9992 116.4286
" />
<path d="M-54.9992 116.4286
L-55.3087 116.4286
" />
</g></g>
<g style="fill:#000000; fill-opacity:0.0; 
stroke:#000000; stroke-width:0.0212; stroke-opacity:1; 
stroke-linecap:round; stroke-linejoin:round;">
</g>
<g style="fill:#000000; fill-opacity:0.0; 
stroke:#000000; stroke-width:0.1500; stroke-opacity:1; 
stroke-linecap:round; stroke-linejoin:round;">
<text x="-140.9682" y="121.8728"
textLength="7.0071" font-size="2.0000" lengthAdjust="spacingAndGlyphs"
text-anchor="start" opacity="0">Date: </text>
<g class="stroked-text"><desc>Date: </desc>
<path d="M-140.5124 121.8089
L-140.5124 120.3089
" />
<path d="M-140.5124 120.3089
L-140.1552 120.3089
" />
<path d="M-140.1552 120.3089
L-139.9409 120.3804
" />
<path d="M-139.9409 120.3804
L-139.7981 120.5232
" />
<path d="M-139.7981 120.5232
L-139.7267 120.6661
" />
<path d="M-139.7267 120.6661
L-139.6552 120.9518
" />
<path d="M-139.6552 120.9518
L-139.6552 121.1661
" />
<path d="M-139.6552 121.1661
L-139.7267 121.4518
" />
<path d="M-139.7267 121.4518
L-139.7981 121.5946
" />
<path d="M-139.7981 121.5946
L-139.9409 121.7375
" />
<path d="M-139.9409 121.7375
L-140.1552 121.8089
" />
<path d="M-140.1552 121.8089
L-140.5124 121.8089
" />
<path d="M-138.3695 121.8089
L-138.3695 121.0232
" />
<path d="M-138.3695 121.0232
L-138.4409 120.8804
" />
<path d="M-138.4409 120.8804
L-138.5838 120.8089
" />
<path d="M-138.5838 120.8089
L-138.8695 120.8089
" />
<path d="M-138.8695 120.8089
L-139.0124 120.8804
" />
<path d="M-138.3695 121.7375
L-138.5124 121.8089
" />
<path d="M-138.5124 121.8089
L-138.8695 121.8089
" />
<path d="M-138.8695 121.8089
L-139.0124 121.7375
" />
<path d="M-139.0124 121.7375
L-139.0838 121.5946
" />
<path d="M-139.0838 121.5946
L-139.0838 121.4518
" />
<path d="M-139.0838 121.4518
L-139.0124 121.3089
" />
<path d="M-139.0124 121.3089
L-138.8695 121.2375
" />
<path d="M-138.8695 121.2375
L-138.5124 121.2375
" />
<path d="M-138.5124 121.2375
L-138.3695 121.1661
" />
<path d="M-137.8695 120.8089
L-137.2981 120.8089
" />
<path d="M-137.6552 120.3089
L-137.6552 121.5946
" />
<path d="M-137.6552 121.5946
L-137.5838 121.7375
" />
<path d="M-137.5838 121.7375
L-137.4409 121.8089
" />
<path d="M-137.4409 121.8089
L-137.2981 121.8089
" />
<path d="M-136.2267 121.7375
L-136.3695 121.8089
" />
<path d="M-136.3695 121.8089
L-136.6552 121.8089
" />
<path d="M-136.6552 121.8089
L-136.7981 121.7375
" />
<path d="M-136.7981 121.7375
L-136.8695 121.5946
" />
<path d="M-136.8695 121.5946
L-136.8695 121.0232
" />
<path d="M-136.8695 121.0232
L-136.7981 120.8804
" />
<path d="M-136.7981 120.8804
L-136.6552 120.8089
" />
<path d="M-136.6552 120.8089
L-136.3695 120.8089
" />
<path d="M-136.3695 120.8089
L-136.2267 120.8804
" />
<path d="M-136.2267 120.8804
L-136.1552 121.0232
" />
<path d="M-136.1552 121.0232
L-136.1552 121.1661
" />
<path d="M-136.1552 121.1661
L-136.8695 121.3089
" />
<path d="M-135.5124 121.6661
L-135.4409 121.7375
" />
<path d="M-135.4409 121.7375
L-135.5124 121.8089
" />
<path d="M-135.5124 121.8089
L-135.5838 121.7375
" />
<path d="M-135.5838 121.7375
L-135.5124 121.6661
" />
<path d="M-135.5124 121.6661
L-135.5124 121.8089
" />
<path d="M-135.5124 120.8804
L-135.4409 120.9518
" />
<path d="M-135.4409 120.9518
L-135.5124 121.0232
" />
<path d="M-135.5124 121.0232
L-135.5838 120.9518
" />
<path d="M-135.5838 120.9518
L-135.5124 120.8804
" />
<path d="M-135.5124 120.8804
L-135.5124 121.0232
" />
</g></g>
<g style="fill:#000000; fill-opacity:0.0; 
stroke:#000000; stroke-width:0.0212; stroke-opacity:1; 
stroke-linecap:round; stroke-linejoin:round;">
</g>
<g style="fill:#000000; fill-opacity:0.0; 
stroke:#000000; stroke-width:0.1500; stroke-opacity:1; 
stroke-linecap:round; stroke-linejoin:round;">
<path d="M-163.9682 122.5228
L-55.9682 122.5228
" />
</g>
<g style="fill:#000000; fill-opacity:0.0; 
stroke:#000000; stroke-width:0.0212; stroke-opacity:1; 
stroke-linecap:round; stroke-linejoin:round;">
</g>
<g style="fill:#000000; fill-opacity:0.0; 
stroke:#000000; stroke-width:0.1500; stroke-opacity:1; 
stroke-linecap:round; stroke-linejoin:round;">
<text x="-162.9682" y="124.6728"
textLength="33.7214" font-size="2.0000" lengthAdjust="spacingAndGlyphs"
text-anchor="start" opacity="0">KiCad E.D.A.  kicad-cli 7.0.9</text>
<g class="stroked-text"><desc>KiCad E.D.A.  kicad-cli 7.0.9</desc>
<path d="M-162.5124 124.6089
L-162.5124 123.1089
" />
<path d="M-161.6552 124.6089
L-162.2981 123.7518
" />
<path d="M-161.6552 123.1089
L-162.5124 123.9661
" />
<path d="M-161.0124 124.6089
L-161.0124 123.6089
" />
<path d="M-161.0124 123.1089
L-161.0838 123.1804
" />
<path d="M-161.0838 123.1804
L-161.0124 123.2518
" />
<path d="M-161.0124 123.2518
L-160.9409 123.1804
" />
<path d="M-160.9409 123.1804
L-161.0124 123.1089
" />
<path d="M-161.0124 123.1089
L-161.0124 123.2518
" />
<path d="M-159.4409 124.4661
L-159.5124 124.5375
" />
<path d="M-159.5124 124.5375
L-159.7267 124.6089
" />
<path d="M-159.7267 124.6089
L-159.8695 124.6089
" />
<path d="M-159.8695 124.6089
L-160.0838 124.5375
" />
<path d="M-160.0838 124.5375
L-160.2267 124.3946
" />
<path d="M-160.2267 124.3946
L-160.2981 124.2518
" />
<path d="M-160.2981 124.2518
L-160.3695 123.9661
" />
<path d="M-160.3695 123.9661
L-160.3695 123.7518
" />
<path d="M-160.3695 123.7518
L-160.2981 123.4661
" />
<path d="M-160.2981 123.4661
L-160.2267 123.3232
" />
<path d="M-160.2267 123.3232
L-160.0838 123.1804
" />
<path d="M-160.0838 123.1804
L-159.8695 123.1089
" />
<path d="M-159.8695 123.1089
L-159.7267 123.1089
" />
<path d="M-159.7267 123.1089
L-159.5124 123.1804
" />
<path d="M-159.5124 123.1804
L-159.4409 123.2518
" />
<path d="M-158.1552 124.6089
L-158.1552 123.8232
" />
<path d="M-158.1552 123.8232
L-158.2267 123.6804
" />
<path d="M-158.2267 123.6804
L-158.3695 123.6089
" />
<path d="M-158.3695 123.6089
L-158.6552 123.6089
" />
<path d="M-158.6552 123.6089
L-158.7981 123.6804
" />
<path d="M-158.1552 124.5375
L-158.2981 124.6089
" />
<path d="M-158.2981 124.6089
L-158.6552 124.6089
" />
<path d="M-158.6552 124.6089
L-158.7981 124.5375
" />
<path d="M-158.7981 124.5375
L-158.8695 124.3946
" />
<path d="M-158.8695 124.3946
L-158.8695 124.2518
" />
<path d="M-158.8695 124.2518
L-158.7981 124.1089
" />
<path d="M-158.7981 124.1089
L-158.6552 124.0375
" />
<path d="M-158.6552 124.0375
L-158.2981 124.0375
" />
<path d="M-158.2981 124.0375
L-158.1552 123.9661
" />
<path d="M-156.7981 124.6089
L-156.7981 123.1089
" />
<path d="M-156.7981 124.5375
L-156.9409 124.6089
" />
<path d="M-156.9409 124.6089
L-157.2267 124.6089
" />
<path d="M-157.2267 124.6089
L-157.3695 124.5375
" />
<path d="M-157.3695 124.5375
L-157.4409 124.4661
" />
<path d="M-157.4409 124.4661
L-157.5124 124.3232
" />
<path d="M-157.5124 124.3232
L-157.5124 123.8946
" />
<path d="M-157.5124 123.8946
L-157.4409 123.7518
" />
<path d="M-157.4409 123.7518
L-157.3695 123.6804
" />
<path d="M-157.3695 123.6804
L-157.2267 123.6089
" />
<path d="M-157.2267 123.6089
L-156.9409 123.6089
" />
<path d="M-156.9409 123.6089
L-156.7981 123.6804
" />
<path d="M-154.9409 123.8232
L-154.4409 123.8232
" />
<path d="M-154.2267 124.6089
L-154.9409 124.6089
" />
<path d="M-154.9409 124.6089
L-154.9409 123.1089
" />
<path d="M-154.9409 123.1089
L-154.2267 123.1089
" />
<path d="M-153.5838 124.4661
L-153.5124 124.5375
" />
<path d="M-153.5124 124.5375
L-153.5838 124.6089
" />
<path d="M-153.5838 124.6089
L-153.6552 124.5375
" />
<path d="M-153.6552 124.5375
L-153.5838 124.4661
" />
<path d="M-153.5838 124.4661
L-153.5838 124.6089
" />
<path d="M-152.8695 124.6089
L-152.8695 123.1089
" />
<path d="M-152.8695 123.1089
L-152.5124 123.1089
" />
<path d="M-152.5124 123.1089
L-152.2981 123.1804
" />
<path d="M-152.2981 123.1804
L-152.1552 123.3232
" />
<path d="M-152.1552 123.3232
L-152.0838 123.4661
" />
<path d="M-152.0838 123.4661
L-152.0124 123.7518
" />
<path d="M-152.0124 123.7518
L-152.0124 123.9661
" />
<path d="M-152.0124 123.9661
L-152.0838 124.2518
" />
<path d="M-152.0838 124.2518
L-152.1552 124.3946
" />
<path d="M-152.1552 124.3946
L-152.2981 124.5375
" />
<path d="M-152.2981 124.5375
L-152.5124 124.6089
" />
<path d="M-152.5124 124.6089
L-152.8695 124.6089
" />
<path d="M-151.3695 124.4661
L-151.2981 124.5375
" />
<path d="M-151.2981 124.5375
L-151.3695 124.6089
" />
<path d="M-151.3695 124.6089
L-151.4409 124.5375
" />
<path d="M-151.4409 124.5375
L-151.3695 124.4661
" />
<path d="M-151.3695 124.4661
L-151.3695 124.6089
" />
<path d="M-150.7267 124.1804
L-150.0124 124.1804
" />
<path d="M-150.8695 124.6089
L-150.3695 123.1089
" />
<path d="M-150.3695 123.1089
L-149.8695 124.6089
" />
<path d="M-149.3695 124.4661
L-149.2981 124.5375
" />
<path d="M-149.2981 124.5375
L-149.3695 124.6089
" />
<path d="M-149.3695 124.6089
L-149.4409 124.5375
" />
<path d="M-149.4409 124.5375
L-149.3695 124.4661
" />
<path d="M-149.3695 124.4661
L-149.3695 124.6089
" />
<path d="M-146.3695 124.6089
L-146.3695 123.1089
" />
<path d="M-146.2267 124.0375
L-145.7981 124.6089
" />
<path d="M-145.7981 123.6089
L-146.3695 124.1804
" />
<path d="M-145.1552 124.6089
L-145.1552 123.6089
" />
<path d="M-145.1552 123.1089
L-145.2267 123.1804
" />
<path d="M-145.2267 123.1804
L-145.1552 123.2518
" />
<path d="M-145.1552 123.2518
L-145.0838 123.1804
" />
<path d="M-145.0838 123.1804
L-145.1552 123.1089
" />
<path d="M-145.1552 123.1089
L-145.1552 123.2518
" />
<path d="M-143.7981 124.5375
L-143.9409 124.6089
" />
<path d="M-143.9409 124.6089
L-144.2267 124.6089
" />
<path d="M-144.2267 124.6089
L-144.3695 124.5375
" />
<path d="M-144.3695 124.5375
L-144.4409 124.4661
" />
<path d="M-144.4409 124.4661
L-144.5124 124.3232
" />
<path d="M-144.5124 124.3232
L-144.5124 123.8946
" />
<path d="M-144.5124 123.8946
L-144.4409 123.7518
" />
<path d="M-144.4409 123.7518
L-144.3695 123.6804
" />
<path d="M-144.3695 123.6804
L-144.2267 123.6089
" />
<path d="M-144.2267 123.6089
L-143.9409 123.6089
" />
<path d="M-143.9409 123.6089
L-143.7981 123.6804
" />
<path d="M-142.5124 124.6089
L-142.5124 123.8232
" />
<path d="M-142.5124 123.8232
L-142.5838 123.6804
" />
<path d="M-142.5838 123.6804
L-142.7267 123.6089
" />
<path d="M-142.7267 123.6089
L-143.0124 123.6089
" />
<path d="M-143.0124 123.6089
L-143.1552 123.6804
" />
<path d="M-142.5124 124.5375
L-142.6552 124.6089
" />
<path d="M-142.6552 124.6089
L-143.0124 124.6089
" />
<path d="M-143.0124 124.6089
L-143.1552 124.5375
" />
<path d="M-143.1552 124.5375
L-143.2267 124.3946
" />
<path d="M-143.2267 124.3946
L-143.2267 124.2518
" />
<path d="M-143.2267 124.2518
L-143.1552 124.1089
" />
<path d="M-143.1552 124.1089
L-143.0124 124.0375
" />
<path d="M-143.0124 124.0375
L-142.6552 124.0375
" />
<path d="M-142.6552 124.0375
L-142.5124 123.9661
" />
<path d="M-141.1552 124.6089
L-141.1552 123.1089
" />
<path d="M-141.1552 124.5375
L-141.2981 124.6089
" />
<path d="M-141.2981 124.6089
L-141.5838 124.6089
" />
<path d="M-141.5838 124.6089
L-141.7267 124.5375
" />
<path d="M-141.7267 124.5375
L-141.7981 124.4661
" />
<path d="M-141.7981 124.4661
L-141.8695 124.3232
" />
<path d="M-141.8695 124.3232
L-141.8695 123.8946
" />
<path d="M-141.8695 123.8946
L-141.7981 123.7518
" />
<path d="M-141.7981 123.7518
L-141.7267 123.6804
" />
<path d="M-141.7267 123.6804
L-141.5838 123.6089
" />
<path d="M-141.5838 123.6089
L-141.2981 123.6089
" />
<path d="M-141.2981 123.6089
L-141.1552 123.6804
" />
<path d="M-140.4409 124.0375
L-139.2981 124.0375
" />
<path d="M-137.9409 124.5375
L-138.0838 124.6089
" />
<path d="M-138.0838 124.6089
L-138.3695 124.6089
" />
<path d="M-138.3695 124.6089
L-138.5124 124.5375
" />
<path d="M-138.5124 124.5375
L-138.5838 124.4661
" />
<path d="M-138.5838 124.4661
L-138.6552 124.3232
" />
<path d="M-138.6552 124.3232
L-138.6552 123.8946
" />
<path d="M-138.6552 123.8946
L-138.5838 123.7518
" />
<path d="M-138.5838 123.7518
L-138.5124 123.6804
" />
<path d="M-138.5124 123.6804
L-138.3695 123.6089
" />
<path d="M-138.3695 123.6089
L-138.0838 123.6089
" />
<path d="M-138.0838 123.6089
L-137.9409 123.6804
" />
<path d="M-137.0838 124.6089
L-137.2267 124.5375
" />
<path d="M-137.2267 124.5375
L-137.2981 124.3946
" />
<path d="M-137.2981 124.3946
L-137.2981 123.1089
" />
<path d="M-136.5124 124.6089
L-136.5124 123.6089
" />
<path d="M-136.5124 123.1089
L-136.5838 123.1804
" />
<path d="M-136.5838 123.1804
L-136.5124 123.2518
" />
<path d="M-136.5124 123.2518
L-136.4409 123.1804
" />
<path d="M-136.4409 123.1804
L-136.5124 123.1089
" />
<path d="M-136.5124 123.1089
L-136.5124 123.2518
" />
<path d="M-134.7981 123.1089
L-133.7981 123.1089
" />
<path d="M-133.7981 123.1089
L-134.4409 124.6089
" />
<path d="M-133.2267 124.4661
L-133.1552 124.5375
" />
<path d="M-133.1552 124.5375
L-133.2267 124.6089
" />
<path d="M-133.2267 124.6089
L-133.2981 124.5375
" />
<path d="M-133.2981 124.5375
L-133.2267 124.4661
" />
<path d="M-133.2267 124.4661
L-133.2267 124.6089
" />
<path d="M-132.2267 123.1089
L-132.0838 123.1089
" />
<path d="M-132.0838 123.1089
L-131.9409 123.1804
" />
<path d="M-131.9409 123.1804
L-131.8695 123.2518
" />
<path d="M-131.8695 123.2518
L-131.7981 123.3946
" />
<path d="M-131.7981 123.3946
L-131.7267 123.6804
" />
<path d="M-131.7267 123.6804
L-131.7267 124.0375
" />
<path d="M-131.7267 124.0375
L-131.7981 124.3232
" />
<path d="M-131.7981 124.3232
L-131.8695 124.4661
" />
<path d="M-131.8695 124.4661
L-131.9409 124.5375
" />
<path d="M-131.9409 124.5375
L-132.0838 124.6089
" />
<path d="M-132.0838 124.6089
L-132.2267 124.6089
" />
<path d="M-132.2267 124.6089
L-132.3695 124.5375
" />
<path d="M-132.3695 124.5375
L-132.4409 124.4661
" />
<path d="M-132.4409 124.4661
L-132.5124 124.3232
" />
<path d="M-132.5124 124.3232
L-132.5838 124.0375
" />
<path d="M-132.5838 124.0375
L-132.5838 123.6804
" />
<path d="M-132.5838 123.6804
L-132.5124 123.3946
" />
<path d="M-132.5124 123.3946
L-132.4409 123.2518
" />
<path d="M-132.4409 123.2518
L-132.3695 123.1804
" />
<path d="M-132.3695 123.1804
L-132.2267 123.1089
" />
<path d="M-131.0838 124.4661
L-131.0124 124.5375
" />
<path d="M-131.0124 124.5375
L-131.0838 124.6089
" />
<path d="M-131.0838 124.6089
L-131.1552 124.5375
" />
<path d="M-131.1552 124.5375
L-131.0838 124.4661
" />
<path d="M-131.0838 124.4661
L-131.0838 124.6089
" />
<path d="M-130.2981 124.6089
L-130.0124 124.6089
" />
<path d="M-130.0124 124.6089
L-129.8695 124.5375
" />
<path d="M-129.8695 124.5375
L-129.7981 124.4661
" />
<path d="M-129.7981 124.4661
L-129.6552 124.2518
" />
<path d="M-129.6552 124.2518
L-129.5838 123.9661
" />
<path d="M-129.5838 123.9661
L-129.5838 123.3946
" />
<path d="M-129.5838 123.3946
L-129.6552 123.2518
" />
<path d="M-129.6552 123.2518
L-129.7267 123.1804
" />
<path d="M-129.7267 123.1804
L-129.8695 123.1089
" />
<path d="M-129.8695 123.1089
L-130.1552 123.1089
" />
<path d="M-130.1552 123.1089
L-130.2981 123.1804
" />
<path d="M-130.2981 123.1804
L-130.3695 123.2518
" />
<path d="M-130.3695 123.2518
L-130.4409 123.3946
" />
<path d="M-130.4409 123.3946
L-130.4409 123.7518
" />
<path d="M-130.4409 123.7518
L-130.3695 123.8946
" />
<path d="M-130.3695 123.8946
L-130.2981 123.9661
" />
<path d="M-130.2981 123.9661
L-130.1552 124.0375
" />
<path d="M-130.1552 124.0375
L-129.8695 124.0375
" />
<path d="M-129.8695 124.0375
L-129.7267 123.9661
" />
<path d="M-129.7267 123.9661
L-129.6552 123.8946
" />
<path d="M-129.6552 123.8946
L-129.5838 123.7518
" />
</g></g>
<g style="fill:#000000; fill-opacity:0.0; 
stroke:#000000; stroke-width:0.0212; stroke-opacity:1; 
stroke-linecap:round; stroke-linejoin:round;">
</g>
<g style="fill:#000000; fill-opacity:0.0; 
stroke:#000000; stroke-width:0.1500; stroke-opacity:1; 
stroke-linecap:round; stroke-linejoin:round;">
<path d="M-163.9682 119.5228
L-55.9682 119.5228
" />
</g>
<g style="fill:#000000; fill-opacity:0.0; 
stroke:#000000; stroke-width:0.0212; stroke-opacity:1; 
stroke-linecap:round; stroke-linejoin:round;">
</g>
<g style="fill:#000000; fill-opacity:0.0; 
stroke:#000000; stroke-width:0.3000; stroke-opacity:1; 
stroke-linecap:round; stroke-linejoin:round;">
<text x="-77.9682" y="121.8728"
textLength="6.3857" font-size="2.0000" lengthAdjust="spacingAndGlyphs"
text-anchor="start" opacity="0">Rev: </text>
<g class="stroked-text"><desc>Rev: </desc>
<path d="M-76.5565 121.8011
L-77.0565 121.0868
" />
<path d="M-77.4137 121.8011
L-77.4137 120.3011
" />
<path d="M-77.4137 120.3011
L-76.8423 120.3011
" />
<path d="M-76.8423 120.3011
L-76.6994 120.3726
" />
<path d="M-76.6994 120.3726
L-76.6280 120.4440
" />
<path d="M-76.6280 120.4440
L-76.5565 120.5868
" />
<path d="M-76.5565 120.5868
L-76.5565 120.8011
" />
<path d="M-76.5565 120.8011
L-76.6280 120.9440
" />
<path d="M-76.6280 120.9440
L-76.6994 121.0154
" />
<path d="M-76.6994 121.0154
L-76.8423 121.0868
" />
<path d="M-76.8423 121.0868
L-77.4137 121.0868
" />
<path d="M-75.3423 121.7297
L-75.4851 121.8011
" />
<path d="M-75.4851 121.8011
L-75.7708 121.8011
" />
<path d="M-75.7708 121.8011
L-75.9137 121.7297
" />
<path d="M-75.9137 121.7297
L-75.9851 121.5868
" />
<path d="M-75.9851 121.5868
L-75.9851 121.0154
" />
<path d="M-75.9851 121.0154
L-75.9137 120.8726
" />
<path d="M-75.9137 120.8726
L-75.7708 120.8011
" />
<path d="M-75.7708 120.8011
L-75.4851 120.8011
" />
<path d="M-75.4851 120.8011
L-75.3423 120.8726
" />
<path d="M-75.3423 120.8726
L-75.2708 121.0154
" />
<path d="M-75.2708 121.0154
L-75.2708 121.1583
" />
<path d="M-75.2708 121.1583
L-75.9851 121.3011
" />
<path d="M-74.7708 120.8011
L-74.4137 121.8011
" />
<path d="M-74.4137 121.8011
L-74.0565 120.8011
" />
<path d="M-73.4851 121.6583
L-73.4137 121.7297
" />
<path d="M-73.4137 121.7297
L-73.4851 121.8011
" />
<path d="M-73.4851 121.8011
L-73.5565 121.7297
" />
<path d="M-73.5565 121.7297
L-73.4851 121.6583
" />
<path d="M-73.4851 121.6583
L-73.4851 121.8011
" />
<path d="M-73.4851 120.8726
L-73.4137 120.9440
" />
<path d="M-73.4137 120.9440
L-73.4851 121.0154
" />
<path d="M-73.4851 121.0154
L-73.5565 120.9440
" />
<path d="M-73.5565 120.9440
L-73.4851 120.8726
" />
<path d="M-73.4851 120.8726
L-73.4851 121.0154
" />
</g></g>
<g style="fill:#000000; fill-opacity:0.0; 
stroke:#000000; stroke-width:0.0212; stroke-opacity:1; 
stroke-linecap:round; stroke-linejoin:round;">
</g>
<g style="fill:#000000; fill-opacity:0.0; 
stroke:#000000; stroke-width:0.1500; stroke-opacity:1; 
stroke-linecap:round; stroke-linejoin:round;">
<text x="-162.9682" y="121.8728"
textLength="11.6500" font-size="2.0000" lengthAdjust="spacingAndGlyphs"
text-anchor="start" opacity="0">Size: User</text>
<g class="stroked-text"><desc>Size: User</desc>
<path d="M-162.5838 121.7375
L-162.3695 121.8089
" />
<path d="M-162.3695 121.8089
L-162.0124 121.8089
" />
<path d="M-162.0124 121.8089
L-161.8695 121.7375
" />
<path d="M-161.8695 121.7375
L-161.7981 121.6661
" />
<path d="M-161.7981 121.6661
L-161.7267 121.5232
" />
<path d="M-161.7267 121.5232
L-161.7267 121.3804
" />
<path d="M-161.7267 121.3804
L-161.7981 121.2375
" />
<path d="M-161.7981 121.2375
L-161.8695 121.1661
" />
<path d="M-161.8695 121.1661
L-162.0124 121.0946
" />
<path d="M-162.0124 121.0946
L-162.2981 121.0232
" />
<path d="M-162.2981 121.0232
L-162.4409 120.9518
" />
<path d="M-162.4409 120.9518
L-162.5124 120.8804
" />
<path d="M-162.5124 120.8804
L-162.5838 120.7375
" />
<path d="M-162.5838 120.7375
L-162.5838 120.5946
" />
<path d="M-162.5838 120.5946
L-162.5124 120.4518
" />
<path d="M-162.5124 120.4518
L-162.4409 120.3804
" />
<path d="M-162.4409 120.3804
L-162.2981 120.3089
" />
<path d="M-162.2981 120.3089
L-161.9409 120.3089
" />
<path d="M-161.9409 120.3089
L-161.7267 120.3804
" />
<path d="M-161.0838 121.8089
L-161.0838 120.8089
" />
<path d="M-161.0838 120.3089
L-161.1552 120.3804
" />
<path d="M-161.1552 120.3804
L-161.0838 120.4518
" />
<path d="M-161.0838 120.4518
L-161.0124 120.3804
" />
<path d="M-161.0124 120.3804
L-161.0838 120.3089
" />
<path d="M-161.0838 120.3089
L-161.0838 120.4518
" />
<path d="M-160.5124 120.8089
L-159.7267 120.8089
" />
<path d="M-159.7267 120.8089
L-160.5124 121.8089
" />
<path d="M-160.5124 121.8089
L-159.7267 121.8089
" />
<path d="M-158.5838 121.7375
L-158.7267 121.8089
" />
<path d="M-158.7267 121.8089
L-159.0124 121.8089
" />
<path d="M-159.0124 121.8089
L-159.1552 121.7375
" />
<path d="M-159.1552 121.7375
L-159.2267 121.5946
" />
<path d="M-159.2267 121.5946
L-159.2267 121.0232
" />
<path d="M-159.2267 121.0232
L-159.1552 120.8804
" />
<path d="M-159.1552 120.8804
L-159.0124 120.8089
" />
<path d="M-159.0124 120.8089
L-158.7267 120.8089
" />
<path d="M-158.7267 120.8089
L-158.5838 120.8804
" />
<path d="M-158.5838 120.8804
L-158.5124 121.0232
" />
<path d="M-158.5124 121.0232
L-158.5124 121.1661
" />
<path d="M-158.5124 121.1661
L-159.2267 121.3089
" />
<path d="M-157.8695 121.6661
L-157.7981 121.7375
" />
<path d="M-157.7981 121.7375
L-157.8695 121.8089
" />
<path d="M-157.8695 121.8089
L-157.9409 121.7375
" />
<path d="M-157.9409 121.7375
L-157.8695 121.6661
" />
<path d="M-157.8695 121.6661
L-157.8695 121.8089
" />
<path d="M-157.8695 120.8804
L-157.7981 120.9518
" />
<path d="M-157.7981 120.9518
L-157.8695 121.0232
" />
<path d="M-157.8695 121.0232
L-157.9409 120.9518
" />
<path d="M-157.9409 120.9518
L-157.8695 120.8804
" />
<path d="M-157.8695 120.8804
L-157.8695 121.0232
" />
<path d="M-156.0124 120.3089
L-156.0124 121.5232
" />
<path d="M-156.0124 121.5232
L-155.9409 121.6661
" />
<path d="M-155.9409 121.6661
L-155.8695 121.7375
" />
<path d="M-155.8695 121.7375
L-155.7267 121.8089
" />
<path d="M-155.7267 121.8089
L-155.4409 121.8089
" />
<path d="M-155.4409 121.8089
L-155.2981 121.7375
" />
<path d="M-155.2981 121.7375
L-155.2267 121.6661
" />
<path d="M-155.2267 121.6661
L-155.1552 121.5232
" />
<path d="M-155.1552 121.5232
L-155.1552 120.3089
" />
<path d="M-154.5124 121.7375
L-154.3695 121.8089
" />
<path d="M-154.3695 121.8089
L-154.0838 121.8089
" />
<path d="M-154.0838 121.8089
L-153.9409 121.7375
" />
<path d="M-153.9409 121.7375
L-153.8695 121.5946
" />
<path d="M-153.8695 121.5946
L-153.8695 121.5232
" />
<path d="M-153.8695 121.5232
L-153.9409 121.3804
" />
<path d="M-153.9409 121.3804
L-154.0838 121.3089
" />
<path d="M-154.0838 121.3089
L-154.2981 121.3089
" />
<path d="M-154.2981 121.3089
L-154.4409 121.2375
" />
<path d="M-154.4409 121.2375
L-154.5124 121.0946
" />
<path d="M-154.5124 121.0946
L-154.5124 121.0232
" />
<path d="M-154.5124 121.0232
L-154.4409 120.8804
" />
<path d="M-154.4409 120.8804
L-154.2981 120.8089
" />
<path d="M-154.2981 120.8089
L-154.0838 120.8089
" />
<path d="M-154.0838 120.8089
L-153.9409 120.8804
" />
<path d="M-152.6552 121.7375
L-152.7981 121.8089
" />
<path d="M-152.7981 121.8089
L-153.0838 121.8089
" />
<path d="M-153.0838 121.8089
L-153.2267 121.7375
" />
<path d="M-153.2267 121.7375
L-153.2981 121.5946
" />
<path d="M-153.2981 121.5946
L-153.2981 121.0232
" />
<path d="M-153.2981 121.0232
L-153.2267 120.8804
" />
<path d="M-153.2267 120.8804
L-153.0838 120.8089
" />
<path d="M-153.0838 120.8089
L-152.7981 120.8089
" />
<path d="M-152.7981 120.8089
L-152.6552 120.8804
" />
<path d="M-152.6552 120.8804
L-152.5838 121.0232
" />
<path d="M-152.5838 121.0232
L-152.5838 121.1661
" />
<path d="M-152.5838 121.1661
L-153.2981 121.3089
" />
<path d="M-151.9409 121.8089
L-151.9409 120.8089
" />
<path d="M-151.9409 121.0946
L-151.8695 120.9518
" />
<path d="M-151.8695 120.9518
L-151.7981 120.8804
" />
<path d="M-151.7981 120.8804
L-151.6552 120.8089
" />
<path d="M-151.6552 120.8089
L-151.5124 120.8089
" />
</g></g>
<g style="fill:#000000; fill-opacity:0.0; 
stroke:#000000; stroke-width:0.0212; stroke-opacity:1; 
stroke-linecap:round; stroke-linejoin:round;">
</g>
<g style="fill:#000000; fill-opacity:0.0; 
stroke:#000000; stroke-width:0.1500; stroke-opacity:1; 
stroke-linecap:round; stroke-linejoin:round;">
<text x="-77.9682" y="124.6728"
textLength="8.5071" font-size="2.0000" lengthAdjust="spacingAndGlyphs"
text-anchor="start" opacity="0">Id: 1/1</text>
<g class="stroked-text"><desc>Id: 1/1</desc>
<path d="M-77.5124 124.6089
L-77.5124 123.1089
" />
<path d="M-76.1552 124.6089
L-76.1552 123.1089
" />
<path d="M-76.1552 124.5375
L-76.2981 124.6089
" />
<path d="M-76.2981 124.6089
L-76.5838 124.6089
" />
<path d="M-76.5838 124.6089
L-76.7267 124.5375
" />
<path d="M-76.7267 124.5375
L-76.7981 124.4661
" />
<path d="M-76.7981 124.4661
L-76.8695 124.3232
" />
<path d="M-76.8695 124.3232
L-76.8695 123.8946
" />
<path d="M-76.8695 123.8946
L-76.7981 123.7518
" />
<path d="M-76.7981 123.7518
L-76.7267 123.6804
" />
<path d="M-76.7267 123.6804
L-76.5838 123.6089
" />
<path d="M-76.5838 123.6089
L-76.2981 123.6089
" />
<path d="M-76.2981 123.6089
L-76.1552 123.6804
" />
<path d="M-75.4409 124.4661
L-75.3695 124.5375
" />
<path d="M-75.3695 124.5375
L-75.4409 124.6089
" />
<path d="M-75.4409 124.6089
L-75.5124 124.5375
" />
<path d="M-75.5124 124.5375
L-75.4409 124.4661
" />
<path d="M-75.4409 124.4661
L-75.4409 124.6089
" />
<path d="M-75.4409 123.6804
L-75.3695 123.7518
" />
<path d="M-75.3695 123.7518
L-75.4409 123.8232
" />
<path d="M-75.4409 123.8232
L-75.5124 123.7518
" />
<path d="M-75.5124 123.7518
L-75.4409 123.6804
" />
<path d="M-75.4409 123.6804
L-75.4409 123.8232
" />
<path d="M-72.7981 124.6089
L-73.6552 124.6089
" />
<path d="M-73.2267 124.6089
L-73.2267 123.1089
" />
<path d="M-73.2267 123.1089
L-73.3695 123.3232
" />
<path d="M-73.3695 123.3232
L-73.5124 123.4661
" />
<path d="M-73.5124 123.4661
L-73.6552 123.5375
" />
<path d="M-71.0838 123.0375
L-72.3695 124.9661
" />
<path d="M-69.7981 124.6089
L-70.6552 124.6089
" />
<path d="M-70.2267 124.6089
L-70.2267 123.1089
" />
<path d="M-70.2267 123.1089
L-70.3695 123.3232
" />
<path d="M-70.3695 123.3232
L-70.5124 123.4661
" />
<path d="M-70.5124 123.4661
L-70.6552 123.5375
" />
</g></g>
<g style="fill:#000000; fill-opacity:0.0; 
stroke:#000000; stroke-width:0.0212; stroke-opacity:1; 
stroke-linecap:round; stroke-linejoin:round;">
</g>
<g style="fill:#000000; fill-opacity:0.0; 
stroke:#000000; stroke-width:0.1500; stroke-opacity:1; 
stroke-linecap:round; stroke-linejoin:round;">
<path d="M-163.9682 115.5228
L-55.9682 115.5228
" />
</g>
<g style="fill:#000000; fill-opacity:0.0; 
stroke:#000000; stroke-width:0.0212; stroke-opacity:1; 
stroke-linecap:round; stroke-linejoin:round;">
</g>
<g style="fill:#000000; fill-opacity:0.0; 
stroke:#000000; stroke-width:0.4000; stroke-opacity:1; 
stroke-linecap:round; stroke-linejoin:round;">
<text x="-162.9682" y="118.3228"
textLength="9.6571" font-size="2.6667" lengthAdjust="spacingAndGlyphs"
text-anchor="start" opacity="0">Title: </text>
<g class="stroked-text"><desc>Title: </desc>
<path d="M-162.2765 116.2272
L-161.1336 116.2272
" />
<path d="M-161.9550 118.2272
L-161.7050 116.2272
" />
<path d="M-160.7169 118.2272
L-160.5503 116.8939
" />
<path d="M-160.4669 116.2272
L-160.5741 116.3225
" />
<path d="M-160.5741 116.3225
L-160.4908 116.4177
" />
<path d="M-160.4908 116.4177
L-160.3836 116.3225
" />
<path d="M-160.3836 116.3225
L-160.4669 116.2272
" />
<path d="M-160.4669 116.2272
L-160.4908 116.4177
" />
<path d="M-159.8836 116.8939
L-159.1217 116.8939
" />
<path d="M-159.5146 116.2272
L-159.7289 117.9415
" />
<path d="M-159.7289 117.9415
L-159.6574 118.1320
" />
<path d="M-159.6574 118.1320
L-159.4789 118.2272
" />
<path d="M-159.4789 118.2272
L-159.2884 118.2272
" />
<path d="M-158.3360 118.2272
L-158.5146 118.1320
" />
<path d="M-158.5146 118.1320
L-158.5860 117.9415
" />
<path d="M-158.5860 117.9415
L-158.3717 116.2272
" />
<path d="M-156.8003 118.1320
L-157.0027 118.2272
" />
<path d="M-157.0027 118.2272
L-157.3836 118.2272
" />
<path d="M-157.3836 118.2272
L-157.5622 118.1320
" />
<path d="M-157.5622 118.1320
L-157.6336 117.9415
" />
<path d="M-157.6336 117.9415
L-157.5384 117.1796
" />
<path d="M-157.5384 117.1796
L-157.4193 116.9891
" />
<path d="M-157.4193 116.9891
L-157.2169 116.8939
" />
<path d="M-157.2169 116.8939
L-156.8360 116.8939
" />
<path d="M-156.8360 116.8939
L-156.6574 116.9891
" />
<path d="M-156.6574 116.9891
L-156.5860 117.1796
" />
<path d="M-156.5860 117.1796
L-156.6098 117.3701
" />
<path d="M-156.6098 117.3701
L-157.5860 117.5606
" />
<path d="M-155.8360 118.0368
L-155.7527 118.1320
" />
<path d="M-155.7527 118.1320
L-155.8598 118.2272
" />
<path d="M-155.8598 118.2272
L-155.9431 118.1320
" />
<path d="M-155.9431 118.1320
L-155.8360 118.0368
" />
<path d="M-155.8360 118.0368
L-155.8598 118.2272
" />
<path d="M-155.7050 116.9891
L-155.6217 117.0844
" />
<path d="M-155.6217 117.0844
L-155.7289 117.1796
" />
<path d="M-155.7289 117.1796
L-155.8122 117.0844
" />
<path d="M-155.8122 117.0844
L-155.7050 116.9891
" />
<path d="M-155.7050 116.9891
L-155.7289 117.1796
" />
</g></g>
<g style="fill:#000000; fill-opacity:0.0; 
stroke:#000000; stroke-width:0.0212; stroke-opacity:1; 
stroke-linecap:round; stroke-linejoin:round;">
</g>
<g style="fill:#000000; fill-opacity:0.0; 
stroke:#000000; stroke-width:0.1500; stroke-opacity:1; 
stroke-linecap:round; stroke-linejoin:round;">
<text x="-162.9682" y="114.4728"
textLength="44.6500" font-size="2.0000" lengthAdjust="spacingAndGlyphs"
text-anchor="start" opacity="0">File: Adapter-Pfostenstecker.kicad_pcb</text>
<g class="stroked-text"><desc>File: Adapter-Pfostenstecker.kicad_pcb</desc>
<path d="M-162.0124 113.6232
L-162.5124 113.6232
" />
<path d="M-162.5124 114.4089
L-162.5124 112.9089
" />
<path d="M-162.5124 112.9089
L-161.7981 112.9089
" />
<path d="M-161.2267 114.4089
L-161.2267 113.4089
" />
<path d="M-161.2267 112.9089
L-161.2981 112.9804
" />
<path d="M-161.2981 112.9804
L-161.2267 113.0518
" />
<path d="M-161.2267 113.0518
L-161.1552 112.9804
" />
<path d="M-161.1552 112.9804
L-161.2267 112.9089
" />
<path d="M-161.2267 112.9089
L-161.2267 113.0518
" />
<path d="M-160.2981 114.4089
L-160.4409 114.3375
" />
<path d="M-160.4409 114.3375
L-160.5124 114.1946
" />
<path d="M-160.5124 114.1946
L-160.5124 112.9089
" />
<path d="M-159.1552 114.3375
L-159.2981 114.4089
" />
<path d="M-159.2981 114.4089
L-159.5838 114.4089
" />
<path d="M-159.5838 114.4089
L-159.7267 114.3375
" />
<path d="M-159.7267 114.3375
L-159.7981 114.1946
" />
<path d="M-159.7981 114.1946
L-159.7981 113.6232
" />
<path d="M-159.7981 113.6232
L-159.7267 113.4804
" />
<path d="M-159.7267 113.4804
L-159.5838 113.4089
" />
<path d="M-159.5838 113.4089
L-159.2981 113.4089
" />
<path d="M-159.2981 113.4089
L-159.1552 113.4804
" />
<path d="M-159.1552 113.4804
L-159.0838 113.6232
" />
<path d="M-159.0838 113.6232
L-159.0838 113.7661
" />
<path d="M-159.0838 113.7661
L-159.7981 113.9089
" />
<path d="M-158.4409 114.2661
L-158.3695 114.3375
" />
<path d="M-158.3695 114.3375
L-158.4409 114.4089
" />
<path d="M-158.4409 114.4089
L-158.5124 114.3375
" />
<path d="M-158.5124 114.3375
L-158.4409 114.2661
" />
<path d="M-158.4409 114.2661
L-158.4409 114.4089
" />
<path d="M-158.4409 113.4804
L-158.3695 113.5518
" />
<path d="M-158.3695 113.5518
L-158.4409 113.6232
" />
<path d="M-158.4409 113.6232
L-158.5124 113.5518
" />
<path d="M-158.5124 113.5518
L-158.4409 113.4804
" />
<path d="M-158.4409 113.4804
L-158.4409 113.6232
" />
<path d="M-156.6552 113.9804
L-155.9409 113.9804
" />
<path d="M-156.7981 114.4089
L-156.2981 112.9089
" />
<path d="M-156.2981 112.9089
L-155.7981 114.4089
" />
<path d="M-154.6552 114.4089
L-154.6552 112.9089
" />
<path d="M-154.6552 114.3375
L-154.7981 114.4089
" />
<path d="M-154.7981 114.4089
L-155.0838 114.4089
" />
<path d="M-155.0838 114.4089
L-155.2267 114.3375
" />
<path d="M-155.2267 114.3375
L-155.2981 114.2661
" />
<path d="M-155.2981 114.2661
L-155.3695 114.1232
" />
<path d="M-155.3695 114.1232
L-155.3695 113.6946
" />
<path d="M-155.3695 113.6946
L-155.2981 113.5518
" />
<path d="M-155.2981 113.5518
L-155.2267 113.4804
" />
<path d="M-155.2267 113.4804
L-155.0838 113.4089
" />
<path d="M-155.0838 113.4089
L-154.7981 113.4089
" />
<path d="M-154.7981 113.4089
L-154.6552 113.4804
" />
<path d="M-153.2981 114.4089
L-153.2981 113.6232
" />
<path d="M-153.2981 113.6232
L-153.3695 113.4804
" />
<path d="M-153.3695 113.4804
L-153.5124 113.4089
" />
<path d="M-153.5124 113.4089
L-153.7981 113.4089
" />
<path d="M-153.7981 113.4089
L-153.9409 113.4804
" />
<path d="M-153.2981 114.3375
L-153.4409 114.4089
" />
<path d="M-153.4409 114.4089
L-153.7981 114.4089
" />
<path d="M-153.7981 114.4089
L-153.9409 114.3375
" />
<path d="M-153.9409 114.3375
L-154.0124 114.1946
" />
<path d="M-154.0124 114.1946
L-154.0124 114.0518
" />
<path d="M-154.0124 114.0518
L-153.9409 113.9089
" />
<path d="M-153.9409 113.9089
L-153.7981 113.8375
" />
<path d="M-153.7981 113.8375
L-153.4409 113.8375
" />
<path d="M-153.4409 113.8375
L-153.2981 113.7661
" />
<path d="M-152.5838 113.4089
L-152.5838 114.9089
" />
<path d="M-152.5838 113.4804
L-152.4409 113.4089
" />
<path d="M-152.4409 113.4089
L-152.1552 113.4089
" />
<path d="M-152.1552 113.4089
L-152.0124 113.4804
" />
<path d="M-152.0124 113.4804
L-151.9409 113.5518
" />
<path d="M-151.9409 113.5518
L-151.8695 113.6946
" />
<path d="M-151.8695 113.6946
L-151.8695 114.1232
" />
<path d="M-151.8695 114.1232
L-151.9409 114.2661
" />
<path d="M-151.9409 114.2661
L-152.0124 114.3375
" />
<path d="M-152.0124 114.3375
L-152.1552 114.4089
" />
<path d="M-152.1552 114.4089
L-152.4409 114.4089
" />
<path d="M-152.4409 114.4089
L-152.5838 114.3375
" />
<path d="M-151.4409 113.4089
L-150.8695 113.4089
" />
<path d="M-151.2267 112.9089
L-151.2267 114.1946
" />
<path d="M-151.2267 114.1946
L-151.1552 114.3375
" />
<path d="M-151.1552 114.3375
L-151.0124 114.4089
" />
<path d="M-151.0124 114.4089
L-150.8695 114.4089
" />
<path d="M-149.7981 114.3375
L-149.9409 114.4089
" />
<path d="M-149.9409 114.4089
L-150.2267 114.4089
" />
<path d="M-150.2267 114.4089
L-150.3695 114.3375
" />
<path d="M-150.3695 114.3375
L-150.4409 114.1946
" />
<path d="M-150.4409 114.1946
L-150.4409 113.6232
" />
<path d="M-150.4409 113.6232
L-150.3695 113.4804
" />
<path d="M-150.3695 113.4804
L-150.2267 113.4089
" />
<path d="M-150.2267 113.4089
L-149.9409 113.4089
" />
<path d="M-149.9409 113.4089
L-149.7981 113.4804
" />
<path d="M-149.7981 113.4804
L-149.7267 113.6232
" />
<path d="M-149.7267 113.6232
L-149.7267 113.7661
" />
<path d="M-149.7267 113.7661
L-150.4409 113.9089
" />
<path d="M-149.0838 114.4089
L-149.0838 113.4089
" />
<path d="M-149.0838 113.6946
L-149.0124 113.5518
" />
<path d="M-149.0124 113.5518
L-148.9409 113.4804
" />
<path d="M-148.9409 113.4804
L-148.7981 113.4089
" />
<path d="M-148.7981 113.4089
L-148.6552 113.4089
" />
<path d="M-148.1552 113.8375
L-147.0124 113.8375
" />
<path d="M-146.2981 114.4089
L-146.2981 112.9089
" />
<path d="M-146.2981 112.9089
L-145.7267 112.9089
" />
<path d="M-145.7267 112.9089
L-145.5838 112.9804
" />
<path d="M-145.5838 112.9804
L-145.5124 113.0518
" />
<path d="M-145.5124 113.0518
L-145.4409 113.1946
" />
<path d="M-145.4409 113.1946
L-145.4409 113.4089
" />
<path d="M-145.4409 113.4089
L-145.5124 113.5518
" />
<path d="M-145.5124 113.5518
L-145.5838 113.6232
" />
<path d="M-145.5838 113.6232
L-145.7267 113.6946
" />
<path d="M-145.7267 113.6946
L-146.2981 113.6946
" />
<path d="M-145.0124 113.4089
L-144.4409 113.4089
" />
<path d="M-144.7981 114.4089
L-144.7981 113.1232
" />
<path d="M-144.7981 113.1232
L-144.7267 112.9804
" />
<path d="M-144.7267 112.9804
L-144.5838 112.9089
" />
<path d="M-144.5838 112.9089
L-144.4409 112.9089
" />
<path d="M-143.7267 114.4089
L-143.8695 114.3375
" />
<path d="M-143.8695 114.3375
L-143.9409 114.2661
" />
<path d="M-143.9409 114.2661
L-144.0124 114.1232
" />
<path d="M-144.0124 114.1232
L-144.0124 113.6946
" />
<path d="M-144.0124 113.6946
L-143.9409 113.5518
" />
<path d="M-143.9409 113.5518
L-143.8695 113.4804
" />
<path d="M-143.8695 113.4804
L-143.7267 113.4089
" />
<path d="M-143.7267 113.4089
L-143.5124 113.4089
" />
<path d="M-143.5124 113.4089
L-143.3695 113.4804
" />
<path d="M-143.3695 113.4804
L-143.2981 113.5518
" />
<path d="M-143.2981 113.5518
L-143.2267 113.6946
" />
<path d="M-143.2267 113.6946
L-143.2267 114.1232
" />
<path d="M-143.2267 114.1232
L-143.2981 114.2661
" />
<path d="M-143.2981 114.2661
L-143.3695 114.3375
" />
<path d="M-143.3695 114.3375
L-143.5124 114.4089
" />
<path d="M-143.5124 114.4089
L-143.7267 114.4089
" />
<path d="M-142.6552 114.3375
L-142.5124 114.4089
" />
<path d="M-142.5124 114.4089
L-142.2267 114.4089
" />
<path d="M-142.2267 114.4089
L-142.0838 114.3375
" />
<path d="M-142.0838 114.3375
L-142.0124 114.1946
" />
<path d="M-142.0124 114.1946
L-142.0124 114.1232
" />
<path d="M-142.0124 114.1232
L-142.0838 113.9804
" />
<path d="M-142.0838 113.9804
L-142.2267 113.9089
" />
<path d="M-142.2267 113.9089
L-142.4409 113.9089
" />
<path d="M-142.4409 113.9089
L-142.5838 113.8375
" />
<path d="M-142.5838 113.8375
L-142.6552 113.6946
" />
<path d="M-142.6552 113.6946
L-142.6552 113.6232
" />
<path d="M-142.6552 113.6232
L-142.5838 113.4804
" />
<path d="M-142.5838 113.4804
L-142.4409 113.4089
" />
<path d="M-142.4409 113.4089
L-142.2267 113.4089
" />
<path d="M-142.2267 113.4089
L-142.0838 113.4804
" />
<path d="M-141.5838 113.4089
L-141.0124 113.4089
" />
<path d="M-141.3695 112.9089
L-141.3695 114.1946
" />
<path d="M-141.3695 114.1946
L-141.2981 114.3375
" />
<path d="M-141.2981 114.3375
L-141.1552 114.4089
" />
<path d="M-141.1552 114.4089
L-141.0124 114.4089
" />
<path d="M-139.9409 114.3375
L-140.0838 114.4089
" />
<path d="M-140.0838 114.4089
L-140.3695 114.4089
" />
<path d="M-140.3695 114.4089
L-140.5124 114.3375
" />
<path d="M-140.5124 114.3375
L-140.5838 114.1946
" />
<path d="M-140.5838 114.1946
L-140.5838 113.6232
" />
<path d="M-140.5838 113.6232
L-140.5124 113.4804
" />
<path d="M-140.5124 113.4804
L-140.3695 113.4089
" />
<path d="M-140.3695 113.4089
L-140.0838 113.4089
" />
<path d="M-140.0838 113.4089
L-139.9409 113.4804
" />
<path d="M-139.9409 113.4804
L-139.8695 113.6232
" />
<path d="M-139.8695 113.6232
L-139.8695 113.7661
" />
<path d="M-139.8695 113.7661
L-140.5838 113.9089
" />
<path d="M-139.2267 113.4089
L-139.2267 114.4089
" />
<path d="M-139.2267 113.5518
L-139.1552 113.4804
" />
<path d="M-139.1552 113.4804
L-139.0124 113.4089
" />
<path d="M-139.0124 113.4089
L-138.7981 113.4089
" />
<path d="M-138.7981 113.4089
L-138.6552 113.4804
" />
<path d="M-138.6552 113.4804
L-138.5838 113.6232
" />
<path d="M-138.5838 113.6232
L-138.5838 114.4089
" />
<path d="M-137.9409 114.3375
L-137.7981 114.4089
" />
<path d="M-137.7981 114.4089
L-137.5124 114.4089
" />
<path d="M-137.5124 114.4089
L-137.3695 114.3375
" />
<path d="M-137.3695 114.3375
L-137.2981 114.1946
" />
<path d="M-137.2981 114.1946
L-137.2981 114.1232
" />
<path d="M-137.2981 114.1232
L-137.3695 113.9804
" />
<path d="M-137.3695 113.9804
L-137.5124 113.9089
" />
<path d="M-137.5124 113.9089
L-137.7267 113.9089
" />
<path d="M-137.7267 113.9089
L-137.8695 113.8375
" />
<path d="M-137.8695 113.8375
L-137.9409 113.6946
" />
<path d="M-137.9409 113.6946
L-137.9409 113.6232
" />
<path d="M-137.9409 113.6232
L-137.8695 113.4804
" />
<path d="M-137.8695 113.4804
L-137.7267 113.4089
" />
<path d="M-137.7267 113.4089
L-137.5124 113.4089
" />
<path d="M-137.5124 113.4089
L-137.3695 113.4804
" />
<path d="M-136.8695 113.4089
L-136.2981 113.4089
" />
<path d="M-136.6552 112.9089
L-136.6552 114.1946
" />
<path d="M-136.6552 114.1946
L-136.5838 114.3375
" />
<path d="M-136.5838 114.3375
L-136.4409 114.4089
" />
<path d="M-136.4409 114.4089
L-136.2981 114.4089
" />
<path d="M-135.2267 114.3375
L-135.3695 114.4089
" />
<path d="M-135.3695 114.4089
L-135.6552 114.4089
" />
<path d="M-135.6552 114.4089
L-135.7981 114.3375
" />
<path d="M-135.7981 114.3375
L-135.8695 114.1946
" />
<path d="M-135.8695 114.1946
L-135.8695 113.6232
" />
<path d="M-135.8695 113.6232
L-135.7981 113.4804
" />
<path d="M-135.7981 113.4804
L-135.6552 113.4089
" />
<path d="M-135.6552 113.4089
L-135.3695 113.4089
" />
<path d="M-135.3695 113.4089
L-135.2267 113.4804
" />
<path d="M-135.2267 113.4804
L-135.1552 113.6232
" />
<path d="M-135.1552 113.6232
L-135.1552 113.7661
" />
<path d="M-135.1552 113.7661
L-135.8695 113.9089
" />
<path d="M-133.8695 114.3375
L-134.0124 114.4089
" />
<path d="M-134.0124 114.4089
L-134.2981 114.4089
" />
<path d="M-134.2981 114.4089
L-134.4409 114.3375
" />
<path d="M-134.4409 114.3375
L-134.5124 114.2661
" />
<path d="M-134.5124 114.2661
L-134.5838 114.1232
" />
<path d="M-134.5838 114.1232
L-134.5838 113.6946
" />
<path d="M-134.5838 113.6946
L-134.5124 113.5518
" />
<path d="M-134.5124 113.5518
L-134.4409 113.4804
" />
<path d="M-134.4409 113.4804
L-134.2981 113.4089
" />
<path d="M-134.2981 113.4089
L-134.0124 113.4089
" />
<path d="M-134.0124 113.4089
L-133.8695 113.4804
" />
<path d="M-133.2267 114.4089
L-133.2267 112.9089
" />
<path d="M-133.0838 113.8375
L-132.6552 114.4089
" />
<path d="M-132.6552 113.4089
L-133.2267 113.9804
" />
<path d="M-131.4409 114.3375
L-131.5838 114.4089
" />
<path d="M-131.5838 114.4089
L-131.8695 114.4089
" />
<path d="M-131.8695 114.4089
L-132.0124 114.3375
" />
<path d="M-132.0124 114.3375
L-132.0838 114.1946
" />
<path d="M-132.0838 114.1946
L-132.0838 113.6232
" />
<path d="M-132.0838 113.6232
L-132.0124 113.4804
" />
<path d="M-132.0124 113.4804
L-131.8695 113.4089
" />
<path d="M-131.8695 113.4089
L-131.5838 113.4089
" />
<path d="M-131.5838 113.4089
L-131.4409 113.4804
" />
<path d="M-131.4409 113.4804
L-131.3695 113.6232
" />
<path d="M-131.3695 113.6232
L-131.3695 113.7661
" />
<path d="M-131.3695 113.7661
L-132.0838 113.9089
" />
<path d="M-130.7267 114.4089
L-130.7267 113.4089
" />
<path d="M-130.7267 113.6946
L-130.6552 113.5518
" />
<path d="M-130.6552 113.5518
L-130.5838 113.4804
" />
<path d="M-130.5838 113.4804
L-130.4409 113.4089
" />
<path d="M-130.4409 113.4089
L-130.2981 113.4089
" />
<path d="M-129.7981 114.2661
L-129.7267 114.3375
" />
<path d="M-129.7267 114.3375
L-129.7981 114.4089
" />
<path d="M-129.7981 114.4089
L-129.8695 114.3375
" />
<path d="M-129.8695 114.3375
L-129.7981 114.2661
" />
<path d="M-129.7981 114.2661
L-129.7981 114.4089
" />
<path d="M-129.0838 114.4089
L-129.0838 112.9089
" />
<path d="M-128.9409 113.8375
L-128.5124 114.4089
" />
<path d="M-128.5124 113.4089
L-129.0838 113.9804
" />
<path d="M-127.8695 114.4089
L-127.8695 113.4089
" />
<path d="M-127.8695 112.9089
L-127.9409 112.9804
" />
<path d="M-127.9409 112.9804
L-127.8695 113.0518
" />
<path d="M-127.8695 113.0518
L-127.7981 112.9804
" />
<path d="M-127.7981 112.9804
L-127.8695 112.9089
" />
<path d="M-127.8695 112.9089
L-127.8695 113.0518
" />
<path d="M-126.5124 114.3375
L-126.6552 114.4089
" />
<path d="M-126.6552 114.4089
L-126.9409 114.4089
" />
<path d="M-126.9409 114.4089
L-127.0838 114.3375
" />
<path d="M-127.0838 114.3375
L-127.1552 114.2661
" />
<path d="M-127.1552 114.2661
L-127.2267 114.1232
" />
<path d="M-127.2267 114.1232
L-127.2267 113.6946
" />
<path d="M-127.2267 113.6946
L-127.1552 113.5518
" />
<path d="M-127.1552 113.5518
L-127.0838 113.4804
" />
<path d="M-127.0838 113.4804
L-126.9409 113.4089
" />
<path d="M-126.9409 113.4089
L-126.6552 113.4089
" />
<path d="M-126.6552 113.4089
L-126.5124 113.4804
" />
<path d="M-125.2267 114.4089
L-125.2267 113.6232
" />
<path d="M-125.2267 113.6232
L-125.2981 113.4804
" />
<path d="M-125.2981 113.4804
L-125.4409 113.4089
" />
<path d="M-125.4409 113.4089
L-125.7267 113.4089
" />
<path d="M-125.7267 113.4089
L-125.8695 113.4804
" />
<path d="M-125.2267 114.3375
L-125.3695 114.4089
" />
<path d="M-125.3695 114.4089
L-125.7267 114.4089
" />
<path d="M-125.7267 114.4089
L-125.8695 114.3375
" />
<path d="M-125.8695 114.3375
L-125.9409 114.1946
" />
<path d="M-125.9409 114.1946
L-125.9409 114.0518
" />
<path d="M-125.9409 114.0518
L-125.8695 113.9089
" />
<path d="M-125.8695 113.9089
L-125.7267 113.8375
" />
<path d="M-125.7267 113.8375
L-125.3695 113.8375
" />
<path d="M-125.3695 113.8375
L-125.2267 113.7661
" />
<path d="M-123.8695 114.4089
L-123.8695 112.9089
" />
<path d="M-123.8695 114.3375
L-124.0124 114.4089
" />
<path d="M-124.0124 114.4089
L-124.2981 114.4089
" />
<path d="M-124.2981 114.4089
L-124.4409 114.3375
" />
<path d="M-124.4409 114.3375
L-124.5124 114.2661
" />
<path d="M-124.5124 114.2661
L-124.5838 114.1232
" />
<path d="M-124.5838 114.1232
L-124.5838 113.6946
" />
<path d="M-124.5838 113.6946
L-124.5124 113.5518
" />
<path d="M-124.5124 113.5518
L-124.4409 113.4804
" />
<path d="M-124.4409 113.4804
L-124.2981 113.4089
" />
<path d="M-124.2981 113.4089
L-124.0124 113.4089
" />
<path d="M-124.0124 113.4089
L-123.8695 113.4804
" />
<path d="M-123.5124 114.5518
L-122.3695 114.5518
" />
<path d="M-122.0124 113.4089
L-122.0124 114.9089
" />
<path d="M-122.0124 113.4804
L-121.8695 113.4089
" />
<path d="M-121.8695 113.4089
L-121.5838 113.4089
" />
<path d="M-121.5838 113.4089
L-121.4409 113.4804
" />
<path d="M-121.4409 113.4804
L-121.3695 113.5518
" />
<path d="M-121.3695 113.5518
L-121.2981 113.6946
" />
<path d="M-121.2981 113.6946
L-121.2981 114.1232
" />
<path d="M-121.2981 114.1232
L-121.3695 114.2661
" />
<path d="M-121.3695 114.2661
L-121.4409 114.3375
" />
<path d="M-121.4409 114.3375
L-121.5838 114.4089
" />
<path d="M-121.5838 114.4089
L-121.8695 114.4089
" />
<path d="M-121.8695 114.4089
L-122.0124 114.3375
" />
<path d="M-120.0124 114.3375
L-120.1552 114.4089
" />
<path d="M-120.1552 114.4089
L-120.4409 114.4089
" />
<path d="M-120.4409 114.4089
L-120.5838 114.3375
" />
<path d="M-120.5838 114.3375
L-120.6552 114.2661
" />
<path d="M-120.6552 114.2661
L-120.7267 114.1232
" />
<path d="M-120.7267 114.1232
L-120.7267 113.6946
" />
<path d="M-120.7267 113.6946
L-120.6552 113.5518
" />
<path d="M-120.6552 113.5518
L-120.5838 113.4804
" />
<path d="M-120.5838 113.4804
L-120.4409 113.4089
" />
<path d="M-120.4409 113.4089
L-120.1552 113.4089
" />
<path d="M-120.1552 113.4089
L-120.0124 113.4804
" />
<path d="M-119.3695 114.4089
L-119.3695 112.9089
" />
<path d="M-119.3695 113.4804
L-119.2267 113.4089
" />
<path d="M-119.2267 113.4089
L-118.9409 113.4089
" />
<path d="M-118.9409 113.4089
L-118.7981 113.4804
" />
<path d="M-118.7981 113.4804
L-118.7267 113.5518
" />
<path d="M-118.7267 113.5518
L-118.6552 113.6946
" />
<path d="M-118.6552 113.6946
L-118.6552 114.1232
" />
<path d="M-118.6552 114.1232
L-118.7267 114.2661
" />
<path d="M-118.7267 114.2661
L-118.7981 114.3375
" />
<path d="M-118.7981 114.3375
L-118.9409 114.4089
" />
<path d="M-118.9409 114.4089
L-119.2267 114.4089
" />
<path d="M-119.2267 114.4089
L-119.3695 114.3375
" />
</g></g>
<g style="fill:#000000; fill-opacity:0.0; 
stroke:#000000; stroke-width:0.0212; stroke-opacity:1; 
stroke-linecap:round; stroke-linejoin:round;">
</g>
<g style="fill:#000000; fill-opacity:0.0; 
stroke:#000000; stroke-width:0.1500; stroke-opacity:1; 
stroke-linecap:round; stroke-linejoin:round;">
<path d="M-163.9682 109.5228
L-55.9682 109.5228
" />
</g>
<g style="fill:#000000; fill-opacity:0.0; 
stroke:#000000; stroke-width:0.0212; stroke-opacity:1; 
stroke-linecap:round; stroke-linejoin:round;">
</g>
<g style="fill:#000000; fill-opacity:0.0; 
stroke:#000000; stroke-width:0.1500; stroke-opacity:1; 
stroke-linecap:round; stroke-linejoin:round;">
<text x="-162.9682" y="111.7728"
textLength="8.2214" font-size="2.0000" lengthAdjust="spacingAndGlyphs"
text-anchor="start" opacity="0">Sheet: </text>
<g class="stroked-text"><desc>Sheet: </desc>
<path d="M-162.5838 111.6375
L-162.3695 111.7089
" />
<path d="M-162.3695 111.7089
L-162.0124 111.7089
" />
<path d="M-162.0124 111.7089
L-161.8695 111.6375
" />
<path d="M-161.8695 111.6375
L-161.7981 111.5661
" />
<path d="M-161.7981 111.5661
L-161.7267 111.4232
" />
<path d="M-161.7267 111.4232
L-161.7267 111.2804
" />
<path d="M-161.7267 111.2804
L-161.7981 111.1375
" />
<path d="M-161.7981 111.1375
L-161.8695 111.0661
" />
<path d="M-161.8695 111.0661
L-162.0124 110.9946
" />
<path d="M-162.0124 110.9946
L-162.2981 110.9232
" />
<path d="M-162.2981 110.9232
L-162.4409 110.8518
" />
<path d="M-162.4409 110.8518
L-162.5124 110.7804
" />
<path d="M-162.5124 110.7804
L-162.5838 110.6375
" />
<path d="M-162.5838 110.6375
L-162.5838 110.4946
" />
<path d="M-162.5838 110.4946
L-162.5124 110.3518
" />
<path d="M-162.5124 110.3518
L-162.4409 110.2804
" />
<path d="M-162.4409 110.2804
L-162.2981 110.2089
" />
<path d="M-162.2981 110.2089
L-161.9409 110.2089
" />
<path d="M-161.9409 110.2089
L-161.7267 110.2804
" />
<path d="M-161.0838 111.7089
L-161.0838 110.2089
" />
<path d="M-160.4409 111.7089
L-160.4409 110.9232
" />
<path d="M-160.4409 110.9232
L-160.5124 110.7804
" />
<path d="M-160.5124 110.7804
L-160.6552 110.7089
" />
<path d="M-160.6552 110.7089
L-160.8695 110.7089
" />
<path d="M-160.8695 110.7089
L-161.0124 110.7804
" />
<path d="M-161.0124 110.7804
L-161.0838 110.8518
" />
<path d="M-159.1552 111.6375
L-159.2981 111.7089
" />
<path d="M-159.2981 111.7089
L-159.5838 111.7089
" />
<path d="M-159.5838 111.7089
L-159.7267 111.6375
" />
<path d="M-159.7267 111.6375
L-159.7981 111.4946
" />
<path d="M-159.7981 111.4946
L-159.7981 110.9232
" />
<path d="M-159.7981 110.9232
L-159.7267 110.7804
" />
<path d="M-159.7267 110.7804
L-159.5838 110.7089
" />
<path d="M-159.5838 110.7089
L-159.2981 110.7089
" />
<path d="M-159.2981 110.7089
L-159.1552 110.7804
" />
<path d="M-159.1552 110.7804
L-159.0838 110.9232
" />
<path d="M-159.0838 110.9232
L-159.0838 111.0661
" />
<path d="M-159.0838 111.0661
L-159.7981 111.2089
" />
<path d="M-157.8695 111.6375
L-158.0124 111.7089
" />
<path d="M-158.0124 111.7089
L-158.2981 111.7089
" />
<path d="M-158.2981 111.7089
L-158.4409 111.6375
" />
<path d="M-158.4409 111.6375
L-158.5124 111.4946
" />
<path d="M-158.5124 111.4946
L-158.5124 110.9232
" />
<path d="M-158.5124 110.9232
L-158.4409 110.7804
" />
<path d="M-158.4409 110.7804
L-158.2981 110.7089
" />
<path d="M-158.2981 110.7089
L-158.0124 110.7089
" />
<path d="M-158.0124 110.7089
L-157.8695 110.7804
" />
<path d="M-157.8695 110.7804
L-157.7981 110.9232
" />
<path d="M-157.7981 110.9232
L-157.7981 111.0661
" />
<path d="M-157.7981 111.0661
L-158.5124 111.2089
" />
<path d="M-157.3695 110.7089
L-156.7981 110.7089
" />
<path d="M-157.1552 110.2089
L-157.1552 111.4946
" />
<path d="M-157.1552 111.4946
L-157.0838 111.6375
" />
<path d="M-157.0838 111.6375
L-156.9409 111.7089
" />
<path d="M-156.9409 111.7089
L-156.7981 111.7089
" />
<path d="M-156.2981 111.5661
L-156.2267 111.6375
" />
<path d="M-156.2267 111.6375
L-156.2981 111.7089
" />
<path d="M-156.2981 111.7089
L-156.3695 111.6375
" />
<path d="M-156.3695 111.6375
L-156.2981 111.5661
" />
<path d="M-156.2981 111.5661
L-156.2981 111.7089
" />
<path d="M-156.2981 110.7804
L-156.2267 110.8518
" />
<path d="M-156.2267 110.8518
L-156.2981 110.9232
" />
<path d="M-156.2981 110.9232
L-156.3695 110.8518
" />
<path d="M-156.3695 110.8518
L-156.2981 110.7804
" />
<path d="M-156.2981 110.7804
L-156.2981 110.9232
" />
</g></g>
<g style="fill:#000000; fill-opacity:0.0; 
stroke:#000000; stroke-width:0.0212; stroke-opacity:1; 
stroke-linecap:round; stroke-linejoin:round;">
</g>
<g style="fill:#000000; fill-opacity:0.0; 
stroke:#000000; stroke-width:0.3000; stroke-opacity:1; 
stroke-linecap:round; stroke-linejoin:round;">
<text x="-162.9682" y="108.7728"
textLength="0.9000" font-size="2.0000" lengthAdjust="spacingAndGlyphs"
text-anchor="start" opacity="0"></text>
<g class="stroked-text"><desc></desc>
</g></g>
<g style="fill:#000000; fill-opacity:0.0; 
stroke:#000000; stroke-width:0.0212; stroke-opacity:1; 
stroke-linecap:round; stroke-linejoin:round;">
</g>
<g style="fill:#000000; fill-opacity:0.0; 
stroke:#000000; stroke-width:0.1500; stroke-opacity:1; 
stroke-linecap:round; stroke-linejoin:round;">
<text x="-162.9682" y="105.7728"
textLength="0.4500" font-size="2.0000" lengthAdjust="spacingAndGlyphs"
text-anchor="start" opacity="0"></text>
<g class="stroked-text"><desc></desc>
</g></g>
<g style="fill:#000000; fill-opacity:0.0; 
stroke:#000000; stroke-width:0.0212; stroke-opacity:1; 
stroke-linecap:round; stroke-linejoin:round;">
</g>
<g style="fill:#000000; fill-opacity:0.0; 
stroke:#000000; stroke-width:0.1500; stroke-opacity:1; 
stroke-linecap:round; stroke-linejoin:round;">
<text x="-162.9682" y="102.7728"
textLength="0.4500" font-size="2.0000" lengthAdjust="spacingAndGlyphs"
text-anchor="start" opacity="0"></text>
<g class="stroked-text"><desc></desc>
</g></g>
<g style="fill:#000000; fill-opacity:0.0; 
stroke:#000000; stroke-width:0.0212; stroke-opacity:1; 
stroke-linecap:round; stroke-linejoin:round;">
</g>
<g style="fill:#000000; fill-opacity:0.0; 
stroke:#000000; stroke-width:0.1500; stroke-opacity:1; 
stroke-linecap:round; stroke-linejoin:round;">
<text x="-162.9682" y="99.7728"
textLength="0.4500" font-size="2.0000" lengthAdjust="spacingAndGlyphs"
text-anchor="start" opacity="0"></text>
<g class="stroked-text"><desc></desc>
</g></g>
<g style="fill:#000000; fill-opacity:0.0; 
stroke:#000000; stroke-width:0.0212; stroke-opacity:1; 
stroke-linecap:round; stroke-linejoin:round;">
</g>
<g style="fill:#000000; fill-opacity:0.0; 
stroke:#000000; stroke-width:0.1500; stroke-opacity:1; 
stroke-linecap:round; stroke-linejoin:round;">
<text x="-162.9682" y="96.7728"
textLength="0.4500" font-size="2.0000" lengthAdjust="spacingAndGlyphs"
text-anchor="start" opacity="0"></text>
<g class="stroked-text"><desc></desc>
</g></g>
<g style="fill:#000000; fill-opacity:0.0; 
stroke:#000000; stroke-width:0.0212; stroke-opacity:1; 
stroke-linecap:round; stroke-linejoin:round;">
</g>
<g style="fill:#000000; fill-opacity:0.0; 
stroke:#000000; stroke-width:0.1500; stroke-opacity:1; 
stroke-linecap:round; stroke-linejoin:round;">
<path d="M-143.9682 119.5228
L-143.9682 122.5228
" />
</g>
<g style="fill:#000000; fill-opacity:0.0; 
stroke:#000000; stroke-width:0.0212; stroke-opacity:1; 
stroke-linecap:round; stroke-linejoin:round;">
</g>
<g style="fill:#000000; fill-opacity:0.0; 
stroke:#000000; stroke-width:0.1500; stroke-opacity:1; 
stroke-linecap:round; stroke-linejoin:round;">
<path d="M-79.9682 119.5228
L-79.9682 126.0228
" />
<g >
</g>
<g style="fill:#840084; fill-opacity:0.0; 
stroke:#840084; stroke-width:0.1500; stroke-opacity:1; 
stroke-linecap:round; stroke-linejoin:round;">
</g>
<g style="fill:#840084; fill-opacity:0.0; 
stroke:#840084; stroke-width:0.0000; stroke-opacity:1; 
stroke-linecap:round; stroke-linejoin:round;">
</g>
<g style="fill:#840084; fill-opacity:1.0000; 
stroke:#840084; stroke-width:0.0000; stroke-opacity:1; 
stroke-linecap:round; stroke-linejoin:round;">
<path style="fill:#840084; fill-opacity:1.0000; 
stroke:#840084; stroke-width:0.0000; stroke-opacity:1; 
stroke-linecap:round; stroke-linejoin:round;fill-rule:evenodd;"
d="M 4.2800,2.8050
4.2800,1.1050
5.9800,1.1050
5.9800,2.8050
Z" /> 
<circle cx="7.6700" cy="1.9550" r="0.8500" /> 
<circle cx="5.1300" cy="4.4950" r="0.8500" /> 
<circle cx="7.6700" cy="4.4950" r="0.8500" /> 
<circle cx="5.1300" cy="7.0350" r="0.8500" /> 
<circle cx="7.6700" cy="7.0350" r="0.8500" /> 
<circle cx="5.1300" cy="9.5750" r="0.8500" /> 
<circle cx="7.6700" cy="9.5750" r="0.8500" /> 
<circle cx="5.1300" cy="12.1150" r="0.8500" /> 
<circle cx="7.6700" cy="12.1150" r="0.8500" /> 
<circle cx="5.1300" cy="14.6550" r="0.8500" /> 
<circle cx="7.6700" cy="14.6550" r="0.8500" /> 
<circle cx="5.1300" cy="17.1950" r="0.8500" /> 
<circle cx="7.6700" cy="17.1950" r="0.8500" /> 
<circle cx="5.1300" cy="19.7350" r="0.8500" /> 
<circle cx="7.6700" cy="19.7350" r="0.8500" /> 
</g>
<g >
</g>
<g style="fill:#840084; fill-opacity:1.0000; 
stroke:#840084; stroke-width:0.0000; stroke-opacity:1; 
stroke-linecap:round; stroke-linejoin:round;">
<path style="fill:#840084; fill-opacity:1.0000; 
stroke:#840084; stroke-width:0.0000; stroke-opacity:1; 
stroke-linecap:round; stroke-linejoin:round;fill-rule:evenodd;"
d="M 11.0600,1.1200
11.0600,2.8200
9.3600,2.8200
9.3600,1.1200
Z" /> 
<circle cx="10.2100" cy="4.5100" r="0.8500" /> 
<circle cx="10.2100" cy="7.0500" r="0.8500" /> 
<circle cx="10.2100" cy="9.5900" r="0.8500" /> 
<circle cx="10.2100" cy="12.1300" r="0.8500" /> 
<circle cx="10.2100" cy="14.6700" r="0.8500" /> 
<circle cx="10.2100" cy="17.2100" r="0.8500" /> 
<circle cx="10.2100" cy="19.7500" r="0.8500" /> 
</g>
<g >
</g>
<g style="fill:#840084; fill-opacity:1.0000; 
stroke:#840084; stroke-width:0.0000; stroke-opacity:1; 
stroke-linecap:round; stroke-linejoin:round;">
<path style="fill:#840084; fill-opacity:1.0000; 
stroke:#840084; stroke-width:0.0000; stroke-opacity:1; 
stroke-linecap:round; stroke-linejoin:round;fill-rule:evenodd;"
d="M 3.4400,1.1050
3.4400,2.8050
1.7400,2.8050
1.7400,1.1050
Z" /> 
<circle cx="2.5900" cy="4.4950" r="0.8500" /> 
<circle cx="2.5900" cy="7.0350" r="0.8500" /> 
<circle cx="2.5900" cy="9.5750" r="0.8500" /> 
<circle cx="2.5900" cy="12.1150" r="0.8500" /> 
<circle cx="2.5900" cy="14.6550" r="0.8500" /> 
<circle cx="2.5900" cy="17.1950" r="0.8500" /> 
<circle cx="2.5900" cy="19.7350" r="0.8500" /> 
</g>
<g >
</g>
<g >
</g>
<g >
</g>
</g>
<g style="fill:#000000; fill-opacity:1.0000; 
stroke:#000000; stroke-width:0.0000; stroke-opacity:1; 
stroke-linecap:round; stroke-linejoin:round;">
</g>
<g style="fill:#008484; fill-opacity:1.0000; 
stroke:#008484; stroke-width:0.0000; stroke-opacity:1; 
stroke-linecap:round; stroke-linejoin:round;">
</g>
<g style="fill:#008484; fill-opacity:1.0000; 
stroke:#008484; stroke-width:0.2500; stroke-opacity:1; 
stroke-linecap:round; stroke-linejoin:round;">
</g>
<g style="fill:#008484; fill-opacity:0.0; 
stroke:#008484; stroke-width:0.2500; stroke-opacity:1; 
stroke-linecap:round; stroke-linejoin:round;">
<text x="6.4000" y="22.5210"
textLength="12.6452" font-size="1.3333" lengthAdjust="spacingAndGlyphs"
text-anchor="middle" opacity="0">H3-H5N6 '23</text>
<g class="stroked-text"><desc>H3-H5N6 '23</desc>
<path d="M1.4000 21.7087
L1.3048 21.6611
" />
<path d="M1.3048 21.6611
L1.1143 21.6611
" />
<path d="M1.1143 21.6611
L1.0190 21.7087
" />
<path d="M1.0190 21.7087
L0.9238 21.8040
" />
<path d="M0.9238 21.8040
L0.8762 21.8992
" />
<path d="M0.8762 21.8992
L0.8762 22.0897
" />
<path d="M0.8762 22.0897
L0.9238 22.1849
" />
<path d="M0.9238 22.1849
L1.0190 22.2801
" />
<path d="M1.0190 22.2801
L1.1143 22.3278
" />
<path d="M1.1143 22.3278
L1.3048 22.3278
" />
<path d="M1.3048 22.3278
L1.4000 22.2801
" />
<path d="M1.2095 21.3278
L0.9714 21.3754
" />
<path d="M0.9714 21.3754
L0.7333 21.5182
" />
<path d="M0.7333 21.5182
L0.5905 21.7563
" />
<path d="M0.5905 21.7563
L0.5429 21.9944
" />
<path d="M0.5429 21.9944
L0.5905 22.2325
" />
<path d="M0.5905 22.2325
L0.7333 22.4706
" />
<path d="M0.7333 22.4706
L0.9714 22.6135
" />
<path d="M0.9714 22.6135
L1.2095 22.6611
" />
<path d="M1.2095 22.6611
L1.4476 22.6135
" />
<path d="M1.4476 22.6135
L1.6857 22.4706
" />
<path d="M1.6857 22.4706
L1.8286 22.2325
" />
<path d="M1.8286 22.2325
L1.8762 21.9944
" />
<path d="M1.8762 21.9944
L1.8286 21.7563
" />
<path d="M1.8286 21.7563
L1.6857 21.5182
" />
<path d="M1.6857 21.5182
L1.4476 21.3754
" />
<path d="M1.4476 21.3754
L1.2095 21.3278
" />
<path d="M2.3048 22.4706
L2.3048 21.4706
" />
<path d="M2.3048 21.9468
L2.8762 21.9468
" />
<path d="M2.8762 22.4706
L2.8762 21.4706
" />
<path d="M3.2571 21.4706
L3.8762 21.4706
" />
<path d="M3.8762 21.4706
L3.5429 21.8516
" />
<path d="M3.5429 21.8516
L3.6857 21.8516
" />
<path d="M3.6857 21.8516
L3.7810 21.8992
" />
<path d="M3.7810 21.8992
L3.8286 21.9468
" />
<path d="M3.8286 21.9468
L3.8762 22.0420
" />
<path d="M3.8762 22.0420
L3.8762 22.2801
" />
<path d="M3.8762 22.2801
L3.8286 22.3754
" />
<path d="M3.8286 22.3754
L3.7810 22.4230
" />
<path d="M3.7810 22.4230
L3.6857 22.4706
" />
<path d="M3.6857 22.4706
L3.4000 22.4706
" />
<path d="M3.4000 22.4706
L3.3048 22.4230
" />
<path d="M3.3048 22.4230
L3.2571 22.3754
" />
<path d="M4.3048 22.0897
L5.0667 22.0897
" />
<path d="M5.5429 22.4706
L5.5429 21.4706
" />
<path d="M5.5429 21.9468
L6.1143 21.9468
" />
<path d="M6.1143 22.4706
L6.1143 21.4706
" />
<path d="M7.0667 21.4706
L6.5905 21.4706
" />
<path d="M6.5905 21.4706
L6.5429 21.9468
" />
<path d="M6.5429 21.9468
L6.5905 21.8992
" />
<path d="M6.5905 21.8992
L6.6857 21.8516
" />
<path d="M6.6857 21.8516
L6.9238 21.8516
" />
<path d="M6.9238 21.8516
L7.0190 21.8992
" />
<path d="M7.0190 21.8992
L7.0667 21.9468
" />
<path d="M7.0667 21.9468
L7.1143 22.0420
" />
<path d="M7.1143 22.0420
L7.1143 22.2801
" />
<path d="M7.1143 22.2801
L7.0667 22.3754
" />
<path d="M7.0667 22.3754
L7.0190 22.4230
" />
<path d="M7.0190 22.4230
L6.9238 22.4706
" />
<path d="M6.9238 22.4706
L6.6857 22.4706
" />
<path d="M6.6857 22.4706
L6.5905 22.4230
" />
<path d="M6.5905 22.4230
L6.5429 22.3754
" />
<path d="M7.5429 22.4706
L7.5429 21.4706
" />
<path d="M7.5429 21.4706
L8.1143 22.4706
" />
<path d="M8.1143 22.4706
L8.1143 21.4706
" />
<path d="M9.0190 21.4706
L8.8286 21.4706
" />
<path d="M8.8286 21.4706
L8.7333 21.5182
" />
<path d="M8.7333 21.5182
L8.6857 21.5659
" />
<path d="M8.6857 21.5659
L8.5905 21.7087
" />
<path d="M8.5905 21.7087
L8.5429 21.8992
" />
<path d="M8.5429 21.8992
L8.5429 22.2801
" />
<path d="M8.5429 22.2801
L8.5905 22.3754
" />
<path d="M8.5905 22.3754
L8.6381 22.4230
" />
<path d="M8.6381 22.4230
L8.7333 22.4706
" />
<path d="M8.7333 22.4706
L8.9238 22.4706
" />
<path d="M8.9238 22.4706
L9.0190 22.4230
" />
<path d="M9.0190 22.4230
L9.0667 22.3754
" />
<path d="M9.0667 22.3754
L9.1143 22.2801
" />
<path d="M9.1143 22.2801
L9.1143 22.0420
" />
<path d="M9.1143 22.0420
L9.0667 21.9468
" />
<path d="M9.0667 21.9468
L9.0190 21.8992
" />
<path d="M9.0190 21.8992
L8.9238 21.8516
" />
<path d="M8.9238 21.8516
L8.7333 21.8516
" />
<path d="M8.7333 21.8516
L8.6381 21.8992
" />
<path d="M8.6381 21.8992
L8.5905 21.9468
" />
<path d="M8.5905 21.9468
L8.5429 22.0420
" />
<path d="M10.3524 21.4706
L10.2571 21.6611
" />
<path d="M10.7333 21.5659
L10.7810 21.5182
" />
<path d="M10.7810 21.5182
L10.8762 21.4706
" />
<path d="M10.8762 21.4706
L11.1143 21.4706
" />
<path d="M11.1143 21.4706
L11.2095 21.5182
" />
<path d="M11.2095 21.5182
L11.2571 21.5659
" />
<path d="M11.2571 21.5659
L11.3048 21.6611
" />
<path d="M11.3048 21.6611
L11.3048 21.7563
" />
<path d="M11.3048 21.7563
L11.2571 21.8992
" />
<path d="M11.2571 21.8992
L10.6857 22.4706
" />
<path d="M10.6857 22.4706
L11.3048 22.4706
" />
<path d="M11.6381 21.4706
L12.2571 21.4706
" />
<path d="M12.2571 21.4706
L11.9238 21.8516
" />
<path d="M11.9238 21.8516
L12.0667 21.8516
" />
<path d="M12.0667 21.8516
L12.1619 21.8992
" />
<path d="M12.1619 21.8992
L12.2095 21.9468
" />
<path d="M12.2095 21.9468
L12.2571 22.0420
" />
<path d="M12.2571 22.0420
L12.2571 22.2801
" />
<path d="M12.2571 22.2801
L12.2095 22.3754
" />
<path d="M12.2095 22.3754
L12.1619 22.4230
" />
<path d="M12.1619 22.4230
L12.0667 22.4706
" />
<path d="M12.0667 22.4706
L11.7810 22.4706
" />
<path d="M11.7810 22.4706
L11.6857 22.4230
" />
<path d="M11.6857 22.4230
L11.6381 22.3754
" />
</g></g>
<g style="fill:#008484; fill-opacity:0.0; 
stroke:#008484; stroke-width:0.1200; stroke-opacity:1; 
stroke-linecap:round; stroke-linejoin:round;">
<path d="M3.8000 0.6250
L5.1300 0.6250
" />
<path d="M3.8000 1.9550
L3.8000 0.6250
" />
<path d="M3.8000 3.2250
L3.8000 21.0650
" />
<path d="M3.8000 3.2250
L6.4000 3.2250
" />
<path d="M3.8000 21.0650
L9.0000 21.0650
" />
<path d="M6.4000 0.6250
L9.0000 0.6250
" />
<path d="M6.4000 3.2250
L6.4000 0.6250
" />
<path d="M9.0000 0.6250
L9.0000 21.0650
" />
<g >
</g>
<g >
</g>
<g >
</g>
<g >
</g>
<g >
</g>
<g >
</g>
</g>
<g style="fill:#000000; fill-opacity:0.0; 
stroke:#000000; stroke-width:0.1200; stroke-opacity:1; 
stroke-linecap:round; stroke-linejoin:round;">
</g>
<g style="fill:#C2C2C2; fill-opacity:0.0; 
stroke:#C2C2C2; stroke-width:0.1200; stroke-opacity:1; 
stroke-linecap:round; stroke-linejoin:round;">
</g>
<g style="fill:#C2C2C2; fill-opacity:0.0; 
stroke:#C2C2C2; stroke-width:0.1500; stroke-opacity:1; 
stroke-linecap:round; stroke-linejoin:round;">
<text x="6.4000" y="26.7050"
textLength="8.9167" font-size="1.3333" lengthAdjust="spacingAndGlyphs"
text-anchor="middle" opacity="0">7.6200 mm</text>
<g class="stroked-text"><desc>7.6200 mm</desc>
<path d="M2.2095 25.6598
L2.8762 25.6598
" />
<path d="M2.8762 25.6598
L2.4476 26.6598
" />
<path d="M3.2571 26.5646
L3.3048 26.6122
" />
<path d="M3.3048 26.6122
L3.2571 26.6598
" />
<path d="M3.2571 26.6598
L3.2095 26.6122
" />
<path d="M3.2095 26.6122
L3.2571 26.5646
" />
<path d="M3.2571 26.5646
L3.2571 26.6598
" />
<path d="M4.1619 25.6598
L3.9714 25.6598
" />
<path d="M3.9714 25.6598
L3.8762 25.7074
" />
<path d="M3.8762 25.7074
L3.8286 25.7551
" />
<path d="M3.8286 25.7551
L3.7333 25.8979
" />
<path d="M3.7333 25.8979
L3.6857 26.0884
" />
<path d="M3.6857 26.0884
L3.6857 26.4693
" />
<path d="M3.6857 26.4693
L3.7333 26.5646
" />
<path d="M3.7333 26.5646
L3.7810 26.6122
" />
<path d="M3.7810 26.6122
L3.8762 26.6598
" />
<path d="M3.8762 26.6598
L4.0667 26.6598
" />
<path d="M4.0667 26.6598
L4.1619 26.6122
" />
<path d="M4.1619 26.6122
L4.2095 26.5646
" />
<path d="M4.2095 26.5646
L4.2571 26.4693
" />
<path d="M4.2571 26.4693
L4.2571 26.2312
" />
<path d="M4.2571 26.2312
L4.2095 26.1360
" />
<path d="M4.2095 26.1360
L4.1619 26.0884
" />
<path d="M4.1619 26.0884
L4.0667 26.0408
" />
<path d="M4.0667 26.0408
L3.8762 26.0408
" />
<path d="M3.8762 26.0408
L3.7810 26.0884
" />
<path d="M3.7810 26.0884
L3.7333 26.1360
" />
<path d="M3.7333 26.1360
L3.6857 26.2312
" />
<path d="M4.6381 25.7551
L4.6857 25.7074
" />
<path d="M4.6857 25.7074
L4.7810 25.6598
" />
<path d="M4.7810 25.6598
L5.0190 25.6598
" />
<path d="M5.0190 25.6598
L5.1143 25.7074
" />
<path d="M5.1143 25.7074
L5.1619 25.7551
" />
<path d="M5.1619 25.7551
L5.2095 25.8503
" />
<path d="M5.2095 25.8503
L5.2095 25.9455
" />
<path d="M5.2095 25.9455
L5.1619 26.0884
" />
<path d="M5.1619 26.0884
L4.5905 26.6598
" />
<path d="M4.5905 26.6598
L5.2095 26.6598
" />
<path d="M5.8286 25.6598
L5.9238 25.6598
" />
<path d="M5.9238 25.6598
L6.0190 25.7074
" />
<path d="M6.0190 25.7074
L6.0667 25.7551
" />
<path d="M6.0667 25.7551
L6.1143 25.8503
" />
<path d="M6.1143 25.8503
L6.1619 26.0408
" />
<path d="M6.1619 26.0408
L6.1619 26.2789
" />
<path d="M6.1619 26.2789
L6.1143 26.4693
" />
<path d="M6.1143 26.4693
L6.0667 26.5646
" />
<path d="M6.0667 26.5646
L6.0190 26.6122
" />
<path d="M6.0190 26.6122
L5.9238 26.6598
" />
<path d="M5.9238 26.6598
L5.8286 26.6598
" />
<path d="M5.8286 26.6598
L5.7333 26.6122
" />
<path d="M5.7333 26.6122
L5.6857 26.5646
" />
<path d="M5.6857 26.5646
L5.6381 26.4693
" />
<path d="M5.6381 26.4693
L5.5905 26.2789
" />
<path d="M5.5905 26.2789
L5.5905 26.0408
" />
<path d="M5.5905 26.0408
L5.6381 25.8503
" />
<path d="M5.6381 25.8503
L5.6857 25.7551
" />
<path d="M5.6857 25.7551
L5.7333 25.7074
" />
<path d="M5.7333 25.7074
L5.8286 25.6598
" />
<path d="M6.7810 25.6598
L6.8762 25.6598
" />
<path d="M6.8762 25.6598
L6.9714 25.7074
" />
<path d="M6.9714 25.7074
L7.0190 25.7551
" />
<path d="M7.0190 25.7551
L7.0667 25.8503
" />
<path d="M7.0667 25.8503
L7.1143 26.0408
" />
<path d="M7.1143 26.0408
L7.1143 26.2789
" />
<path d="M7.1143 26.2789
L7.0667 26.4693
" />
<path d="M7.0667 26.4693
L7.0190 26.5646
" />
<path d="M7.0190 26.5646
L6.9714 26.6122
" />
<path d="M6.9714 26.6122
L6.8762 26.6598
" />
<path d="M6.8762 26.6598
L6.7810 26.6598
" />
<path d="M6.7810 26.6598
L6.6857 26.6122
" />
<path d="M6.6857 26.6122
L6.6381 26.5646
" />
<path d="M6.6381 26.5646
L6.5905 26.4693
" />
<path d="M6.5905 26.4693
L6.5429 26.2789
" />
<path d="M6.5429 26.2789
L6.5429 26.0408
" />
<path d="M6.5429 26.0408
L6.5905 25.8503
" />
<path d="M6.5905 25.8503
L6.6381 25.7551
" />
<path d="M6.6381 25.7551
L6.6857 25.7074
" />
<path d="M6.6857 25.7074
L6.7810 25.6598
" />
<path d="M8.3048 26.6598
L8.3048 25.9932
" />
<path d="M8.3048 26.0884
L8.3524 26.0408
" />
<path d="M8.3524 26.0408
L8.4476 25.9932
" />
<path d="M8.4476 25.9932
L8.5905 25.9932
" />
<path d="M8.5905 25.9932
L8.6857 26.0408
" />
<path d="M8.6857 26.0408
L8.7333 26.1360
" />
<path d="M8.7333 26.1360
L8.7333 26.6598
" />
<path d="M8.7333 26.1360
L8.7810 26.0408
" />
<path d="M8.7810 26.0408
L8.8762 25.9932
" />
<path d="M8.8762 25.9932
L9.0190 25.9932
" />
<path d="M9.0190 25.9932
L9.1143 26.0408
" />
<path d="M9.1143 26.0408
L9.1619 26.1360
" />
<path d="M9.1619 26.1360
L9.1619 26.6598
" />
<path d="M9.6381 26.6598
L9.6381 25.9932
" />
<path d="M9.6381 26.0884
L9.6857 26.0408
" />
<path d="M9.6857 26.0408
L9.7810 25.9932
" />
<path d="M9.7810 25.9932
L9.9238 25.9932
" />
<path d="M9.9238 25.9932
L10.0190 26.0408
" />
<path d="M10.0190 26.0408
L10.0667 26.1360
" />
<path d="M10.0667 26.1360
L10.0667 26.6598
" />
<path d="M10.0667 26.1360
L10.1143 26.0408
" />
<path d="M10.1143 26.0408
L10.2095 25.9932
" />
<path d="M10.2095 25.9932
L10.3524 25.9932
" />
<path d="M10.3524 25.9932
L10.4476 26.0408
" />
<path d="M10.4476 26.0408
L10.4952 26.1360
" />
<path d="M10.4952 26.1360
L10.4952 26.6598
" />
</g></g>
<g style="fill:#C2C2C2; fill-opacity:0.0; 
stroke:#C2C2C2; stroke-width:0.0500; stroke-opacity:1; 
stroke-linecap:round; stroke-linejoin:round;">
<path d="M2.5900 20.2350
L2.5900 27.9414
" />
<path d="M10.2100 20.2350
L10.2100 27.9414
" />
<path d="M2.5900 27.3550
L10.2100 27.3550
" />
<path d="M2.5900 27.3550
L10.2100 27.3550
" />
<path d="M2.5900 27.3550
L3.7165 26.7686
" />
<path d="M2.5900 27.3550
L3.7165 27.9414
" />
<path d="M10.2100 27.3550
L9.0835 27.9414
" />
<path d="M10.2100 27.3550
L9.0835 26.7686
" />
</g>
<g style="fill:#C2C2C2; fill-opacity:0.0; 
stroke:#C2C2C2; stroke-width:0.1500; stroke-opacity:1; 
stroke-linecap:round; stroke-linejoin:round;">
<text x="6.4000" y="24.1650"
textLength="8.9167" font-size="1.3333" lengthAdjust="spacingAndGlyphs"
text-anchor="middle" opacity="0">2.5400 mm</text>
<g class="stroked-text"><desc>2.5400 mm</desc>
<path d="M2.2571 23.2151
L2.3048 23.1674
" />
<path d="M2.3048 23.1674
L2.4000 23.1198
" />
<path d="M2.4000 23.1198
L2.6381 23.1198
" />
<path d="M2.6381 23.1198
L2.7333 23.1674
" />
<path d="M2.7333 23.1674
L2.7810 23.2151
" />
<path d="M2.7810 23.2151
L2.8286 23.3103
" />
<path d="M2.8286 23.3103
L2.8286 23.4055
" />
<path d="M2.8286 23.4055
L2.7810 23.5484
" />
<path d="M2.7810 23.5484
L2.2095 24.1198
" />
<path d="M2.2095 24.1198
L2.8286 24.1198
" />
<path d="M3.2571 24.0246
L3.3048 24.0722
" />
<path d="M3.3048 24.0722
L3.2571 24.1198
" />
<path d="M3.2571 24.1198
L3.2095 24.0722
" />
<path d="M3.2095 24.0722
L3.2571 24.0246
" />
<path d="M3.2571 24.0246
L3.2571 24.1198
" />
<path d="M4.2095 23.1198
L3.7333 23.1198
" />
<path d="M3.7333 23.1198
L3.6857 23.5960
" />
<path d="M3.6857 23.5960
L3.7333 23.5484
" />
<path d="M3.7333 23.5484
L3.8286 23.5008
" />
<path d="M3.8286 23.5008
L4.0667 23.5008
" />
<path d="M4.0667 23.5008
L4.1619 23.5484
" />
<path d="M4.1619 23.5484
L4.2095 23.5960
" />
<path d="M4.2095 23.5960
L4.2571 23.6912
" />
<path d="M4.2571 23.6912
L4.2571 23.9293
" />
<path d="M4.2571 23.9293
L4.2095 24.0246
" />
<path d="M4.2095 24.0246
L4.1619 24.0722
" />
<path d="M4.1619 24.0722
L4.0667 24.1198
" />
<path d="M4.0667 24.1198
L3.8286 24.1198
" />
<path d="M3.8286 24.1198
L3.7333 24.0722
" />
<path d="M3.7333 24.0722
L3.6857 24.0246
" />
<path d="M5.1143 23.4532
L5.1143 24.1198
" />
<path d="M4.8762 23.0722
L4.6381 23.7865
" />
<path d="M4.6381 23.7865
L5.2571 23.7865
" />
<path d="M5.8286 23.1198
L5.9238 23.1198
" />
<path d="M5.9238 23.1198
L6.0190 23.1674
" />
<path d="M6.0190 23.1674
L6.0667 23.2151
" />
<path d="M6.0667 23.2151
L6.1143 23.3103
" />
<path d="M6.1143 23.3103
L6.1619 23.5008
" />
<path d="M6.1619 23.5008
L6.1619 23.7389
" />
<path d="M6.1619 23.7389
L6.1143 23.9293
" />
<path d="M6.1143 23.9293
L6.0667 24.0246
" />
<path d="M6.0667 24.0246
L6.0190 24.0722
" />
<path d="M6.0190 24.0722
L5.9238 24.1198
" />
<path d="M5.9238 24.1198
L5.8286 24.1198
" />
<path d="M5.8286 24.1198
L5.7333 24.0722
" />
<path d="M5.7333 24.0722
L5.6857 24.0246
" />
<path d="M5.6857 24.0246
L5.6381 23.9293
" />
<path d="M5.6381 23.9293
L5.5905 23.7389
" />
<path d="M5.5905 23.7389
L5.5905 23.5008
" />
<path d="M5.5905 23.5008
L5.6381 23.3103
" />
<path d="M5.6381 23.3103
L5.6857 23.2151
" />
<path d="M5.6857 23.2151
L5.7333 23.1674
" />
<path d="M5.7333 23.1674
L5.8286 23.1198
" />
<path d="M6.7810 23.1198
L6.8762 23.1198
" />
<path d="M6.8762 23.1198
L6.9714 23.1674
" />
<path d="M6.9714 23.1674
L7.0190 23.2151
" />
<path d="M7.0190 23.2151
L7.0667 23.3103
" />
<path d="M7.0667 23.3103
L7.1143 23.5008
" />
<path d="M7.1143 23.5008
L7.1143 23.7389
" />
<path d="M7.1143 23.7389
L7.0667 23.9293
" />
<path d="M7.0667 23.9293
L7.0190 24.0246
" />
<path d="M7.0190 24.0246
L6.9714 24.0722
" />
<path d="M6.9714 24.0722
L6.8762 24.1198
" />
<path d="M6.8762 24.1198
L6.7810 24.1198
" />
<path d="M6.7810 24.1198
L6.6857 24.0722
" />
<path d="M6.6857 24.0722
L6.6381 24.0246
" />
<path d="M6.6381 24.0246
L6.5905 23.9293
" />
<path d="M6.5905 23.9293
L6.5429 23.7389
" />
<path d="M6.5429 23.7389
L6.5429 23.5008
" />
<path d="M6.5429 23.5008
L6.5905 23.3103
" />
<path d="M6.5905 23.3103
L6.6381 23.2151
" />
<path d="M6.6381 23.2151
L6.6857 23.1674
" />
<path d="M6.6857 23.1674
L6.7810 23.1198
" />
<path d="M8.3048 24.1198
L8.3048 23.4532
" />
<path d="M8.3048 23.5484
L8.3524 23.5008
" />
<path d="M8.3524 23.5008
L8.4476 23.4532
" />
<path d="M8.4476 23.4532
L8.5905 23.4532
" />
<path d="M8.5905 23.4532
L8.6857 23.5008
" />
<path d="M8.6857 23.5008
L8.7333 23.5960
" />
<path d="M8.7333 23.5960
L8.7333 24.1198
" />
<path d="M8.7333 23.5960
L8.7810 23.5008
" />
<path d="M8.7810 23.5008
L8.8762 23.4532
" />
<path d="M8.8762 23.4532
L9.0190 23.4532
" />
<path d="M9.0190 23.4532
L9.1143 23.5008
" />
<path d="M9.1143 23.5008
L9.1619 23.5960
" />
<path d="M9.1619 23.5960
L9.1619 24.1198
" />
<path d="M9.6381 24.1198
L9.6381 23.4532
" />
<path d="M9.6381 23.5484
L9.6857 23.5008
" />
<path d="M9.6857 23.5008
L9.7810 23.4532
" />
<path d="M9.7810 23.4532
L9.9238 23.4532
" />
<path d="M9.9238 23.4532
L10.0190 23.5008
" />
<path d="M10.0190 23.5008
L10.0667 23.5960
" />
<path d="M10.0667 23.5960
L10.0667 24.1198
" />
<path d="M10.0667 23.5960
L10.1143 23.5008
" />
<path d="M10.1143 23.5008
L10.2095 23.4532
" />
<path d="M10.2095 23.4532
L10.3524 23.4532
" />
<path d="M10.3524 23.4532
L10.4476 23.5008
" />
<path d="M10.4476 23.5008
L10.4952 23.5960
" />
<path d="M10.4952 23.5960
L10.4952 24.1198
" />
</g></g>
<g style="fill:#C2C2C2; fill-opacity:0.0; 
stroke:#C2C2C2; stroke-width:0.0500; stroke-opacity:1; 
stroke-linecap:round; stroke-linejoin:round;">
<path d="M5.1300 20.2350
L5.1300 25.4014
" />
<path d="M7.6700 20.2350
L7.6700 25.4014
" />
<path d="M5.1300 24.8150
L7.6700 24.8150
" />
<path d="M5.1300 24.8150
L7.6700 24.8150
" />
<path d="M5.1300 24.8150
L6.2565 24.2286
" />
<path d="M5.1300 24.8150
L6.2565 25.4014
" />
<path d="M7.6700 24.8150
L6.5435 25.4014
" />
<path d="M7.6700 24.8150
L6.5435 24.2286
" />
<path d="M3.3300 0.1550
L3.3300 21.5050
" />
<path d="M3.3300 21.5050
L9.4800 21.5050
" />
<path d="M9.4800 0.1550
L3.3300 0.1550
" />
<path d="M9.4800 21.5050
L9.4800 0.1550
" />
<g >
</g>
<g >
</g>
<g >
</g>
<g >
</g>
<g >
</g>
<g >
</g>
</g>
<g style="fill:#000000; fill-opacity:0.0; 
stroke:#000000; stroke-width:0.0500; stroke-opacity:1; 
stroke-linecap:round; stroke-linejoin:round;">
</g>
<g style="fill:#C2C200; fill-opacity:0.0; 
stroke:#C2C200; stroke-width:0.0500; stroke-opacity:1; 
stroke-linecap:round; stroke-linejoin:round;">
</g>
<g style="fill:#C2C200; fill-opacity:0.0; 
stroke:#C2C200; stroke-width:0.1000; stroke-opacity:1; 
stroke-linecap:round; stroke-linejoin:round;">
<path d="M12.7500 22.9100
L0.0500 22.9100
" />
<path d="M0.0500 0.0500
L12.7500 0.0500
" />
<path d="M0.0500 22.9100
L0.0500 0.0500
" />
<path d="M12.7500 0.0500
L12.7500 22.9100
" />
<g >
</g>
<g >
</g>
<g >
</g>
<g >
</g>
<g >
</g>
<g >
</g>
</g> 
</svg>
