<?xml version="1.0" standalone="no"?>
 <!DOCTYPE svg PUBLIC "-//W3C//DTD SVG 1.1//EN" 
 "http://www.w3.org/Graphics/SVG/1.1/DTD/svg11.dtd"> 
<svg
  xmlns:svg="http://www.w3.org/2000/svg"
  xmlns="http://www.w3.org/2000/svg"
  xmlns:xlink="http://www.w3.org/1999/xlink"
  version="1.1"
  width="297.0022mm" height="210.0072mm" viewBox="0.0000 0.0000 297.0022 210.0072">
<title>SVG Image created as Adapter-Pfostenstecker.svg date 2023/11/27 21:02:39 </title>
  <desc>Image generated by Eeschema-SVG </desc>
<g style="fill:#000000; fill-opacity:1.0000;stroke:#000000; stroke-opacity:1.0000;
stroke-linecap:round; stroke-linejoin:round;"
 transform="translate(0 0) scale(1 1)">
</g>
<g style="fill:#000000; fill-opacity:0.0; 
stroke:#000000; stroke-width:0.1524; stroke-opacity:1; 
stroke-linecap:round; stroke-linejoin:round;">
<g >
<rect x="110.490000" y="79.883000" width="1.270000" height="0.254000" rx="0.000000" />
<rect x="110.490000" y="77.343000" width="1.270000" height="0.254000" rx="0.000000" />
<rect x="110.490000" y="74.803000" width="1.270000" height="0.254000" rx="0.000000" />
<rect x="110.490000" y="72.263000" width="1.270000" height="0.254000" rx="0.000000" />
<rect x="110.490000" y="69.723000" width="1.270000" height="0.254000" rx="0.000000" />
<rect x="110.490000" y="67.183000" width="1.270000" height="0.254000" rx="0.000000" />
<rect x="110.490000" y="64.643000" width="1.270000" height="0.254000" rx="0.000000" />
<rect x="110.490000" y="62.103000" width="1.270000" height="0.254000" rx="0.000000" />
</g>
<g style="fill:#000000; fill-opacity:0.0; 
stroke:#000000; stroke-width:0.2540; stroke-opacity:1; 
stroke-linecap:round; stroke-linejoin:round;">
<rect x="110.490000" y="60.960000" width="2.540000" height="20.320000" rx="0.000000" />
</g>
<g style="fill:#000000; fill-opacity:0.0; 
stroke:#000000; stroke-width:0.1524; stroke-opacity:1; 
stroke-linecap:round; stroke-linejoin:round;">
<path d="M110.4900 62.2300
L106.6800 62.2300
" />
<text x="108.5850" y="61.9760"
textLength="1.4127" font-size="1.6933" lengthAdjust="spacingAndGlyphs"
text-anchor="middle" opacity="0">1</text>
<g class="stroked-text"><desc>1</desc>
<path d="M108.9479 61.8125
L108.2222 61.8125
" />
<path d="M108.5850 61.8125
L108.5850 60.5425
" />
<path d="M108.5850 60.5425
L108.4641 60.7240
" />
<path d="M108.4641 60.7240
L108.3431 60.8449
" />
<path d="M108.3431 60.8449
L108.2222 60.9054
" />
</g><path d="M110.4900 64.7700
L106.6800 64.7700
" />
<text x="108.5850" y="64.5160"
textLength="1.4127" font-size="1.6933" lengthAdjust="spacingAndGlyphs"
text-anchor="middle" opacity="0">2</text>
<g class="stroked-text"><desc>2</desc>
<path d="M108.2222 63.2035
L108.2826 63.1430
" />
<path d="M108.2826 63.1430
L108.4036 63.0825
" />
<path d="M108.4036 63.0825
L108.7060 63.0825
" />
<path d="M108.7060 63.0825
L108.8269 63.1430
" />
<path d="M108.8269 63.1430
L108.8874 63.2035
" />
<path d="M108.8874 63.2035
L108.9479 63.3244
" />
<path d="M108.9479 63.3244
L108.9479 63.4454
" />
<path d="M108.9479 63.4454
L108.8874 63.6268
" />
<path d="M108.8874 63.6268
L108.1617 64.3525
" />
<path d="M108.1617 64.3525
L108.9479 64.3525
" />
</g><path d="M110.4900 67.3100
L106.6800 67.3100
" />
<text x="108.5850" y="67.0560"
textLength="1.4127" font-size="1.6933" lengthAdjust="spacingAndGlyphs"
text-anchor="middle" opacity="0">3</text>
<g class="stroked-text"><desc>3</desc>
<path d="M108.1617 65.6225
L108.9479 65.6225
" />
<path d="M108.9479 65.6225
L108.5245 66.1063
" />
<path d="M108.5245 66.1063
L108.7060 66.1063
" />
<path d="M108.7060 66.1063
L108.8269 66.1668
" />
<path d="M108.8269 66.1668
L108.8874 66.2273
" />
<path d="M108.8874 66.2273
L108.9479 66.3482
" />
<path d="M108.9479 66.3482
L108.9479 66.6506
" />
<path d="M108.9479 66.6506
L108.8874 66.7716
" />
<path d="M108.8874 66.7716
L108.8269 66.8321
" />
<path d="M108.8269 66.8321
L108.7060 66.8925
" />
<path d="M108.7060 66.8925
L108.3431 66.8925
" />
<path d="M108.3431 66.8925
L108.2222 66.8321
" />
<path d="M108.2222 66.8321
L108.1617 66.7716
" />
</g><path d="M110.4900 69.8500
L106.6800 69.8500
" />
<text x="108.5850" y="69.5960"
textLength="1.4127" font-size="1.6933" lengthAdjust="spacingAndGlyphs"
text-anchor="middle" opacity="0">4</text>
<g class="stroked-text"><desc>4</desc>
<path d="M108.8269 68.5859
L108.8269 69.4325
" />
<path d="M108.5245 68.1021
L108.2222 69.0092
" />
<path d="M108.2222 69.0092
L109.0083 69.0092
" />
</g><path d="M110.4900 72.3900
L106.6800 72.3900
" />
<text x="108.5850" y="72.1360"
textLength="1.4127" font-size="1.6933" lengthAdjust="spacingAndGlyphs"
text-anchor="middle" opacity="0">5</text>
<g class="stroked-text"><desc>5</desc>
<path d="M108.8874 70.7025
L108.2826 70.7025
" />
<path d="M108.2826 70.7025
L108.2222 71.3073
" />
<path d="M108.2222 71.3073
L108.2826 71.2468
" />
<path d="M108.2826 71.2468
L108.4036 71.1863
" />
<path d="M108.4036 71.1863
L108.7060 71.1863
" />
<path d="M108.7060 71.1863
L108.8269 71.2468
" />
<path d="M108.8269 71.2468
L108.8874 71.3073
" />
<path d="M108.8874 71.3073
L108.9479 71.4282
" />
<path d="M108.9479 71.4282
L108.9479 71.7306
" />
<path d="M108.9479 71.7306
L108.8874 71.8516
" />
<path d="M108.8874 71.8516
L108.8269 71.9121
" />
<path d="M108.8269 71.9121
L108.7060 71.9725
" />
<path d="M108.7060 71.9725
L108.4036 71.9725
" />
<path d="M108.4036 71.9725
L108.2826 71.9121
" />
<path d="M108.2826 71.9121
L108.2222 71.8516
" />
</g><path d="M110.4900 74.9300
L106.6800 74.9300
" />
<text x="108.5850" y="74.6760"
textLength="1.4127" font-size="1.6933" lengthAdjust="spacingAndGlyphs"
text-anchor="middle" opacity="0">6</text>
<g class="stroked-text"><desc>6</desc>
<path d="M108.8269 73.2425
L108.5850 73.2425
" />
<path d="M108.5850 73.2425
L108.4641 73.3030
" />
<path d="M108.4641 73.3030
L108.4036 73.3635
" />
<path d="M108.4036 73.3635
L108.2826 73.5449
" />
<path d="M108.2826 73.5449
L108.2222 73.7868
" />
<path d="M108.2222 73.7868
L108.2222 74.2706
" />
<path d="M108.2222 74.2706
L108.2826 74.3916
" />
<path d="M108.2826 74.3916
L108.3431 74.4521
" />
<path d="M108.3431 74.4521
L108.4641 74.5125
" />
<path d="M108.4641 74.5125
L108.7060 74.5125
" />
<path d="M108.7060 74.5125
L108.8269 74.4521
" />
<path d="M108.8269 74.4521
L108.8874 74.3916
" />
<path d="M108.8874 74.3916
L108.9479 74.2706
" />
<path d="M108.9479 74.2706
L108.9479 73.9682
" />
<path d="M108.9479 73.9682
L108.8874 73.8473
" />
<path d="M108.8874 73.8473
L108.8269 73.7868
" />
<path d="M108.8269 73.7868
L108.7060 73.7263
" />
<path d="M108.7060 73.7263
L108.4641 73.7263
" />
<path d="M108.4641 73.7263
L108.3431 73.7868
" />
<path d="M108.3431 73.7868
L108.2826 73.8473
" />
<path d="M108.2826 73.8473
L108.2222 73.9682
" />
</g><path d="M110.4900 77.4700
L106.6800 77.4700
" />
<text x="108.5850" y="77.2160"
textLength="1.4127" font-size="1.6933" lengthAdjust="spacingAndGlyphs"
text-anchor="middle" opacity="0">7</text>
<g class="stroked-text"><desc>7</desc>
<path d="M108.1617 75.7825
L109.0083 75.7825
" />
<path d="M109.0083 75.7825
L108.4641 77.0525
" />
</g><path d="M110.4900 80.0100
L106.6800 80.0100
" />
<text x="108.5850" y="79.7560"
textLength="1.4127" font-size="1.6933" lengthAdjust="spacingAndGlyphs"
text-anchor="middle" opacity="0">8</text>
<g class="stroked-text"><desc>8</desc>
<path d="M108.4641 78.8668
L108.3431 78.8063
" />
<path d="M108.3431 78.8063
L108.2826 78.7459
" />
<path d="M108.2826 78.7459
L108.2222 78.6249
" />
<path d="M108.2222 78.6249
L108.2222 78.5644
" />
<path d="M108.2222 78.5644
L108.2826 78.4435
" />
<path d="M108.2826 78.4435
L108.3431 78.3830
" />
<path d="M108.3431 78.3830
L108.4641 78.3225
" />
<path d="M108.4641 78.3225
L108.7060 78.3225
" />
<path d="M108.7060 78.3225
L108.8269 78.3830
" />
<path d="M108.8269 78.3830
L108.8874 78.4435
" />
<path d="M108.8874 78.4435
L108.9479 78.5644
" />
<path d="M108.9479 78.5644
L108.9479 78.6249
" />
<path d="M108.9479 78.6249
L108.8874 78.7459
" />
<path d="M108.8874 78.7459
L108.8269 78.8063
" />
<path d="M108.8269 78.8063
L108.7060 78.8668
" />
<path d="M108.7060 78.8668
L108.4641 78.8668
" />
<path d="M108.4641 78.8668
L108.3431 78.9273
" />
<path d="M108.3431 78.9273
L108.2826 78.9878
" />
<path d="M108.2826 78.9878
L108.2222 79.1087
" />
<path d="M108.2222 79.1087
L108.2222 79.3506
" />
<path d="M108.2222 79.3506
L108.2826 79.4716
" />
<path d="M108.2826 79.4716
L108.3431 79.5321
" />
<path d="M108.3431 79.5321
L108.4641 79.5925
" />
<path d="M108.4641 79.5925
L108.7060 79.5925
" />
<path d="M108.7060 79.5925
L108.8269 79.5321
" />
<path d="M108.8269 79.5321
L108.8874 79.4716
" />
<path d="M108.8874 79.4716
L108.9479 79.3506
" />
<path d="M108.9479 79.3506
L108.9479 79.1087
" />
<path d="M108.9479 79.1087
L108.8874 78.9878
" />
<path d="M108.8874 78.9878
L108.8269 78.9273
" />
<path d="M108.8269 78.9273
L108.7060 78.8668
" />
</g><text x="111.9315" y="84.4550"
textLength="11.7539" font-size="1.6933" lengthAdjust="spacingAndGlyphs"
text-anchor="middle" opacity="0">Conn_01x08</text>
<g class="stroked-text"><desc>Conn_01x08</desc>
<path d="M107.1842 84.2786
L107.1238 84.3391
" />
<path d="M107.1238 84.3391
L106.9423 84.3995
" />
<path d="M106.9423 84.3995
L106.8214 84.3995
" />
<path d="M106.8214 84.3995
L106.6400 84.3391
" />
<path d="M106.6400 84.3391
L106.5190 84.2181
" />
<path d="M106.5190 84.2181
L106.4585 84.0971
" />
<path d="M106.4585 84.0971
L106.3981 83.8552
" />
<path d="M106.3981 83.8552
L106.3981 83.6738
" />
<path d="M106.3981 83.6738
L106.4585 83.4319
" />
<path d="M106.4585 83.4319
L106.5190 83.3110
" />
<path d="M106.5190 83.3110
L106.6400 83.1900
" />
<path d="M106.6400 83.1900
L106.8214 83.1295
" />
<path d="M106.8214 83.1295
L106.9423 83.1295
" />
<path d="M106.9423 83.1295
L107.1238 83.1900
" />
<path d="M107.1238 83.1900
L107.1842 83.2505
" />
<path d="M107.9100 84.3995
L107.7890 84.3391
" />
<path d="M107.7890 84.3391
L107.7285 84.2786
" />
<path d="M107.7285 84.2786
L107.6681 84.1576
" />
<path d="M107.6681 84.1576
L107.6681 83.7948
" />
<path d="M107.6681 83.7948
L107.7285 83.6738
" />
<path d="M107.7285 83.6738
L107.7890 83.6133
" />
<path d="M107.7890 83.6133
L107.9100 83.5529
" />
<path d="M107.9100 83.5529
L108.0914 83.5529
" />
<path d="M108.0914 83.5529
L108.2123 83.6133
" />
<path d="M108.2123 83.6133
L108.2728 83.6738
" />
<path d="M108.2728 83.6738
L108.3333 83.7948
" />
<path d="M108.3333 83.7948
L108.3333 84.1576
" />
<path d="M108.3333 84.1576
L108.2728 84.2786
" />
<path d="M108.2728 84.2786
L108.2123 84.3391
" />
<path d="M108.2123 84.3391
L108.0914 84.3995
" />
<path d="M108.0914 84.3995
L107.9100 84.3995
" />
<path d="M108.8775 83.5529
L108.8775 84.3995
" />
<path d="M108.8775 83.6738
L108.9380 83.6133
" />
<path d="M108.9380 83.6133
L109.0590 83.5529
" />
<path d="M109.0590 83.5529
L109.2404 83.5529
" />
<path d="M109.2404 83.5529
L109.3613 83.6133
" />
<path d="M109.3613 83.6133
L109.4218 83.7343
" />
<path d="M109.4218 83.7343
L109.4218 84.3995
" />
<path d="M110.0265 83.5529
L110.0265 84.3995
" />
<path d="M110.0265 83.6738
L110.0870 83.6133
" />
<path d="M110.0870 83.6133
L110.2080 83.5529
" />
<path d="M110.2080 83.5529
L110.3894 83.5529
" />
<path d="M110.3894 83.5529
L110.5103 83.6133
" />
<path d="M110.5103 83.6133
L110.5708 83.7343
" />
<path d="M110.5708 83.7343
L110.5708 84.3995
" />
<path d="M110.8732 84.5205
L111.8408 84.5205
" />
<path d="M112.3850 83.1295
L112.5060 83.1295
" />
<path d="M112.5060 83.1295
L112.6269 83.1900
" />
<path d="M112.6269 83.1900
L112.6874 83.2505
" />
<path d="M112.6874 83.2505
L112.7479 83.3714
" />
<path d="M112.7479 83.3714
L112.8084 83.6133
" />
<path d="M112.8084 83.6133
L112.8084 83.9157
" />
<path d="M112.8084 83.9157
L112.7479 84.1576
" />
<path d="M112.7479 84.1576
L112.6874 84.2786
" />
<path d="M112.6874 84.2786
L112.6269 84.3391
" />
<path d="M112.6269 84.3391
L112.5060 84.3995
" />
<path d="M112.5060 84.3995
L112.3850 84.3995
" />
<path d="M112.3850 84.3995
L112.2641 84.3391
" />
<path d="M112.2641 84.3391
L112.2036 84.2786
" />
<path d="M112.2036 84.2786
L112.1431 84.1576
" />
<path d="M112.1431 84.1576
L112.0827 83.9157
" />
<path d="M112.0827 83.9157
L112.0827 83.6133
" />
<path d="M112.0827 83.6133
L112.1431 83.3714
" />
<path d="M112.1431 83.3714
L112.2036 83.2505
" />
<path d="M112.2036 83.2505
L112.2641 83.1900
" />
<path d="M112.2641 83.1900
L112.3850 83.1295
" />
<path d="M114.0179 84.3995
L113.2922 84.3995
" />
<path d="M113.6550 84.3995
L113.6550 83.1295
" />
<path d="M113.6550 83.1295
L113.5341 83.3110
" />
<path d="M113.5341 83.3110
L113.4131 83.4319
" />
<path d="M113.4131 83.4319
L113.2922 83.4924
" />
<path d="M114.4412 84.3995
L115.1064 83.5529
" />
<path d="M114.4412 83.5529
L115.1064 84.3995
" />
<path d="M115.8321 83.1295
L115.9531 83.1295
" />
<path d="M115.9531 83.1295
L116.0740 83.1900
" />
<path d="M116.0740 83.1900
L116.1345 83.2505
" />
<path d="M116.1345 83.2505
L116.1950 83.3714
" />
<path d="M116.1950 83.3714
L116.2555 83.6133
" />
<path d="M116.2555 83.6133
L116.2555 83.9157
" />
<path d="M116.2555 83.9157
L116.1950 84.1576
" />
<path d="M116.1950 84.1576
L116.1345 84.2786
" />
<path d="M116.1345 84.2786
L116.0740 84.3391
" />
<path d="M116.0740 84.3391
L115.9531 84.3995
" />
<path d="M115.9531 84.3995
L115.8321 84.3995
" />
<path d="M115.8321 84.3995
L115.7112 84.3391
" />
<path d="M115.7112 84.3391
L115.6507 84.2786
" />
<path d="M115.6507 84.2786
L115.5902 84.1576
" />
<path d="M115.5902 84.1576
L115.5298 83.9157
" />
<path d="M115.5298 83.9157
L115.5298 83.6133
" />
<path d="M115.5298 83.6133
L115.5902 83.3714
" />
<path d="M115.5902 83.3714
L115.6507 83.2505
" />
<path d="M115.6507 83.2505
L115.7112 83.1900
" />
<path d="M115.7112 83.1900
L115.8321 83.1295
" />
<path d="M116.9812 83.6738
L116.8602 83.6133
" />
<path d="M116.8602 83.6133
L116.7997 83.5529
" />
<path d="M116.7997 83.5529
L116.7393 83.4319
" />
<path d="M116.7393 83.4319
L116.7393 83.3714
" />
<path d="M116.7393 83.3714
L116.7997 83.2505
" />
<path d="M116.7997 83.2505
L116.8602 83.1900
" />
<path d="M116.8602 83.1900
L116.9812 83.1295
" />
<path d="M116.9812 83.1295
L117.2231 83.1295
" />
<path d="M117.2231 83.1295
L117.3440 83.1900
" />
<path d="M117.3440 83.1900
L117.4045 83.2505
" />
<path d="M117.4045 83.2505
L117.4650 83.3714
" />
<path d="M117.4650 83.3714
L117.4650 83.4319
" />
<path d="M117.4650 83.4319
L117.4045 83.5529
" />
<path d="M117.4045 83.5529
L117.3440 83.6133
" />
<path d="M117.3440 83.6133
L117.2231 83.6738
" />
<path d="M117.2231 83.6738
L116.9812 83.6738
" />
<path d="M116.9812 83.6738
L116.8602 83.7343
" />
<path d="M116.8602 83.7343
L116.7997 83.7948
" />
<path d="M116.7997 83.7948
L116.7393 83.9157
" />
<path d="M116.7393 83.9157
L116.7393 84.1576
" />
<path d="M116.7393 84.1576
L116.7997 84.2786
" />
<path d="M116.7997 84.2786
L116.8602 84.3391
" />
<path d="M116.8602 84.3391
L116.9812 84.3995
" />
<path d="M116.9812 84.3995
L117.2231 84.3995
" />
<path d="M117.2231 84.3995
L117.3440 84.3391
" />
<path d="M117.3440 84.3391
L117.4045 84.2786
" />
<path d="M117.4045 84.2786
L117.4650 84.1576
" />
<path d="M117.4650 84.1576
L117.4650 83.9157
" />
<path d="M117.4650 83.9157
L117.4045 83.7948
" />
<path d="M117.4045 83.7948
L117.3440 83.7343
" />
<path d="M117.3440 83.7343
L117.2231 83.6738
" />
</g></g>
</g>
<g style="fill:#000000; fill-opacity:0.0; 
stroke:#000000; stroke-width:0.1524; stroke-opacity:1; 
stroke-linecap:round; stroke-linejoin:round;">
<g >
<rect x="76.200000" y="79.883000" width="1.270000" height="0.254000" rx="0.000000" />
<rect x="76.200000" y="77.343000" width="1.270000" height="0.254000" rx="0.000000" />
<rect x="76.200000" y="74.803000" width="1.270000" height="0.254000" rx="0.000000" />
<rect x="76.200000" y="72.263000" width="1.270000" height="0.254000" rx="0.000000" />
<rect x="76.200000" y="69.723000" width="1.270000" height="0.254000" rx="0.000000" />
<rect x="76.200000" y="67.183000" width="1.270000" height="0.254000" rx="0.000000" />
<rect x="76.200000" y="64.643000" width="1.270000" height="0.254000" rx="0.000000" />
<rect x="76.200000" y="62.103000" width="1.270000" height="0.254000" rx="0.000000" />
</g>
<g style="fill:#000000; fill-opacity:0.0; 
stroke:#000000; stroke-width:0.2540; stroke-opacity:1; 
stroke-linecap:round; stroke-linejoin:round;">
<rect x="74.930000" y="60.960000" width="2.540000" height="20.320000" rx="0.000000" />
</g>
<g style="fill:#000000; fill-opacity:0.0; 
stroke:#000000; stroke-width:0.1524; stroke-opacity:1; 
stroke-linecap:round; stroke-linejoin:round;">
<path d="M77.4700 62.2300
L81.2800 62.2300
" />
<text x="79.3750" y="61.9760"
textLength="1.4127" font-size="1.6933" lengthAdjust="spacingAndGlyphs"
text-anchor="middle" opacity="0">1</text>
<g class="stroked-text"><desc>1</desc>
<path d="M79.7379 61.8125
L79.0122 61.8125
" />
<path d="M79.3750 61.8125
L79.3750 60.5425
" />
<path d="M79.3750 60.5425
L79.2541 60.7240
" />
<path d="M79.2541 60.7240
L79.1331 60.8449
" />
<path d="M79.1331 60.8449
L79.0122 60.9054
" />
</g><path d="M77.4700 64.7700
L81.2800 64.7700
" />
<text x="79.3750" y="64.5160"
textLength="1.4127" font-size="1.6933" lengthAdjust="spacingAndGlyphs"
text-anchor="middle" opacity="0">2</text>
<g class="stroked-text"><desc>2</desc>
<path d="M79.0122 63.2035
L79.0726 63.1430
" />
<path d="M79.0726 63.1430
L79.1936 63.0825
" />
<path d="M79.1936 63.0825
L79.4960 63.0825
" />
<path d="M79.4960 63.0825
L79.6169 63.1430
" />
<path d="M79.6169 63.1430
L79.6774 63.2035
" />
<path d="M79.6774 63.2035
L79.7379 63.3244
" />
<path d="M79.7379 63.3244
L79.7379 63.4454
" />
<path d="M79.7379 63.4454
L79.6774 63.6268
" />
<path d="M79.6774 63.6268
L78.9517 64.3525
" />
<path d="M78.9517 64.3525
L79.7379 64.3525
" />
</g><path d="M77.4700 67.3100
L81.2800 67.3100
" />
<text x="79.3750" y="67.0560"
textLength="1.4127" font-size="1.6933" lengthAdjust="spacingAndGlyphs"
text-anchor="middle" opacity="0">3</text>
<g class="stroked-text"><desc>3</desc>
<path d="M78.9517 65.6225
L79.7379 65.6225
" />
<path d="M79.7379 65.6225
L79.3145 66.1063
" />
<path d="M79.3145 66.1063
L79.4960 66.1063
" />
<path d="M79.4960 66.1063
L79.6169 66.1668
" />
<path d="M79.6169 66.1668
L79.6774 66.2273
" />
<path d="M79.6774 66.2273
L79.7379 66.3482
" />
<path d="M79.7379 66.3482
L79.7379 66.6506
" />
<path d="M79.7379 66.6506
L79.6774 66.7716
" />
<path d="M79.6774 66.7716
L79.6169 66.8321
" />
<path d="M79.6169 66.8321
L79.4960 66.8925
" />
<path d="M79.4960 66.8925
L79.1331 66.8925
" />
<path d="M79.1331 66.8925
L79.0122 66.8321
" />
<path d="M79.0122 66.8321
L78.9517 66.7716
" />
</g><path d="M77.4700 69.8500
L81.2800 69.8500
" />
<text x="79.3750" y="69.5960"
textLength="1.4127" font-size="1.6933" lengthAdjust="spacingAndGlyphs"
text-anchor="middle" opacity="0">4</text>
<g class="stroked-text"><desc>4</desc>
<path d="M79.6169 68.5859
L79.6169 69.4325
" />
<path d="M79.3145 68.1021
L79.0122 69.0092
" />
<path d="M79.0122 69.0092
L79.7983 69.0092
" />
</g><path d="M77.4700 72.3900
L81.2800 72.3900
" />
<text x="79.3750" y="72.1360"
textLength="1.4127" font-size="1.6933" lengthAdjust="spacingAndGlyphs"
text-anchor="middle" opacity="0">5</text>
<g class="stroked-text"><desc>5</desc>
<path d="M79.6774 70.7025
L79.0726 70.7025
" />
<path d="M79.0726 70.7025
L79.0122 71.3073
" />
<path d="M79.0122 71.3073
L79.0726 71.2468
" />
<path d="M79.0726 71.2468
L79.1936 71.1863
" />
<path d="M79.1936 71.1863
L79.4960 71.1863
" />
<path d="M79.4960 71.1863
L79.6169 71.2468
" />
<path d="M79.6169 71.2468
L79.6774 71.3073
" />
<path d="M79.6774 71.3073
L79.7379 71.4282
" />
<path d="M79.7379 71.4282
L79.7379 71.7306
" />
<path d="M79.7379 71.7306
L79.6774 71.8516
" />
<path d="M79.6774 71.8516
L79.6169 71.9121
" />
<path d="M79.6169 71.9121
L79.4960 71.9725
" />
<path d="M79.4960 71.9725
L79.1936 71.9725
" />
<path d="M79.1936 71.9725
L79.0726 71.9121
" />
<path d="M79.0726 71.9121
L79.0122 71.8516
" />
</g><path d="M77.4700 74.9300
L81.2800 74.9300
" />
<text x="79.3750" y="74.6760"
textLength="1.4127" font-size="1.6933" lengthAdjust="spacingAndGlyphs"
text-anchor="middle" opacity="0">6</text>
<g class="stroked-text"><desc>6</desc>
<path d="M79.6169 73.2425
L79.3750 73.2425
" />
<path d="M79.3750 73.2425
L79.2541 73.3030
" />
<path d="M79.2541 73.3030
L79.1936 73.3635
" />
<path d="M79.1936 73.3635
L79.0726 73.5449
" />
<path d="M79.0726 73.5449
L79.0122 73.7868
" />
<path d="M79.0122 73.7868
L79.0122 74.2706
" />
<path d="M79.0122 74.2706
L79.0726 74.3916
" />
<path d="M79.0726 74.3916
L79.1331 74.4521
" />
<path d="M79.1331 74.4521
L79.2541 74.5125
" />
<path d="M79.2541 74.5125
L79.4960 74.5125
" />
<path d="M79.4960 74.5125
L79.6169 74.4521
" />
<path d="M79.6169 74.4521
L79.6774 74.3916
" />
<path d="M79.6774 74.3916
L79.7379 74.2706
" />
<path d="M79.7379 74.2706
L79.7379 73.9682
" />
<path d="M79.7379 73.9682
L79.6774 73.8473
" />
<path d="M79.6774 73.8473
L79.6169 73.7868
" />
<path d="M79.6169 73.7868
L79.4960 73.7263
" />
<path d="M79.4960 73.7263
L79.2541 73.7263
" />
<path d="M79.2541 73.7263
L79.1331 73.7868
" />
<path d="M79.1331 73.7868
L79.0726 73.8473
" />
<path d="M79.0726 73.8473
L79.0122 73.9682
" />
</g><path d="M77.4700 77.4700
L81.2800 77.4700
" />
<text x="79.3750" y="77.2160"
textLength="1.4127" font-size="1.6933" lengthAdjust="spacingAndGlyphs"
text-anchor="middle" opacity="0">7</text>
<g class="stroked-text"><desc>7</desc>
<path d="M78.9517 75.7825
L79.7983 75.7825
" />
<path d="M79.7983 75.7825
L79.2541 77.0525
" />
</g><path d="M77.4700 80.0100
L81.2800 80.0100
" />
<text x="79.3750" y="79.7560"
textLength="1.4127" font-size="1.6933" lengthAdjust="spacingAndGlyphs"
text-anchor="middle" opacity="0">8</text>
<g class="stroked-text"><desc>8</desc>
<path d="M79.2541 78.8668
L79.1331 78.8063
" />
<path d="M79.1331 78.8063
L79.0726 78.7459
" />
<path d="M79.0726 78.7459
L79.0122 78.6249
" />
<path d="M79.0122 78.6249
L79.0122 78.5644
" />
<path d="M79.0122 78.5644
L79.0726 78.4435
" />
<path d="M79.0726 78.4435
L79.1331 78.3830
" />
<path d="M79.1331 78.3830
L79.2541 78.3225
" />
<path d="M79.2541 78.3225
L79.4960 78.3225
" />
<path d="M79.4960 78.3225
L79.6169 78.3830
" />
<path d="M79.6169 78.3830
L79.6774 78.4435
" />
<path d="M79.6774 78.4435
L79.7379 78.5644
" />
<path d="M79.7379 78.5644
L79.7379 78.6249
" />
<path d="M79.7379 78.6249
L79.6774 78.7459
" />
<path d="M79.6774 78.7459
L79.6169 78.8063
" />
<path d="M79.6169 78.8063
L79.4960 78.8668
" />
<path d="M79.4960 78.8668
L79.2541 78.8668
" />
<path d="M79.2541 78.8668
L79.1331 78.9273
" />
<path d="M79.1331 78.9273
L79.0726 78.9878
" />
<path d="M79.0726 78.9878
L79.0122 79.1087
" />
<path d="M79.0122 79.1087
L79.0122 79.3506
" />
<path d="M79.0122 79.3506
L79.0726 79.4716
" />
<path d="M79.0726 79.4716
L79.1331 79.5321
" />
<path d="M79.1331 79.5321
L79.2541 79.5925
" />
<path d="M79.2541 79.5925
L79.4960 79.5925
" />
<path d="M79.4960 79.5925
L79.6169 79.5321
" />
<path d="M79.6169 79.5321
L79.6774 79.4716
" />
<path d="M79.6774 79.4716
L79.7379 79.3506
" />
<path d="M79.7379 79.3506
L79.7379 79.1087
" />
<path d="M79.7379 79.1087
L79.6774 78.9878
" />
<path d="M79.6774 78.9878
L79.6169 78.9273
" />
<path d="M79.6169 78.9273
L79.4960 78.8668
" />
</g><text x="76.1999" y="84.4550"
textLength="11.7539" font-size="1.6933" lengthAdjust="spacingAndGlyphs"
text-anchor="middle" opacity="0">Conn_01x08</text>
<g class="stroked-text"><desc>Conn_01x08</desc>
<path d="M71.4526 84.2786
L71.3922 84.3391
" />
<path d="M71.3922 84.3391
L71.2107 84.3995
" />
<path d="M71.2107 84.3995
L71.0898 84.3995
" />
<path d="M71.0898 84.3995
L70.9084 84.3391
" />
<path d="M70.9084 84.3391
L70.7874 84.2181
" />
<path d="M70.7874 84.2181
L70.7269 84.0971
" />
<path d="M70.7269 84.0971
L70.6665 83.8552
" />
<path d="M70.6665 83.8552
L70.6665 83.6738
" />
<path d="M70.6665 83.6738
L70.7269 83.4319
" />
<path d="M70.7269 83.4319
L70.7874 83.3110
" />
<path d="M70.7874 83.3110
L70.9084 83.1900
" />
<path d="M70.9084 83.1900
L71.0898 83.1295
" />
<path d="M71.0898 83.1295
L71.2107 83.1295
" />
<path d="M71.2107 83.1295
L71.3922 83.1900
" />
<path d="M71.3922 83.1900
L71.4526 83.2505
" />
<path d="M72.1784 84.3995
L72.0574 84.3391
" />
<path d="M72.0574 84.3391
L71.9969 84.2786
" />
<path d="M71.9969 84.2786
L71.9365 84.1576
" />
<path d="M71.9365 84.1576
L71.9365 83.7948
" />
<path d="M71.9365 83.7948
L71.9969 83.6738
" />
<path d="M71.9969 83.6738
L72.0574 83.6133
" />
<path d="M72.0574 83.6133
L72.1784 83.5529
" />
<path d="M72.1784 83.5529
L72.3598 83.5529
" />
<path d="M72.3598 83.5529
L72.4807 83.6133
" />
<path d="M72.4807 83.6133
L72.5412 83.6738
" />
<path d="M72.5412 83.6738
L72.6017 83.7948
" />
<path d="M72.6017 83.7948
L72.6017 84.1576
" />
<path d="M72.6017 84.1576
L72.5412 84.2786
" />
<path d="M72.5412 84.2786
L72.4807 84.3391
" />
<path d="M72.4807 84.3391
L72.3598 84.3995
" />
<path d="M72.3598 84.3995
L72.1784 84.3995
" />
<path d="M73.1459 83.5529
L73.1459 84.3995
" />
<path d="M73.1459 83.6738
L73.2064 83.6133
" />
<path d="M73.2064 83.6133
L73.3274 83.5529
" />
<path d="M73.3274 83.5529
L73.5088 83.5529
" />
<path d="M73.5088 83.5529
L73.6297 83.6133
" />
<path d="M73.6297 83.6133
L73.6902 83.7343
" />
<path d="M73.6902 83.7343
L73.6902 84.3995
" />
<path d="M74.2949 83.5529
L74.2949 84.3995
" />
<path d="M74.2949 83.6738
L74.3554 83.6133
" />
<path d="M74.3554 83.6133
L74.4764 83.5529
" />
<path d="M74.4764 83.5529
L74.6578 83.5529
" />
<path d="M74.6578 83.5529
L74.7787 83.6133
" />
<path d="M74.7787 83.6133
L74.8392 83.7343
" />
<path d="M74.8392 83.7343
L74.8392 84.3995
" />
<path d="M75.1416 84.5205
L76.1092 84.5205
" />
<path d="M76.6534 83.1295
L76.7744 83.1295
" />
<path d="M76.7744 83.1295
L76.8953 83.1900
" />
<path d="M76.8953 83.1900
L76.9558 83.2505
" />
<path d="M76.9558 83.2505
L77.0163 83.3714
" />
<path d="M77.0163 83.3714
L77.0768 83.6133
" />
<path d="M77.0768 83.6133
L77.0768 83.9157
" />
<path d="M77.0768 83.9157
L77.0163 84.1576
" />
<path d="M77.0163 84.1576
L76.9558 84.2786
" />
<path d="M76.9558 84.2786
L76.8953 84.3391
" />
<path d="M76.8953 84.3391
L76.7744 84.3995
" />
<path d="M76.7744 84.3995
L76.6534 84.3995
" />
<path d="M76.6534 84.3995
L76.5325 84.3391
" />
<path d="M76.5325 84.3391
L76.4720 84.2786
" />
<path d="M76.4720 84.2786
L76.4115 84.1576
" />
<path d="M76.4115 84.1576
L76.3511 83.9157
" />
<path d="M76.3511 83.9157
L76.3511 83.6133
" />
<path d="M76.3511 83.6133
L76.4115 83.3714
" />
<path d="M76.4115 83.3714
L76.4720 83.2505
" />
<path d="M76.4720 83.2505
L76.5325 83.1900
" />
<path d="M76.5325 83.1900
L76.6534 83.1295
" />
<path d="M78.2863 84.3995
L77.5606 84.3995
" />
<path d="M77.9234 84.3995
L77.9234 83.1295
" />
<path d="M77.9234 83.1295
L77.8025 83.3110
" />
<path d="M77.8025 83.3110
L77.6815 83.4319
" />
<path d="M77.6815 83.4319
L77.5606 83.4924
" />
<path d="M78.7096 84.3995
L79.3748 83.5529
" />
<path d="M78.7096 83.5529
L79.3748 84.3995
" />
<path d="M80.1005 83.1295
L80.2215 83.1295
" />
<path d="M80.2215 83.1295
L80.3424 83.1900
" />
<path d="M80.3424 83.1900
L80.4029 83.2505
" />
<path d="M80.4029 83.2505
L80.4634 83.3714
" />
<path d="M80.4634 83.3714
L80.5239 83.6133
" />
<path d="M80.5239 83.6133
L80.5239 83.9157
" />
<path d="M80.5239 83.9157
L80.4634 84.1576
" />
<path d="M80.4634 84.1576
L80.4029 84.2786
" />
<path d="M80.4029 84.2786
L80.3424 84.3391
" />
<path d="M80.3424 84.3391
L80.2215 84.3995
" />
<path d="M80.2215 84.3995
L80.1005 84.3995
" />
<path d="M80.1005 84.3995
L79.9796 84.3391
" />
<path d="M79.9796 84.3391
L79.9191 84.2786
" />
<path d="M79.9191 84.2786
L79.8586 84.1576
" />
<path d="M79.8586 84.1576
L79.7982 83.9157
" />
<path d="M79.7982 83.9157
L79.7982 83.6133
" />
<path d="M79.7982 83.6133
L79.8586 83.3714
" />
<path d="M79.8586 83.3714
L79.9191 83.2505
" />
<path d="M79.9191 83.2505
L79.9796 83.1900
" />
<path d="M79.9796 83.1900
L80.1005 83.1295
" />
<path d="M81.2496 83.6738
L81.1286 83.6133
" />
<path d="M81.1286 83.6133
L81.0681 83.5529
" />
<path d="M81.0681 83.5529
L81.0077 83.4319
" />
<path d="M81.0077 83.4319
L81.0077 83.3714
" />
<path d="M81.0077 83.3714
L81.0681 83.2505
" />
<path d="M81.0681 83.2505
L81.1286 83.1900
" />
<path d="M81.1286 83.1900
L81.2496 83.1295
" />
<path d="M81.2496 83.1295
L81.4915 83.1295
" />
<path d="M81.4915 83.1295
L81.6124 83.1900
" />
<path d="M81.6124 83.1900
L81.6729 83.2505
" />
<path d="M81.6729 83.2505
L81.7334 83.3714
" />
<path d="M81.7334 83.3714
L81.7334 83.4319
" />
<path d="M81.7334 83.4319
L81.6729 83.5529
" />
<path d="M81.6729 83.5529
L81.6124 83.6133
" />
<path d="M81.6124 83.6133
L81.4915 83.6738
" />
<path d="M81.4915 83.6738
L81.2496 83.6738
" />
<path d="M81.2496 83.6738
L81.1286 83.7343
" />
<path d="M81.1286 83.7343
L81.0681 83.7948
" />
<path d="M81.0681 83.7948
L81.0077 83.9157
" />
<path d="M81.0077 83.9157
L81.0077 84.1576
" />
<path d="M81.0077 84.1576
L81.0681 84.2786
" />
<path d="M81.0681 84.2786
L81.1286 84.3391
" />
<path d="M81.1286 84.3391
L81.2496 84.3995
" />
<path d="M81.2496 84.3995
L81.4915 84.3995
" />
<path d="M81.4915 84.3995
L81.6124 84.3391
" />
<path d="M81.6124 84.3391
L81.6729 84.2786
" />
<path d="M81.6729 84.2786
L81.7334 84.1576
" />
<path d="M81.7334 84.1576
L81.7334 83.9157
" />
<path d="M81.7334 83.9157
L81.6729 83.7948
" />
<path d="M81.6729 83.7948
L81.6124 83.7343
" />
<path d="M81.6124 83.7343
L81.4915 83.6738
" />
</g></g>
</g>
<g style="fill:#000000; fill-opacity:0.0; 
stroke:#000000; stroke-width:0.1524; stroke-opacity:1; 
stroke-linecap:round; stroke-linejoin:round;">
<g >
<rect x="91.440000" y="79.883000" width="1.270000" height="0.254000" rx="0.000000" />
<rect x="91.440000" y="77.343000" width="1.270000" height="0.254000" rx="0.000000" />
<rect x="91.440000" y="74.803000" width="1.270000" height="0.254000" rx="0.000000" />
<rect x="91.440000" y="72.263000" width="1.270000" height="0.254000" rx="0.000000" />
<rect x="91.440000" y="69.723000" width="1.270000" height="0.254000" rx="0.000000" />
<rect x="91.440000" y="67.183000" width="1.270000" height="0.254000" rx="0.000000" />
<rect x="91.440000" y="64.643000" width="1.270000" height="0.254000" rx="0.000000" />
<rect x="91.440000" y="62.103000" width="1.270000" height="0.254000" rx="0.000000" />
</g>
<g style="fill:#000000; fill-opacity:0.0; 
stroke:#000000; stroke-width:0.2540; stroke-opacity:1; 
stroke-linecap:round; stroke-linejoin:round;">
<rect x="91.440000" y="60.960000" width="5.080000" height="20.320000" rx="0.000000" />
</g>
<g style="fill:#000000; fill-opacity:0.0; 
stroke:#000000; stroke-width:0.1524; stroke-opacity:1; 
stroke-linecap:round; stroke-linejoin:round;">
<rect x="95.250000" y="79.883000" width="1.270000" height="0.254000" rx="0.000000" />
<rect x="95.250000" y="77.343000" width="1.270000" height="0.254000" rx="0.000000" />
<rect x="95.250000" y="74.803000" width="1.270000" height="0.254000" rx="0.000000" />
<rect x="95.250000" y="72.263000" width="1.270000" height="0.254000" rx="0.000000" />
<rect x="95.250000" y="69.723000" width="1.270000" height="0.254000" rx="0.000000" />
<rect x="95.250000" y="67.183000" width="1.270000" height="0.254000" rx="0.000000" />
<rect x="95.250000" y="64.643000" width="1.270000" height="0.254000" rx="0.000000" />
<rect x="95.250000" y="62.103000" width="1.270000" height="0.254000" rx="0.000000" />
<path d="M91.4400 62.2300
L87.6300 62.2300
" />
<text x="89.5350" y="61.9760"
textLength="1.4127" font-size="1.6933" lengthAdjust="spacingAndGlyphs"
text-anchor="middle" opacity="0">1</text>
<g class="stroked-text"><desc>1</desc>
<path d="M89.8979 61.8125
L89.1722 61.8125
" />
<path d="M89.5350 61.8125
L89.5350 60.5425
" />
<path d="M89.5350 60.5425
L89.4141 60.7240
" />
<path d="M89.4141 60.7240
L89.2931 60.8449
" />
<path d="M89.2931 60.8449
L89.1722 60.9054
" />
</g><path d="M96.5200 72.3900
L100.3300 72.3900
" />
<text x="98.4250" y="72.1360"
textLength="2.6222" font-size="1.6933" lengthAdjust="spacingAndGlyphs"
text-anchor="middle" opacity="0">10</text>
<g class="stroked-text"><desc>10</desc>
<path d="M98.1831 71.9725
L97.4574 71.9725
" />
<path d="M97.8202 71.9725
L97.8202 70.7025
" />
<path d="M97.8202 70.7025
L97.6993 70.8840
" />
<path d="M97.6993 70.8840
L97.5783 71.0049
" />
<path d="M97.5783 71.0049
L97.4574 71.0654
" />
<path d="M98.9692 70.7025
L99.0902 70.7025
" />
<path d="M99.0902 70.7025
L99.2111 70.7630
" />
<path d="M99.2111 70.7630
L99.2716 70.8235
" />
<path d="M99.2716 70.8235
L99.3321 70.9444
" />
<path d="M99.3321 70.9444
L99.3926 71.1863
" />
<path d="M99.3926 71.1863
L99.3926 71.4887
" />
<path d="M99.3926 71.4887
L99.3321 71.7306
" />
<path d="M99.3321 71.7306
L99.2716 71.8516
" />
<path d="M99.2716 71.8516
L99.2111 71.9121
" />
<path d="M99.2111 71.9121
L99.0902 71.9725
" />
<path d="M99.0902 71.9725
L98.9692 71.9725
" />
<path d="M98.9692 71.9725
L98.8483 71.9121
" />
<path d="M98.8483 71.9121
L98.7878 71.8516
" />
<path d="M98.7878 71.8516
L98.7273 71.7306
" />
<path d="M98.7273 71.7306
L98.6669 71.4887
" />
<path d="M98.6669 71.4887
L98.6669 71.1863
" />
<path d="M98.6669 71.1863
L98.7273 70.9444
" />
<path d="M98.7273 70.9444
L98.7878 70.8235
" />
<path d="M98.7878 70.8235
L98.8483 70.7630
" />
<path d="M98.8483 70.7630
L98.9692 70.7025
" />
</g><path d="M91.4400 74.9300
L87.6300 74.9300
" />
<text x="89.5350" y="74.6760"
textLength="2.6222" font-size="1.6933" lengthAdjust="spacingAndGlyphs"
text-anchor="middle" opacity="0">11</text>
<g class="stroked-text"><desc>11</desc>
<path d="M89.2931 74.5125
L88.5674 74.5125
" />
<path d="M88.9302 74.5125
L88.9302 73.2425
" />
<path d="M88.9302 73.2425
L88.8093 73.4240
" />
<path d="M88.8093 73.4240
L88.6883 73.5449
" />
<path d="M88.6883 73.5449
L88.5674 73.6054
" />
<path d="M90.5026 74.5125
L89.7769 74.5125
" />
<path d="M90.1397 74.5125
L90.1397 73.2425
" />
<path d="M90.1397 73.2425
L90.0188 73.4240
" />
<path d="M90.0188 73.4240
L89.8978 73.5449
" />
<path d="M89.8978 73.5449
L89.7769 73.6054
" />
</g><path d="M96.5200 74.9300
L100.3300 74.9300
" />
<text x="98.4250" y="74.6760"
textLength="2.6222" font-size="1.6933" lengthAdjust="spacingAndGlyphs"
text-anchor="middle" opacity="0">12</text>
<g class="stroked-text"><desc>12</desc>
<path d="M98.1831 74.5125
L97.4574 74.5125
" />
<path d="M97.8202 74.5125
L97.8202 73.2425
" />
<path d="M97.8202 73.2425
L97.6993 73.4240
" />
<path d="M97.6993 73.4240
L97.5783 73.5449
" />
<path d="M97.5783 73.5449
L97.4574 73.6054
" />
<path d="M98.6669 73.3635
L98.7273 73.3030
" />
<path d="M98.7273 73.3030
L98.8483 73.2425
" />
<path d="M98.8483 73.2425
L99.1507 73.2425
" />
<path d="M99.1507 73.2425
L99.2716 73.3030
" />
<path d="M99.2716 73.3030
L99.3321 73.3635
" />
<path d="M99.3321 73.3635
L99.3926 73.4844
" />
<path d="M99.3926 73.4844
L99.3926 73.6054
" />
<path d="M99.3926 73.6054
L99.3321 73.7868
" />
<path d="M99.3321 73.7868
L98.6064 74.5125
" />
<path d="M98.6064 74.5125
L99.3926 74.5125
" />
</g><path d="M91.4400 77.4700
L87.6300 77.4700
" />
<text x="89.5350" y="77.2160"
textLength="2.6222" font-size="1.6933" lengthAdjust="spacingAndGlyphs"
text-anchor="middle" opacity="0">13</text>
<g class="stroked-text"><desc>13</desc>
<path d="M89.2931 77.0525
L88.5674 77.0525
" />
<path d="M88.9302 77.0525
L88.9302 75.7825
" />
<path d="M88.9302 75.7825
L88.8093 75.9640
" />
<path d="M88.8093 75.9640
L88.6883 76.0849
" />
<path d="M88.6883 76.0849
L88.5674 76.1454
" />
<path d="M89.7164 75.7825
L90.5026 75.7825
" />
<path d="M90.5026 75.7825
L90.0792 76.2663
" />
<path d="M90.0792 76.2663
L90.2607 76.2663
" />
<path d="M90.2607 76.2663
L90.3816 76.3268
" />
<path d="M90.3816 76.3268
L90.4421 76.3873
" />
<path d="M90.4421 76.3873
L90.5026 76.5082
" />
<path d="M90.5026 76.5082
L90.5026 76.8106
" />
<path d="M90.5026 76.8106
L90.4421 76.9316
" />
<path d="M90.4421 76.9316
L90.3816 76.9921
" />
<path d="M90.3816 76.9921
L90.2607 77.0525
" />
<path d="M90.2607 77.0525
L89.8978 77.0525
" />
<path d="M89.8978 77.0525
L89.7769 76.9921
" />
<path d="M89.7769 76.9921
L89.7164 76.9316
" />
</g><path d="M96.5200 77.4700
L100.3300 77.4700
" />
<text x="98.4250" y="77.2160"
textLength="2.6222" font-size="1.6933" lengthAdjust="spacingAndGlyphs"
text-anchor="middle" opacity="0">14</text>
<g class="stroked-text"><desc>14</desc>
<path d="M98.1831 77.0525
L97.4574 77.0525
" />
<path d="M97.8202 77.0525
L97.8202 75.7825
" />
<path d="M97.8202 75.7825
L97.6993 75.9640
" />
<path d="M97.6993 75.9640
L97.5783 76.0849
" />
<path d="M97.5783 76.0849
L97.4574 76.1454
" />
<path d="M99.2716 76.2059
L99.2716 77.0525
" />
<path d="M98.9692 75.7221
L98.6669 76.6292
" />
<path d="M98.6669 76.6292
L99.4530 76.6292
" />
</g><path d="M91.4400 80.0100
L87.6300 80.0100
" />
<text x="89.5350" y="79.7560"
textLength="2.6222" font-size="1.6933" lengthAdjust="spacingAndGlyphs"
text-anchor="middle" opacity="0">15</text>
<g class="stroked-text"><desc>15</desc>
<path d="M89.2931 79.5925
L88.5674 79.5925
" />
<path d="M88.9302 79.5925
L88.9302 78.3225
" />
<path d="M88.9302 78.3225
L88.8093 78.5040
" />
<path d="M88.8093 78.5040
L88.6883 78.6249
" />
<path d="M88.6883 78.6249
L88.5674 78.6854
" />
<path d="M90.4421 78.3225
L89.8373 78.3225
" />
<path d="M89.8373 78.3225
L89.7769 78.9273
" />
<path d="M89.7769 78.9273
L89.8373 78.8668
" />
<path d="M89.8373 78.8668
L89.9583 78.8063
" />
<path d="M89.9583 78.8063
L90.2607 78.8063
" />
<path d="M90.2607 78.8063
L90.3816 78.8668
" />
<path d="M90.3816 78.8668
L90.4421 78.9273
" />
<path d="M90.4421 78.9273
L90.5026 79.0482
" />
<path d="M90.5026 79.0482
L90.5026 79.3506
" />
<path d="M90.5026 79.3506
L90.4421 79.4716
" />
<path d="M90.4421 79.4716
L90.3816 79.5321
" />
<path d="M90.3816 79.5321
L90.2607 79.5925
" />
<path d="M90.2607 79.5925
L89.9583 79.5925
" />
<path d="M89.9583 79.5925
L89.8373 79.5321
" />
<path d="M89.8373 79.5321
L89.7769 79.4716
" />
</g><path d="M96.5200 80.0100
L100.3300 80.0100
" />
<text x="98.4250" y="79.7560"
textLength="2.6222" font-size="1.6933" lengthAdjust="spacingAndGlyphs"
text-anchor="middle" opacity="0">16</text>
<g class="stroked-text"><desc>16</desc>
<path d="M98.1831 79.5925
L97.4574 79.5925
" />
<path d="M97.8202 79.5925
L97.8202 78.3225
" />
<path d="M97.8202 78.3225
L97.6993 78.5040
" />
<path d="M97.6993 78.5040
L97.5783 78.6249
" />
<path d="M97.5783 78.6249
L97.4574 78.6854
" />
<path d="M99.2716 78.3225
L99.0297 78.3225
" />
<path d="M99.0297 78.3225
L98.9088 78.3830
" />
<path d="M98.9088 78.3830
L98.8483 78.4435
" />
<path d="M98.8483 78.4435
L98.7273 78.6249
" />
<path d="M98.7273 78.6249
L98.6669 78.8668
" />
<path d="M98.6669 78.8668
L98.6669 79.3506
" />
<path d="M98.6669 79.3506
L98.7273 79.4716
" />
<path d="M98.7273 79.4716
L98.7878 79.5321
" />
<path d="M98.7878 79.5321
L98.9088 79.5925
" />
<path d="M98.9088 79.5925
L99.1507 79.5925
" />
<path d="M99.1507 79.5925
L99.2716 79.5321
" />
<path d="M99.2716 79.5321
L99.3321 79.4716
" />
<path d="M99.3321 79.4716
L99.3926 79.3506
" />
<path d="M99.3926 79.3506
L99.3926 79.0482
" />
<path d="M99.3926 79.0482
L99.3321 78.9273
" />
<path d="M99.3321 78.9273
L99.2716 78.8668
" />
<path d="M99.2716 78.8668
L99.1507 78.8063
" />
<path d="M99.1507 78.8063
L98.9088 78.8063
" />
<path d="M98.9088 78.8063
L98.7878 78.8668
" />
<path d="M98.7878 78.8668
L98.7273 78.9273
" />
<path d="M98.7273 78.9273
L98.6669 79.0482
" />
</g><path d="M96.5200 62.2300
L100.3300 62.2300
" />
<text x="98.4250" y="61.9760"
textLength="1.4127" font-size="1.6933" lengthAdjust="spacingAndGlyphs"
text-anchor="middle" opacity="0">2</text>
<g class="stroked-text"><desc>2</desc>
<path d="M98.0622 60.6635
L98.1226 60.6030
" />
<path d="M98.1226 60.6030
L98.2436 60.5425
" />
<path d="M98.2436 60.5425
L98.5460 60.5425
" />
<path d="M98.5460 60.5425
L98.6669 60.6030
" />
<path d="M98.6669 60.6030
L98.7274 60.6635
" />
<path d="M98.7274 60.6635
L98.7879 60.7844
" />
<path d="M98.7879 60.7844
L98.7879 60.9054
" />
<path d="M98.7879 60.9054
L98.7274 61.0868
" />
<path d="M98.7274 61.0868
L98.0017 61.8125
" />
<path d="M98.0017 61.8125
L98.7879 61.8125
" />
</g><path d="M91.4400 64.7700
L87.6300 64.7700
" />
<text x="89.5350" y="64.5160"
textLength="1.4127" font-size="1.6933" lengthAdjust="spacingAndGlyphs"
text-anchor="middle" opacity="0">3</text>
<g class="stroked-text"><desc>3</desc>
<path d="M89.1117 63.0825
L89.8979 63.0825
" />
<path d="M89.8979 63.0825
L89.4745 63.5663
" />
<path d="M89.4745 63.5663
L89.6560 63.5663
" />
<path d="M89.6560 63.5663
L89.7769 63.6268
" />
<path d="M89.7769 63.6268
L89.8374 63.6873
" />
<path d="M89.8374 63.6873
L89.8979 63.8082
" />
<path d="M89.8979 63.8082
L89.8979 64.1106
" />
<path d="M89.8979 64.1106
L89.8374 64.2316
" />
<path d="M89.8374 64.2316
L89.7769 64.2921
" />
<path d="M89.7769 64.2921
L89.6560 64.3525
" />
<path d="M89.6560 64.3525
L89.2931 64.3525
" />
<path d="M89.2931 64.3525
L89.1722 64.2921
" />
<path d="M89.1722 64.2921
L89.1117 64.2316
" />
</g><path d="M96.5200 64.7700
L100.3300 64.7700
" />
<text x="98.4250" y="64.5160"
textLength="1.4127" font-size="1.6933" lengthAdjust="spacingAndGlyphs"
text-anchor="middle" opacity="0">4</text>
<g class="stroked-text"><desc>4</desc>
<path d="M98.6669 63.5059
L98.6669 64.3525
" />
<path d="M98.3645 63.0221
L98.0622 63.9292
" />
<path d="M98.0622 63.9292
L98.8483 63.9292
" />
</g><path d="M91.4400 67.3100
L87.6300 67.3100
" />
<text x="89.5350" y="67.0560"
textLength="1.4127" font-size="1.6933" lengthAdjust="spacingAndGlyphs"
text-anchor="middle" opacity="0">5</text>
<g class="stroked-text"><desc>5</desc>
<path d="M89.8374 65.6225
L89.2326 65.6225
" />
<path d="M89.2326 65.6225
L89.1722 66.2273
" />
<path d="M89.1722 66.2273
L89.2326 66.1668
" />
<path d="M89.2326 66.1668
L89.3536 66.1063
" />
<path d="M89.3536 66.1063
L89.6560 66.1063
" />
<path d="M89.6560 66.1063
L89.7769 66.1668
" />
<path d="M89.7769 66.1668
L89.8374 66.2273
" />
<path d="M89.8374 66.2273
L89.8979 66.3482
" />
<path d="M89.8979 66.3482
L89.8979 66.6506
" />
<path d="M89.8979 66.6506
L89.8374 66.7716
" />
<path d="M89.8374 66.7716
L89.7769 66.8321
" />
<path d="M89.7769 66.8321
L89.6560 66.8925
" />
<path d="M89.6560 66.8925
L89.3536 66.8925
" />
<path d="M89.3536 66.8925
L89.2326 66.8321
" />
<path d="M89.2326 66.8321
L89.1722 66.7716
" />
</g><path d="M96.5200 67.3100
L100.3300 67.3100
" />
<text x="98.4250" y="67.0560"
textLength="1.4127" font-size="1.6933" lengthAdjust="spacingAndGlyphs"
text-anchor="middle" opacity="0">6</text>
<g class="stroked-text"><desc>6</desc>
<path d="M98.6669 65.6225
L98.4250 65.6225
" />
<path d="M98.4250 65.6225
L98.3041 65.6830
" />
<path d="M98.3041 65.6830
L98.2436 65.7435
" />
<path d="M98.2436 65.7435
L98.1226 65.9249
" />
<path d="M98.1226 65.9249
L98.0622 66.1668
" />
<path d="M98.0622 66.1668
L98.0622 66.6506
" />
<path d="M98.0622 66.6506
L98.1226 66.7716
" />
<path d="M98.1226 66.7716
L98.1831 66.8321
" />
<path d="M98.1831 66.8321
L98.3041 66.8925
" />
<path d="M98.3041 66.8925
L98.5460 66.8925
" />
<path d="M98.5460 66.8925
L98.6669 66.8321
" />
<path d="M98.6669 66.8321
L98.7274 66.7716
" />
<path d="M98.7274 66.7716
L98.7879 66.6506
" />
<path d="M98.7879 66.6506
L98.7879 66.3482
" />
<path d="M98.7879 66.3482
L98.7274 66.2273
" />
<path d="M98.7274 66.2273
L98.6669 66.1668
" />
<path d="M98.6669 66.1668
L98.5460 66.1063
" />
<path d="M98.5460 66.1063
L98.3041 66.1063
" />
<path d="M98.3041 66.1063
L98.1831 66.1668
" />
<path d="M98.1831 66.1668
L98.1226 66.2273
" />
<path d="M98.1226 66.2273
L98.0622 66.3482
" />
</g><path d="M91.4400 69.8500
L87.6300 69.8500
" />
<text x="89.5350" y="69.5960"
textLength="1.4127" font-size="1.6933" lengthAdjust="spacingAndGlyphs"
text-anchor="middle" opacity="0">7</text>
<g class="stroked-text"><desc>7</desc>
<path d="M89.1117 68.1625
L89.9583 68.1625
" />
<path d="M89.9583 68.1625
L89.4141 69.4325
" />
</g><path d="M96.5200 69.8500
L100.3300 69.8500
" />
<text x="98.4250" y="69.5960"
textLength="1.4127" font-size="1.6933" lengthAdjust="spacingAndGlyphs"
text-anchor="middle" opacity="0">8</text>
<g class="stroked-text"><desc>8</desc>
<path d="M98.3041 68.7068
L98.1831 68.6463
" />
<path d="M98.1831 68.6463
L98.1226 68.5859
" />
<path d="M98.1226 68.5859
L98.0622 68.4649
" />
<path d="M98.0622 68.4649
L98.0622 68.4044
" />
<path d="M98.0622 68.4044
L98.1226 68.2835
" />
<path d="M98.1226 68.2835
L98.1831 68.2230
" />
<path d="M98.1831 68.2230
L98.3041 68.1625
" />
<path d="M98.3041 68.1625
L98.5460 68.1625
" />
<path d="M98.5460 68.1625
L98.6669 68.2230
" />
<path d="M98.6669 68.2230
L98.7274 68.2835
" />
<path d="M98.7274 68.2835
L98.7879 68.4044
" />
<path d="M98.7879 68.4044
L98.7879 68.4649
" />
<path d="M98.7879 68.4649
L98.7274 68.5859
" />
<path d="M98.7274 68.5859
L98.6669 68.6463
" />
<path d="M98.6669 68.6463
L98.5460 68.7068
" />
<path d="M98.5460 68.7068
L98.3041 68.7068
" />
<path d="M98.3041 68.7068
L98.1831 68.7673
" />
<path d="M98.1831 68.7673
L98.1226 68.8278
" />
<path d="M98.1226 68.8278
L98.0622 68.9487
" />
<path d="M98.0622 68.9487
L98.0622 69.1906
" />
<path d="M98.0622 69.1906
L98.1226 69.3116
" />
<path d="M98.1226 69.3116
L98.1831 69.3721
" />
<path d="M98.1831 69.3721
L98.3041 69.4325
" />
<path d="M98.3041 69.4325
L98.5460 69.4325
" />
<path d="M98.5460 69.4325
L98.6669 69.3721
" />
<path d="M98.6669 69.3721
L98.7274 69.3116
" />
<path d="M98.7274 69.3116
L98.7879 69.1906
" />
<path d="M98.7879 69.1906
L98.7879 68.9487
" />
<path d="M98.7879 68.9487
L98.7274 68.8278
" />
<path d="M98.7274 68.8278
L98.6669 68.7673
" />
<path d="M98.6669 68.7673
L98.5460 68.7068
" />
</g><path d="M91.4400 72.3900
L87.6300 72.3900
" />
<text x="89.5350" y="72.1360"
textLength="1.4127" font-size="1.6933" lengthAdjust="spacingAndGlyphs"
text-anchor="middle" opacity="0">9</text>
<g class="stroked-text"><desc>9</desc>
<path d="M89.2931 71.9725
L89.5350 71.9725
" />
<path d="M89.5350 71.9725
L89.6560 71.9121
" />
<path d="M89.6560 71.9121
L89.7164 71.8516
" />
<path d="M89.7164 71.8516
L89.8374 71.6701
" />
<path d="M89.8374 71.6701
L89.8979 71.4282
" />
<path d="M89.8979 71.4282
L89.8979 70.9444
" />
<path d="M89.8979 70.9444
L89.8374 70.8235
" />
<path d="M89.8374 70.8235
L89.7769 70.7630
" />
<path d="M89.7769 70.7630
L89.6560 70.7025
" />
<path d="M89.6560 70.7025
L89.4141 70.7025
" />
<path d="M89.4141 70.7025
L89.2931 70.7630
" />
<path d="M89.2931 70.7630
L89.2326 70.8235
" />
<path d="M89.2326 70.8235
L89.1722 70.9444
" />
<path d="M89.1722 70.9444
L89.1722 71.2468
" />
<path d="M89.1722 71.2468
L89.2326 71.3678
" />
<path d="M89.2326 71.3678
L89.2931 71.4282
" />
<path d="M89.2931 71.4282
L89.4141 71.4887
" />
<path d="M89.4141 71.4887
L89.6560 71.4887
" />
<path d="M89.6560 71.4887
L89.7769 71.4282
" />
<path d="M89.7769 71.4282
L89.8374 71.3678
" />
<path d="M89.8374 71.3678
L89.8979 71.2468
" />
</g><text x="93.3450" y="59.6900"
textLength="11.7539" font-size="1.6933" lengthAdjust="spacingAndGlyphs"
text-anchor="middle" opacity="0">Conn_02x08</text>
<g class="stroked-text"><desc>Conn_02x08</desc>
<path d="M88.5977 59.5136
L88.5373 59.5741
" />
<path d="M88.5373 59.5741
L88.3558 59.6345
" />
<path d="M88.3558 59.6345
L88.2349 59.6345
" />
<path d="M88.2349 59.6345
L88.0535 59.5741
" />
<path d="M88.0535 59.5741
L87.9325 59.4531
" />
<path d="M87.9325 59.4531
L87.8720 59.3321
" />
<path d="M87.8720 59.3321
L87.8116 59.0902
" />
<path d="M87.8116 59.0902
L87.8116 58.9088
" />
<path d="M87.8116 58.9088
L87.8720 58.6669
" />
<path d="M87.8720 58.6669
L87.9325 58.5460
" />
<path d="M87.9325 58.5460
L88.0535 58.4250
" />
<path d="M88.0535 58.4250
L88.2349 58.3645
" />
<path d="M88.2349 58.3645
L88.3558 58.3645
" />
<path d="M88.3558 58.3645
L88.5373 58.4250
" />
<path d="M88.5373 58.4250
L88.5977 58.4855
" />
<path d="M89.3235 59.6345
L89.2025 59.5741
" />
<path d="M89.2025 59.5741
L89.1420 59.5136
" />
<path d="M89.1420 59.5136
L89.0816 59.3926
" />
<path d="M89.0816 59.3926
L89.0816 59.0298
" />
<path d="M89.0816 59.0298
L89.1420 58.9088
" />
<path d="M89.1420 58.9088
L89.2025 58.8483
" />
<path d="M89.2025 58.8483
L89.3235 58.7879
" />
<path d="M89.3235 58.7879
L89.5049 58.7879
" />
<path d="M89.5049 58.7879
L89.6258 58.8483
" />
<path d="M89.6258 58.8483
L89.6863 58.9088
" />
<path d="M89.6863 58.9088
L89.7468 59.0298
" />
<path d="M89.7468 59.0298
L89.7468 59.3926
" />
<path d="M89.7468 59.3926
L89.6863 59.5136
" />
<path d="M89.6863 59.5136
L89.6258 59.5741
" />
<path d="M89.6258 59.5741
L89.5049 59.6345
" />
<path d="M89.5049 59.6345
L89.3235 59.6345
" />
<path d="M90.2910 58.7879
L90.2910 59.6345
" />
<path d="M90.2910 58.9088
L90.3515 58.8483
" />
<path d="M90.3515 58.8483
L90.4725 58.7879
" />
<path d="M90.4725 58.7879
L90.6539 58.7879
" />
<path d="M90.6539 58.7879
L90.7748 58.8483
" />
<path d="M90.7748 58.8483
L90.8353 58.9693
" />
<path d="M90.8353 58.9693
L90.8353 59.6345
" />
<path d="M91.4400 58.7879
L91.4400 59.6345
" />
<path d="M91.4400 58.9088
L91.5005 58.8483
" />
<path d="M91.5005 58.8483
L91.6215 58.7879
" />
<path d="M91.6215 58.7879
L91.8029 58.7879
" />
<path d="M91.8029 58.7879
L91.9238 58.8483
" />
<path d="M91.9238 58.8483
L91.9843 58.9693
" />
<path d="M91.9843 58.9693
L91.9843 59.6345
" />
<path d="M92.2867 59.7555
L93.2543 59.7555
" />
<path d="M93.7985 58.3645
L93.9195 58.3645
" />
<path d="M93.9195 58.3645
L94.0404 58.4250
" />
<path d="M94.0404 58.4250
L94.1009 58.4855
" />
<path d="M94.1009 58.4855
L94.1614 58.6064
" />
<path d="M94.1614 58.6064
L94.2219 58.8483
" />
<path d="M94.2219 58.8483
L94.2219 59.1507
" />
<path d="M94.2219 59.1507
L94.1614 59.3926
" />
<path d="M94.1614 59.3926
L94.1009 59.5136
" />
<path d="M94.1009 59.5136
L94.0404 59.5741
" />
<path d="M94.0404 59.5741
L93.9195 59.6345
" />
<path d="M93.9195 59.6345
L93.7985 59.6345
" />
<path d="M93.7985 59.6345
L93.6776 59.5741
" />
<path d="M93.6776 59.5741
L93.6171 59.5136
" />
<path d="M93.6171 59.5136
L93.5566 59.3926
" />
<path d="M93.5566 59.3926
L93.4962 59.1507
" />
<path d="M93.4962 59.1507
L93.4962 58.8483
" />
<path d="M93.4962 58.8483
L93.5566 58.6064
" />
<path d="M93.5566 58.6064
L93.6171 58.4855
" />
<path d="M93.6171 58.4855
L93.6776 58.4250
" />
<path d="M93.6776 58.4250
L93.7985 58.3645
" />
<path d="M94.7057 58.4855
L94.7661 58.4250
" />
<path d="M94.7661 58.4250
L94.8871 58.3645
" />
<path d="M94.8871 58.3645
L95.1895 58.3645
" />
<path d="M95.1895 58.3645
L95.3104 58.4250
" />
<path d="M95.3104 58.4250
L95.3709 58.4855
" />
<path d="M95.3709 58.4855
L95.4314 58.6064
" />
<path d="M95.4314 58.6064
L95.4314 58.7274
" />
<path d="M95.4314 58.7274
L95.3709 58.9088
" />
<path d="M95.3709 58.9088
L94.6452 59.6345
" />
<path d="M94.6452 59.6345
L95.4314 59.6345
" />
<path d="M95.8547 59.6345
L96.5199 58.7879
" />
<path d="M95.8547 58.7879
L96.5199 59.6345
" />
<path d="M97.2456 58.3645
L97.3666 58.3645
" />
<path d="M97.3666 58.3645
L97.4875 58.4250
" />
<path d="M97.4875 58.4250
L97.5480 58.4855
" />
<path d="M97.5480 58.4855
L97.6085 58.6064
" />
<path d="M97.6085 58.6064
L97.6690 58.8483
" />
<path d="M97.6690 58.8483
L97.6690 59.1507
" />
<path d="M97.6690 59.1507
L97.6085 59.3926
" />
<path d="M97.6085 59.3926
L97.5480 59.5136
" />
<path d="M97.5480 59.5136
L97.4875 59.5741
" />
<path d="M97.4875 59.5741
L97.3666 59.6345
" />
<path d="M97.3666 59.6345
L97.2456 59.6345
" />
<path d="M97.2456 59.6345
L97.1247 59.5741
" />
<path d="M97.1247 59.5741
L97.0642 59.5136
" />
<path d="M97.0642 59.5136
L97.0037 59.3926
" />
<path d="M97.0037 59.3926
L96.9433 59.1507
" />
<path d="M96.9433 59.1507
L96.9433 58.8483
" />
<path d="M96.9433 58.8483
L97.0037 58.6064
" />
<path d="M97.0037 58.6064
L97.0642 58.4855
" />
<path d="M97.0642 58.4855
L97.1247 58.4250
" />
<path d="M97.1247 58.4250
L97.2456 58.3645
" />
<path d="M98.3947 58.9088
L98.2737 58.8483
" />
<path d="M98.2737 58.8483
L98.2132 58.7879
" />
<path d="M98.2132 58.7879
L98.1528 58.6669
" />
<path d="M98.1528 58.6669
L98.1528 58.6064
" />
<path d="M98.1528 58.6064
L98.2132 58.4855
" />
<path d="M98.2132 58.4855
L98.2737 58.4250
" />
<path d="M98.2737 58.4250
L98.3947 58.3645
" />
<path d="M98.3947 58.3645
L98.6366 58.3645
" />
<path d="M98.6366 58.3645
L98.7575 58.4250
" />
<path d="M98.7575 58.4250
L98.8180 58.4855
" />
<path d="M98.8180 58.4855
L98.8785 58.6064
" />
<path d="M98.8785 58.6064
L98.8785 58.6669
" />
<path d="M98.8785 58.6669
L98.8180 58.7879
" />
<path d="M98.8180 58.7879
L98.7575 58.8483
" />
<path d="M98.7575 58.8483
L98.6366 58.9088
" />
<path d="M98.6366 58.9088
L98.3947 58.9088
" />
<path d="M98.3947 58.9088
L98.2737 58.9693
" />
<path d="M98.2737 58.9693
L98.2132 59.0298
" />
<path d="M98.2132 59.0298
L98.1528 59.1507
" />
<path d="M98.1528 59.1507
L98.1528 59.3926
" />
<path d="M98.1528 59.3926
L98.2132 59.5136
" />
<path d="M98.2132 59.5136
L98.2737 59.5741
" />
<path d="M98.2737 59.5741
L98.3947 59.6345
" />
<path d="M98.3947 59.6345
L98.6366 59.6345
" />
<path d="M98.6366 59.6345
L98.7575 59.5741
" />
<path d="M98.7575 59.5741
L98.8180 59.5136
" />
<path d="M98.8180 59.5136
L98.8785 59.3926
" />
<path d="M98.8785 59.3926
L98.8785 59.1507
" />
<path d="M98.8785 59.1507
L98.8180 59.0298
" />
<path d="M98.8180 59.0298
L98.7575 58.9693
" />
<path d="M98.7575 58.9693
L98.6366 58.9088
" />
</g></g>
</g>
<g style="fill:#000000; fill-opacity:0.0; 
stroke:#000000; stroke-width:0.1524; stroke-opacity:1; 
stroke-linecap:round; stroke-linejoin:round;">
<path d="M100.3300 62.2300
L106.6800 62.2300
" />
<path d="M100.3300 77.4700
L106.6800 77.4700
" />
<path d="M100.3300 69.8500
L106.6800 69.8500
" />
<path d="M100.3300 72.3900
L106.6800 72.3900
" />
<path d="M100.3300 74.9300
L106.6800 74.9300
" />
<path d="M100.3300 80.0100
L106.6800 80.0100
" />
<path d="M100.3300 67.3100
L106.6800 67.3100
" />
<path d="M100.3300 64.7700
L106.6800 64.7700
" />
<path d="M81.2800 67.3100
L87.6300 67.3100
" />
<path d="M81.2800 62.2300
L87.6300 62.2300
" />
<path d="M81.2800 72.3900
L87.6300 72.3900
" />
<path d="M81.2800 69.8500
L87.6300 69.8500
" />
<path d="M81.2800 77.4700
L87.6300 77.4700
" />
<path d="M81.2800 64.7700
L87.6300 64.7700
" />
<path d="M81.2800 80.0100
L87.6300 80.0100
" />
<path d="M81.2800 74.9300
L87.6300 74.9300
" />
</g> 
</svg>
